<svg width="117" height="40" viewBox="0 0 117 40" fill="none" xmlns="http://www.w3.org/2000/svg">
<g clip-path="url(#clip0_78_189)">
<path d="M115.32 8.77344H108.366L108.21 9.15089L101.776 24.6891L95.6655 9.20205L95.5135 8.81664H87.2709L87.6063 9.54995L97.8385 32.4769L97.675 32.8589C96.9986 34.4802 96.2539 34.9486 94.3567 34.9486H90.3476V39.9965H95.2506C99.9986 39.9965 102.753 38.4309 104.46 34.7667L115.965 9.51357L116.303 8.77344H115.32Z" fill="#082C49"/>
<path d="M85.4461 13.8317H86.4054L86.097 13.1029L84.4257 9.1476L84.2737 8.77356H79.7345V0H72.3361V8.77356H67.8751V13.8317H72.3361V26.4821C72.3361 31.8097 78.3447 31.8097 80.3186 31.8097C82.5555 31.8097 85.4518 31.5823 85.5769 31.5698L86.1979 31.5198V26.39L85.4148 26.4753C84.2529 26.6016 83.0815 26.665 81.9089 26.6652H81.8364C80.0074 26.6652 79.7559 26.074 79.7559 25.4339V13.8317H85.4461Z" fill="#082C49"/>
<path d="M58.7343 0.118164H58.0436V0.670704V31.0638V31.6152H58.7343H64.6761H65.3654V31.0638V0.670704V0.118164H64.6761H58.7343Z" fill="#082C49"/>
<path d="M54.6685 22.2154V21.4764C54.6443 17.2221 53.1166 13.7374 50.2459 11.3943C47.6878 9.30689 44.0739 8.15747 40.0677 8.15747C31.6318 8.19158 25.5109 13.2452 25.5109 20.1724C25.5109 27.1348 31.7071 32.1884 40.2467 32.1884C40.4045 32.1884 40.5892 32.1964 40.774 32.1964C43.5848 32.1943 46.335 31.5426 48.6938 30.3197C51.0526 29.0969 52.9196 27.3549 54.0702 25.3033L54.4965 24.5472L53.4619 24.5256L46.7087 24.3858L46.3406 24.3778L46.1274 24.6188C45.5062 25.3226 44.6831 25.8969 43.7271 26.2935C42.7711 26.6901 41.7102 26.8976 40.6333 26.8983C40.5338 26.8983 40.4343 26.8983 40.3334 26.8927H40.251C38.6012 26.8928 37.0054 26.4217 35.7512 25.5642C34.497 24.7067 33.6666 23.5192 33.4096 22.2154H54.6685ZM46.4784 17.5893H33.4182C33.7855 16.4186 34.6304 15.3794 35.819 14.6361C37.0077 13.8927 38.4722 13.4877 39.981 13.485H40.2297C41.702 13.4911 43.1268 13.9024 44.2648 14.6498C45.4027 15.3972 46.1844 16.4352 46.4784 17.5893Z" fill="#082C49"/>
<path d="M0.690675 8.77344H0V9.32484V13.279V13.8316H0.690675H21.4066L21.8884 8.77344H0.690675Z" fill="#082C49"/>
<path d="M9.3781 26.5571H2.29229L1.80768 31.6153H23.0409H23.7316V31.0639V27.1085V26.5571H23.0409H9.3781Z" fill="#082C49"/>
<path d="M1.89546 24.4623L21.8902 8.77065C22.4717 9.24482 22.9307 9.80598 23.241 10.4221C23.5514 11.0382 23.707 11.6971 23.6991 12.3613C23.6911 13.0255 23.5197 13.682 23.1946 14.2932C22.8695 14.9044 22.3971 15.4584 21.8044 15.9236L1.80963 31.6152C0.635338 30.6576 -0.0153291 29.3659 0.000767495 28.0245C0.0168642 26.6831 0.698405 25.4017 1.89546 24.4623Z" fill="#5FC97E"/>
</g>
<defs>
<clipPath id="clip0_78_189">
<rect width="116.306" height="40" fill="white"/>
</clipPath>
</defs>
</svg>
