<svg width="149" height="40" viewBox="0 0 149 40" fill="none" xmlns="http://www.w3.org/2000/svg">
<g clip-path="url(#clip0_78_236)">
<path d="M93.2787 9.67742C98.9559 9.67742 102.557 13.6229 102.557 19.6059C102.557 25.5565 98.9559 29.5021 93.2787 29.5021C90.8806 29.5021 88.5124 28.3993 87.6092 26.766L87.5041 26.5591V40H82.865V9.92617H87.5041V12.588C88.2827 10.9063 90.7807 9.67742 93.2787 9.67742ZM115.03 9.7036C117.428 9.7036 119.826 10.8064 120.731 12.4397L120.837 12.6466V9.92999H125.443V29.3342H120.837V26.6177C120.058 28.2994 117.528 29.5283 115.03 29.5283C109.352 29.5283 105.751 25.5828 105.751 19.5998C105.751 13.6492 109.352 9.7036 115.03 9.7036ZM31.2334 9.7036C33.6315 9.7036 36.0296 10.8064 36.9351 12.4397L37.0404 12.6466V9.92999H41.6471V29.3342H37.0404V26.6177C36.2618 28.2994 33.7314 29.5283 31.2334 29.5283C25.5562 29.5283 21.9552 25.5828 21.9552 19.5998C21.9552 13.6492 25.5562 9.7036 31.2334 9.7036ZM52.4826 9.7036C56.3679 9.7036 59.0844 12.0952 59.3445 15.6841L59.3601 15.9777H55.2076C55.1428 14.6517 53.9424 13.6168 52.4501 13.6168C51.0876 13.5845 50.0819 14.296 50.0819 15.3955C50.0819 16.3867 50.9224 16.8686 51.9456 17.2042L52.3366 17.3238L52.737 17.4341L53.2287 17.5623L54.0634 17.7664L54.7054 17.9393L55.1355 18.0683C55.2787 18.1134 55.4216 18.1608 55.5638 18.2108L55.9874 18.369C58.0187 19.1753 59.7819 20.6108 59.7819 23.804C59.7819 27.0704 56.6351 29.5283 52.4177 29.5283C48.8412 29.5283 45.0795 27.2196 44.868 23.1429L44.8588 22.8338H49.2709C49.3033 24.3538 50.7632 25.6151 52.515 25.6151C54.1371 25.6475 55.1752 24.9683 55.1752 23.8364C55.1752 22.7607 54.3954 22.1798 53.0977 21.6887L52.6187 21.5184L52.0992 21.3517L50.6319 20.9077L50.1709 20.7618L49.7109 20.6067L49.2555 20.4395C47.2221 19.6552 45.4428 18.4102 45.4428 15.4602C45.4428 11.8057 48.5247 9.7036 52.4826 9.7036ZM148.671 0V29.3342H144.032V26.6177C143.254 28.2994 140.756 29.5283 138.225 29.5283C132.548 29.5283 128.947 25.5828 128.947 19.5998C128.947 13.6492 132.548 9.7036 138.225 9.7036C140.623 9.7036 143.021 10.8064 143.927 12.4397L144.032 12.6466V0H148.671ZM9.75719 9.67128C14.5047 9.67128 17.9554 12.4109 18.9945 16.809L19.0679 17.1419H14.2017C13.3906 15.3308 11.8334 14.2636 9.75719 14.2636C6.83747 14.2636 4.89098 16.3657 4.89098 19.5674C4.89098 22.7691 6.83747 24.8713 9.75719 24.8713C11.7391 24.8713 13.2776 23.8989 14.0905 22.2353L14.2017 21.993H19.0679C18.1271 26.6177 14.6234 29.496 9.75719 29.496C4.07995 29.496 0.284302 25.5504 0.284302 19.5674C0.284302 13.6168 4.07995 9.67128 9.75719 9.67128ZM67.3732 0V12.6466C68.0869 10.9326 70.1631 9.7036 72.3692 9.7036C77.2293 9.7036 80.2854 13.4864 80.4106 19.2305L80.4146 19.5998V29.3203H75.7755V19.5998C75.7755 16.3981 74.121 14.296 71.5257 14.296C69.2025 14.296 67.4869 16.4161 67.3786 19.3374L67.3732 19.6321V29.3203H62.7665V0H67.3732ZM115.614 14.296C112.467 14.296 110.391 16.3981 110.391 19.5998C110.391 22.8015 112.467 24.9036 115.614 24.9036C118.728 24.9036 120.869 22.7692 120.837 19.6321C120.837 16.5275 118.663 14.296 115.614 14.296ZM138.809 14.296C135.662 14.296 133.586 16.3981 133.586 19.5998C133.586 22.8015 135.695 24.9036 138.809 24.9036C141.924 24.9036 144.065 22.7692 144.032 19.6321C144.032 16.5275 141.859 14.296 138.809 14.296ZM31.8174 14.296C28.6706 14.296 26.5943 16.3981 26.5943 19.5998C26.5943 22.8015 28.6706 24.9036 31.8174 24.9036C34.9317 24.9036 37.0729 22.7692 37.0404 19.6321C37.0404 16.5275 34.8669 14.296 31.8174 14.296ZM92.6947 14.2697C89.6128 14.2697 87.4716 16.4366 87.5041 19.5736C87.5041 22.6783 89.6777 24.8774 92.6947 24.8774C95.8415 24.8774 97.9502 22.7753 97.9502 19.6059C97.9502 16.4042 95.8415 14.2697 92.6947 14.2697ZM71.252 0V7.74194H68.6714V0H71.252ZM73.8327 0V7.74194H72.5424V0H73.8327ZM77.7037 0V7.74194H76.4133V0H77.7037ZM85.4456 0V7.74194H82.865V0H85.4456ZM89.3166 0V7.74194H88.0262V0H89.3166ZM95.7682 0V7.74194H91.8972V0H95.7682ZM99.6391 0V7.74194H97.0585V0H99.6391ZM106.091 0V7.74194H102.22V0H106.091ZM109.962 0V7.74194H108.671V0H109.962ZM115.123 0V7.74194H111.252V0H115.123ZM118.994 0V7.74194H116.413V0H118.994ZM121.575 0V7.74194H120.284V0H121.575ZM128.026 0V7.74194H125.446V0H128.026ZM135.768 0V7.74194H131.897V0H135.768ZM138.349 0V7.74194H137.059V0H138.349ZM142.22 0V7.74194H139.639V0H142.22Z" fill="black"/>
</g>
<defs>
<clipPath id="clip0_78_236">
<rect width="148.387" height="40" fill="white" transform="translate(0.284302)"/>
</clipPath>
</defs>
</svg>
