<svg width="164" height="40" viewBox="0 0 164 40" fill="none" xmlns="http://www.w3.org/2000/svg">
<path d="M79.8714 28.3906H36.0974V31.1163H79.8714V28.3906Z" fill="#00822E"/>
<path d="M163.746 28.3906H119.965V31.1163H163.746V28.3906Z" fill="#D4011C"/>
<path d="M79.8714 28.3906H36.0974V31.1163H79.8714V28.3906Z" stroke="#1A171B" stroke-width="0.2239" stroke-miterlimit="10"/>
<path d="M163.746 28.3906H119.965V31.1163H163.746V28.3906Z" stroke="#1A171B" stroke-width="0.2239" stroke-miterlimit="10"/>
<path d="M36.0663 8.37109H44.8879C47.567 8.37109 49.4151 8.48758 50.4247 8.72831C51.6904 9.00786 52.7388 9.49709 53.5697 10.1805C54.3928 10.8638 54.8122 11.7413 54.8122 12.7974C54.8122 13.6982 54.4938 14.4748 53.8648 15.1348C53.1038 15.9269 52.1874 16.486 51.1003 16.8199C50.0209 17.1539 48.3124 17.3169 45.9828 17.3169H41.8982V21.3162C41.8982 21.9141 41.9448 22.2868 42.0457 22.4421C42.17 22.6596 42.3486 22.8071 42.5738 22.8925C42.799 22.978 43.2494 23.0246 43.9327 23.0246H44.7015V23.9642H36.0663V23.0246H36.5943C37.3321 23.0246 37.829 22.978 38.1008 22.8925C38.3649 22.8071 38.559 22.6751 38.6833 22.4887C38.8075 22.3024 38.8696 21.9607 38.8696 21.4559V10.7939C38.8696 10.2969 38.8153 9.96302 38.6988 9.79994C38.5901 9.6291 38.4037 9.50485 38.1397 9.4272C37.8756 9.34955 37.3631 9.31072 36.5943 9.31072H36.0663V8.37109ZM41.9059 9.59028V16.1288H45.346C47.0855 16.1288 48.3047 16.0201 49.0036 15.8027C49.7025 15.5852 50.2849 15.2125 50.743 14.6767C51.2012 14.1408 51.4342 13.5196 51.4342 12.8052C51.4342 12.0209 51.1701 11.3686 50.6343 10.8405C50.0985 10.3125 49.3763 9.95525 48.46 9.76888C47.8232 9.64463 46.573 9.58251 44.7093 9.58251H41.9059V9.59028Z" fill="#1A171B"/>
<path d="M64.6122 12.9062C66.1808 12.9062 67.532 13.1314 68.6813 13.5896C69.8306 14.0478 70.7314 14.7078 71.3915 15.5776C72.0515 16.4473 72.3854 17.4413 72.3854 18.5595C72.3854 19.6777 72.0438 20.6717 71.3682 21.5415C70.6926 22.4112 69.7685 23.079 68.6037 23.5372C67.4388 23.9954 66.041 24.2283 64.4258 24.2283C61.8477 24.2283 59.9063 23.6692 58.6172 22.5432C57.3204 21.4172 56.6759 20.0971 56.6759 18.5751C56.6759 17.4646 57.0098 16.4784 57.6854 15.6164C58.3532 14.7544 59.3006 14.0866 60.5043 13.6129C61.7001 13.147 63.0746 12.9062 64.6122 12.9062ZM64.4802 13.9934C63.261 13.9934 62.236 14.3273 61.3973 15.0029C60.3334 15.8416 59.7976 17.053 59.7976 18.6449C59.7976 20.1825 60.248 21.3473 61.1566 22.1549C61.9797 22.8694 63.0902 23.2266 64.4957 23.2266C65.4043 23.2266 66.2119 23.0557 66.9185 22.7218C67.6252 22.3879 68.1999 21.8521 68.6347 21.1144C69.0696 20.3766 69.287 19.5147 69.287 18.5285C69.287 17.5578 69.0541 16.688 68.5804 15.9193C68.2154 15.3058 67.6718 14.8321 66.9418 14.4904C66.2197 14.1643 65.3965 13.9934 64.4802 13.9934Z" fill="#1A171B"/>
<path d="M75.8256 14.7777V13.8459C76.7108 13.776 77.4563 13.6673 78.0543 13.5353C78.66 13.4032 79.3433 13.1936 80.1121 12.9063H81.2769V21.8754C81.2769 22.186 81.3391 22.4267 81.4711 22.582C81.5953 22.7374 81.7739 22.8538 82.0069 22.9237C82.2398 22.9936 82.6514 23.0324 83.2649 23.0324H84.0181V23.9721H75.8256V23.0324H76.4779C77.1923 23.0324 77.6737 22.9859 77.9145 22.9004C78.163 22.815 78.3338 22.683 78.4348 22.5199C78.5357 22.3568 78.5901 21.9686 78.5901 21.3706V14.7855H75.8256V14.7777ZM79.8869 7.86646C80.3994 7.86646 80.8343 7.9907 81.1993 8.2392C81.5643 8.48769 81.7429 8.79055 81.7429 9.14776C81.7429 9.50497 81.5643 9.80783 81.1993 10.0641C80.8343 10.3203 80.3994 10.4446 79.8869 10.4446C79.3744 10.4446 78.9395 10.3203 78.5745 10.0641C78.2096 9.80783 78.031 9.50497 78.031 9.14776C78.031 8.79055 78.2096 8.48769 78.5745 8.2392C78.9395 7.9907 79.3744 7.86646 79.8869 7.86646Z" fill="#1A171B"/>
<path d="M87.7068 14.7777V13.8459C88.6541 13.7682 89.3608 13.6828 89.8345 13.5741C90.3004 13.4731 90.9838 13.2479 91.8613 12.9062H93.0106V15.034C94.4161 14.2031 95.612 13.644 96.6138 13.3489C97.6077 13.0538 98.6173 12.9062 99.6423 12.9062C100.512 12.9062 101.289 13.0072 101.956 13.2169C102.624 13.4188 103.176 13.6983 103.595 14.0478C104.014 14.3972 104.294 14.7933 104.434 15.2437C104.519 15.5232 104.558 15.9348 104.558 16.4939V21.4172C104.558 22.0074 104.62 22.3879 104.744 22.551C104.868 22.7218 105.063 22.8383 105.327 22.916C105.591 22.9936 106.251 23.0247 107.291 23.0247V23.9643H99.0754V23.0247H99.5258C100.295 23.0247 100.815 22.9781 101.094 22.8771C101.374 22.7839 101.568 22.6364 101.692 22.45C101.817 22.2637 101.879 21.8831 101.879 21.3085V17.1928C101.879 16.3464 101.778 15.7562 101.584 15.4223C101.39 15.0961 101.048 14.8243 100.574 14.6224C100.1 14.4205 99.5025 14.3118 98.7726 14.3118C97.9106 14.3118 96.9865 14.4671 96.0081 14.7777C95.0296 15.0884 94.0822 15.5465 93.1659 16.1445V21.3007C93.1659 21.8831 93.228 22.2714 93.3523 22.4656C93.4765 22.6597 93.6784 22.8072 93.9502 22.9004C94.1443 22.9781 94.6569 23.0091 95.4878 23.0091H95.9537V23.9488H87.7068V23.0091H88.1106C88.9026 23.0091 89.4462 22.9626 89.7335 22.8694C90.0209 22.7762 90.2305 22.6131 90.347 22.3724C90.4091 22.2559 90.4402 21.8443 90.4402 21.1454V14.7622H87.7068V14.7777Z" fill="#1A171B"/>
<path d="M113.48 9.37305H114.614V13.1781H119.367V14.2964H114.614V21.0368C114.614 21.6114 114.684 22.023 114.832 22.2637C114.979 22.5122 115.22 22.7141 115.569 22.8695C115.919 23.0248 116.299 23.1024 116.726 23.1024C117.736 23.1024 118.862 22.784 120.081 22.155V23.2422C118.683 23.9023 117.27 24.2362 115.833 24.2362C115.018 24.2362 114.288 24.1119 113.628 23.8557C112.968 23.5994 112.525 23.3043 112.285 22.9626C112.044 22.621 111.927 22.023 111.927 21.1766V14.2964H109.132V13.3567C110.033 13.217 110.755 12.9918 111.306 12.6967C111.857 12.4016 112.3 12.0133 112.649 11.5319C112.983 11.0582 113.263 10.336 113.48 9.37305Z" fill="#1A171B"/>
<path d="M136.552 21.0834L137.577 21.6658C136.8 22.3181 136.047 22.8306 135.317 23.2111C134.587 23.5916 133.896 23.8557 133.244 24.011C132.591 24.1663 131.83 24.2439 130.96 24.2439C129.392 24.2439 128.064 24.0188 126.961 23.5761C125.703 23.0636 124.74 22.388 124.065 21.5649C123.397 20.734 123.055 19.7633 123.055 18.6373C123.055 17.4569 123.381 16.4552 124.034 15.6165C124.686 14.7856 125.595 14.1255 126.759 13.6441C127.924 13.1626 129.275 12.9219 130.813 12.9219C131.954 12.9219 132.948 13.0461 133.787 13.2946C134.626 13.5431 135.34 13.9159 135.93 14.4206C136.513 14.9254 136.94 15.5 137.212 16.1446C137.359 16.5251 137.445 17.0143 137.468 17.62H126.161C126.13 17.985 126.115 18.2568 126.115 18.4354C126.115 19.375 126.348 20.2137 126.821 20.9514C127.287 21.6891 127.909 22.2327 128.685 22.5744C129.454 22.9238 130.331 23.0947 131.318 23.0947C132.149 23.0947 132.956 22.9549 133.733 22.6831C134.502 22.4035 135.449 21.8755 136.552 21.0834ZM134.509 16.5639C134.346 15.8805 134.121 15.368 133.826 15.0419C133.531 14.7157 133.119 14.4517 132.576 14.2575C132.04 14.0634 131.434 13.9702 130.759 13.9702C130.083 13.9702 129.454 14.0634 128.872 14.2575C128.281 14.4517 127.8 14.7235 127.412 15.0651C127.023 15.4068 126.682 15.9038 126.394 16.5639H134.509Z" fill="#1A171B"/>
<path d="M141.265 8.37109H149.784V9.31072H149.116C148.479 9.31072 148.068 9.34178 147.897 9.4039C147.726 9.46603 147.641 9.55921 147.641 9.69899C147.641 9.79218 147.672 9.8776 147.734 9.97078C147.796 10.064 147.99 10.2581 148.309 10.561L152.486 14.5291L157.045 10.561C157.472 10.1882 157.682 9.90089 157.682 9.70676C157.682 9.59027 157.596 9.48932 157.433 9.4272C157.27 9.35731 156.92 9.32625 156.385 9.32625H155.569V8.38663H162.807V9.32625C161.945 9.32625 161.324 9.38837 160.943 9.52039C160.562 9.64463 160.042 9.99408 159.367 10.5687L153.55 15.4532L160.415 21.7588C160.85 22.1626 161.223 22.4421 161.518 22.613C161.813 22.7838 162.1 22.8925 162.38 22.9624C162.659 23.0246 163.117 23.0556 163.754 23.0556V23.9952H155.197V23.0556H155.864C156.524 23.0556 156.944 23.0246 157.122 22.9624C157.301 22.9003 157.386 22.7994 157.386 22.6518C157.386 22.5664 157.355 22.481 157.293 22.3956C157.27 22.3567 157.06 22.1471 156.656 21.7588L151.547 16.9908L145.963 21.9063C145.622 22.2014 145.428 22.38 145.389 22.4421C145.327 22.5276 145.296 22.6052 145.296 22.6751C145.296 22.8149 145.42 22.9236 145.661 22.9857C145.824 23.0323 146.196 23.0556 146.794 23.0556H147.462V23.9952H140.24V23.0556C140.9 23.0556 141.382 23.0246 141.685 22.9624C141.987 22.9003 142.298 22.7838 142.601 22.6208C142.912 22.4577 143.308 22.1704 143.781 21.7588L150.498 16.09L144.527 10.5843C143.929 10.0251 143.44 9.68346 143.067 9.54368C142.686 9.41167 142.081 9.34178 141.234 9.34178V8.37109H141.265Z" fill="#1A171B"/>
<path d="M14.7811 40.0001C14.7811 40.0001 14.9908 37.0104 17.2195 34.9215C19.4482 32.8326 27.2447 32.8559 28.6503 27.156C30.0636 21.4561 27.6252 18.4043 27.6252 18.4043C27.6252 18.4043 28.9298 22.916 25.9867 26.4183C23.1212 29.8273 16.3109 29.7574 14.2142 33.5936C12.3816 36.9405 14.7811 40.0001 14.7811 40.0001Z" fill="#1A171B"/>
<path d="M10.9916 34.5099C10.9916 34.5099 11.3643 31.1009 13.826 29.3536C17.2428 26.923 24.7831 27.7229 26.1886 22.023C27.6019 16.3231 25.3888 13.2014 25.3888 13.2014C25.3888 13.2014 26.6157 17.9461 23.6648 21.4484C20.7994 24.8574 16.0314 24.1274 12.1564 27.3113C9.08901 29.8273 10.9916 34.5099 10.9916 34.5099Z" fill="#1A171B"/>
<path d="M8.80945 27.8236C8.80945 27.8236 9.83449 24.9271 12.3117 23.3973C15.8683 21.1997 22.003 21.8986 23.7347 17.2005C25.7615 11.7103 23.1135 7.72656 23.1135 7.72656C23.1135 7.72656 24.387 12.2771 21.6303 15.8027C17.7165 20.8036 13.8881 18.6138 10.4946 21.4948C8.0096 23.607 8.80945 27.8236 8.80945 27.8236Z" fill="#1A171B"/>
<path d="M19.3937 0C19.3937 0 24.7674 7.50922 20.5741 14.1798C19.1064 16.5094 16.505 17.2005 14.9286 17.2316C14.121 17.2471 13.2279 17.1928 13.2279 17.1928C13.1114 17.1928 12.995 17.2161 12.894 17.2627L8.64629 19.2429L7.83868 20.5708C7.73773 20.7338 7.59795 20.8659 7.42711 20.9435C6.72046 21.2774 4.75579 22.1006 3.5832 21.6036C2.97749 21.3395 2.67464 21.0833 2.52709 20.8659C2.37955 20.6407 2.4805 20.3378 2.73676 20.2368L5.71094 19.0798C5.98273 18.9788 6.13804 18.7381 6.00603 18.4818L5.9672 18.4275C5.85072 18.2023 5.60999 18.1557 5.37703 18.2489L1.97574 19.6855C1.43993 19.9107 0.834219 19.5768 0.733267 19.0021C0.601254 18.2644 0.686675 17.1617 1.58747 15.7406C2.61251 14.1409 5.63329 13.2479 6.99225 12.3238C8.35121 11.3997 15.3479 5.94836 17.3203 5.90177C18.6793 5.87071 19.4636 6.3677 19.8208 6.68608C19.9606 6.81033 20.178 6.7948 20.3023 6.64725C20.4343 6.49194 20.3955 6.25898 20.2246 6.15026L19.8597 5.9173C19.8286 5.894 19.7975 5.87847 19.7587 5.87071L18.8035 5.42807C18.6249 5.36595 18.5085 5.19511 18.5318 5.00097L18.555 4.76801C18.5628 4.72918 18.5706 4.69812 18.5861 4.66706L19.0443 3.78956C19.0909 3.70414 19.1142 3.60318 19.1219 3.51L19.3937 0Z" fill="#1A171B"/>
</svg>
