<svg width="244" height="40" viewBox="0 0 244 40" fill="none" xmlns="http://www.w3.org/2000/svg">
<g clip-path="url(#clip0_78_224)">
<path d="M0.845947 28.9803H26.8196L18.1618 20.5623H9.50386V12.1445L0.845947 3.72656V28.9803Z" fill="#303030"/>
<path d="M33.6968 28.2897L35.1925 28.087C36.5225 27.9249 36.9793 27.6832 36.9793 27.3589V5.26091C36.9793 4.93662 36.731 4.77748 34.8185 4.5748L33.7383 4.41267L33.6126 3.72656H47.4086L47.2829 4.41267L45.5376 4.61535C44.4572 4.69491 43.7508 4.93662 43.7508 5.34198V27.9263L45.205 28.1291C49.3593 28.1291 51.9367 26.4325 54.7211 20.5338L55.1777 19.564H56.4664L55.3034 28.9788H33.5727L33.6968 28.2897Z" fill="#303030"/>
<path d="M59.6061 28.2899L60.1884 28.2494C61.3943 28.1698 61.8509 28.0468 61.8509 27.5633V16.979C61.8509 14.4733 61.5169 14.152 60.1056 13.7452L59.2735 13.5424L67.8732 10.8206V27.5994C67.8732 27.9641 68.1215 28.0437 69.8668 28.245L70.2407 28.2854L70.3663 28.9715H59.4804L59.6045 28.2854V28.2899H59.6061ZM61.0603 5.13956C61.0603 3.40253 62.4715 1.74658 64.6323 1.74658C66.7929 1.74658 68.2486 3.40404 68.2486 5.13956C68.2486 6.87659 66.8787 8.57309 64.6323 8.57309C62.3873 8.57309 61.0603 6.87509 61.0603 5.13956Z" fill="#303030"/>
<path d="M73.1735 26.5502C73.1735 24.3687 75.4169 22.7517 77.8702 22.0657V22.0251C75.5012 21.2174 73.883 19.6816 73.883 16.8951C73.883 13.6642 77.2067 10.6316 82.1103 10.6316C83.9813 10.6316 85.9749 11.076 87.2636 11.8041L93.3304 11.1586L92.9963 13.7439L88.8421 13.1373L88.8006 13.2589C89.7139 14.0276 90.2564 15.158 90.2564 16.4102C90.2564 20.0058 86.8484 22.5506 81.8207 22.5506C80.7817 22.5506 79.827 22.468 78.9536 22.3059C77.8733 22.5897 77.127 23.3568 77.127 24.1254C77.127 25.0938 78.0817 25.5397 80.2838 25.5397C81.5725 25.5397 84.605 25.4182 86.1834 25.4182C89.881 25.4182 92.4584 27.4389 92.4584 30.6698C92.4584 34.9921 87.5977 38.7093 80.7404 38.7093C75.3388 38.7093 72.6786 37.3746 72.6786 34.6693C72.6786 32.5283 75.1303 31.4384 77.6235 30.5076C75.1732 30.2224 73.1766 28.4868 73.1766 26.5471H73.1735V26.5502ZM88.5509 33.4593C88.5509 31.3979 87.1365 30.7523 84.1883 30.5497C83.2749 30.428 81.3626 30.5091 78.6624 30.6292C77.4565 31.1562 77.1255 32.2056 77.1255 33.6603C77.1255 35.8418 79.2862 37.4978 82.8995 37.4978C86.2676 37.4993 88.5509 35.7623 88.5509 33.4593ZM84.605 16.7315C84.605 13.2574 83.6503 11.5189 82.069 11.5189C80.365 11.5189 79.6586 12.894 79.6586 16.6909C79.6586 20.204 80.5304 21.7414 82.069 21.7414C83.8143 21.7429 84.605 20.4082 84.605 16.7315Z" fill="#303030"/>
<path d="M95.5484 28.2478C96.7958 28.1681 97.2095 28.045 97.2095 27.5616V7.4424C97.2095 5.46365 96.9612 5.09883 95.7982 4.73552L94.6352 4.29112L103.319 1.5437V14.1489H103.36C105.48 12.4523 107.973 10.6357 110.549 10.6357C111.919 10.6357 112.999 11.1191 113.998 12.0905C114.953 13.0604 115.368 14.9175 115.368 16.8993V27.5661C115.368 27.8484 115.576 28.0106 117.403 28.2523L117.86 28.2927L117.984 28.9789H107.224L107.348 28.2927L108.054 28.2523C109.424 28.1726 109.384 27.8904 109.384 27.5661V18.0718C109.384 15.0827 108.096 14.314 106.143 14.314C104.937 14.314 103.941 14.7178 103.235 15.1217V27.6051C103.235 27.97 103.443 28.1321 104.855 28.2507L105.52 28.2913L105.642 28.9773H94.8373L95.5438 28.2492L95.5484 28.2478Z" fill="#303030"/>
<path d="M137.056 28.45L136.931 23.2794L138.093 23.362L139.216 25.6244C140.629 27.6437 141.751 28.6962 143.911 28.6962C146.073 28.6962 147.194 27.5656 147.194 25.8271C147.194 23.9279 145.075 23.1998 142.749 22.3111C139.593 21.14 137.013 19.8879 137.013 16.5745C137.013 12.9788 140.006 10.6758 144.491 10.6758C145.987 10.6758 147.691 10.958 148.812 11.3213L150.846 10.6758L151.056 16.696L149.976 16.7367L146.819 12.2131C146.154 11.8483 145.448 11.5676 144.45 11.5676C142.663 11.5676 141.542 12.578 141.542 14.2324C141.542 16.052 143.453 16.7381 145.945 17.666C148.812 18.7964 151.886 19.969 151.886 23.524C151.886 26.6753 149.35 29.5444 143.784 29.5444C141.248 29.5444 138.676 29.1 137.053 28.4514" fill="#303030"/>
<path d="M153.727 38.4303L154.601 38.3478C155.765 38.2681 156.223 38.1856 156.223 37.7006V16.9764C156.223 14.4707 155.933 14.1464 154.519 13.7426L153.645 13.5399L162.29 10.8285L162.206 14.2695L162.373 14.3491C163.91 12.4499 166.196 10.7939 168.73 10.7939C172.925 10.7939 176.252 14.5518 176.252 19.5196C176.252 25.9423 171.016 29.5394 165.904 29.5394C164.367 29.5394 163.12 29.2977 162.373 28.9735H162.25V37.7817C162.25 38.1059 162.497 38.3087 164.204 38.3478L165.617 38.4303L165.743 39.1164H153.61L153.736 38.4303H153.727ZM169.767 21.1381C169.767 17.0154 167.98 14.1493 165.196 14.1493C163.908 14.1493 163.035 14.6359 162.245 15.2004V25.4213C163.574 27.4421 165.153 28.6942 166.317 28.6942C168.479 28.6942 169.767 25.4618 169.767 21.1381Z" fill="#303030"/>
<path d="M178.84 20.4172C178.84 14.7212 183.328 10.4395 189.144 10.4395C194.047 10.4395 196.58 13.4707 196.58 16.5002C196.58 16.9041 196.539 17.3485 196.457 17.7133C196.457 17.7133 186.858 17.5918 185.236 17.5107C185.195 17.8755 185.195 18.5211 185.195 18.8859C185.236 23.1272 187.481 26.0772 191.136 26.0772C193.423 26.0772 195.126 24.9842 196.248 22.9664L196.747 23.2082C195.291 27.2482 192.384 29.5092 187.812 29.5092C182.747 29.5078 178.84 25.7109 178.84 20.4172ZM191.016 16.7421C191.057 14.0772 190.474 11.4498 188.565 11.4498C186.945 11.4498 185.531 13.3085 185.241 16.7825L191.018 16.7421H191.016Z" fill="#303030"/>
<path d="M199.253 20.532C199.253 14.836 203.738 10.5542 209.556 10.5542C214.46 10.5542 216.994 13.5854 216.994 16.615C216.994 17.0189 216.951 17.4632 216.868 17.8281C216.868 17.8281 207.27 17.7065 205.647 17.6254C205.606 17.9903 205.606 18.6358 205.606 19.0006C205.647 23.2419 207.892 26.192 211.548 26.192C213.834 26.192 215.538 25.099 216.659 23.0812L217.157 23.323C215.702 27.363 212.795 29.624 208.224 29.624C203.153 29.624 199.248 25.8271 199.248 20.5335H199.253V20.532ZM211.424 16.8567C211.467 14.1918 210.885 11.5646 208.974 11.5646C207.355 11.5646 205.94 13.4232 205.651 16.8973L211.424 16.8567Z" fill="#303030"/>
<path d="M233.797 25.9873L233.715 25.9077C232.219 27.8459 229.768 29.5439 227.317 29.5439C223.077 29.5439 219.795 25.7065 219.795 20.7357C219.795 14.313 225.03 10.7969 230.391 10.7969C231.887 10.7969 232.967 10.9996 233.759 11.2803C233.759 11.2803 233.8 11.3599 233.8 11.2803V6.99856C233.8 4.97778 233.51 4.53339 232.385 4.25115L230.807 3.80675L239.822 0.95874V24.6527C239.822 26.6313 240.073 27.0773 241.277 27.4001L242.441 27.6822L242.357 28.2062L233.8 29.5785V25.9827V25.9873H233.797ZM233.797 24.9754V14.9586C232.55 12.9798 230.972 11.6857 229.892 11.6857C227.607 11.6857 226.32 14.837 226.32 19.2013C226.32 23.5656 228.107 26.313 230.766 26.313C232.013 26.313 232.926 25.7065 233.8 24.9799" fill="#303030"/>
<path d="M134.361 25.4606C133.612 26.0266 132.49 26.5506 130.994 26.5506C128.793 26.5506 127.713 25.5401 127.754 22.3484L127.876 13.8644H133.734L134.274 11.3587H127.917L127.959 6.604L122.177 8.42962L122.21 11.3467H121.129L120.643 11.8196L118.533 13.8704H118.947L122.224 13.9875L122.058 23.5209C121.975 27.5204 123.761 29.4601 127.585 29.4601C130.452 29.4601 132.612 28.0053 134.525 25.9846L134.357 25.4606H134.361Z" fill="#303030"/>
</g>
<defs>
<clipPath id="clip0_78_224">
<rect width="242.424" height="40" fill="white" transform="translate(0.845947)"/>
</clipPath>
</defs>
</svg>
