<svg width="123" height="38" viewBox="0 0 123 38" fill="none" xmlns="http://www.w3.org/2000/svg">
<path d="M26.3283 19.5124L21.8359 22.0308L21.8605 22.0736L21.7968 22.1099V27.2889L17.6236 29.6735V21.6766C17.6236 20.4723 18.2776 19.3518 19.3313 18.7497L26.3283 14.7512V19.5124ZM13.6363 18.7495C14.6901 19.3517 15.3438 20.4722 15.3438 21.6765V29.6735L11.1988 27.3053V22.3389L11.3682 22.0433L6.63917 19.3921V14.7512L13.6363 18.7495ZM25.0848 12.7852L18.0878 16.7864C17.0341 17.3889 15.7266 17.3889 14.6729 16.7864L7.67544 12.785L11.8132 10.4188L16.3475 13.0088L16.3639 12.9808L16.3803 12.9902L20.9116 10.3989L25.0848 12.7852ZM4.23741 26.0081L6.63917 27.4224V32.1606L1.86023 29.3464C0.844351 28.7484 0.214294 27.635 0.214294 26.4386V20.7616L4.23741 23.0859V26.0081ZM10.9935 34.7032V29.8069L15.17 32.2384V37.1347L10.9935 34.7032ZM0.214294 15.7291V11.0207L4.15212 13.404V18.0673L0.214294 15.7291ZM32.3386 11.0207V15.7681L28.4008 18.0673V13.3642L32.3386 11.0207ZM28.2744 23.3259L32.3386 20.9689V26.6045C32.3386 27.8177 31.7019 28.9467 30.6759 29.553L25.9138 32.3678V27.5632L28.2744 26.168V23.3259ZM17.378 32.2384L21.6126 29.7672V34.6637L17.378 37.1347V32.2384ZM1.45782 8.93901L5.58502 6.66834L9.74797 8.95583L5.61818 11.2279L1.45782 8.93901ZM16.3096 5.05532L13.8568 6.46109L9.74797 4.10844L14.6294 1.31083C15.6663 0.716704 16.953 0.716704 17.9899 1.31083L22.805 4.07067L18.7116 6.43197L16.3096 5.05532ZM27.379 11.6424L23.2195 9.15073L27.3367 6.66834L31.5096 9.16803L27.379 11.6424Z" fill="#DC343A"/>
<path d="M42.6958 6.07643V10.3432H40.281V14.0549H42.6958V21.9542C42.6958 23.995 43.1512 25.4862 44.0621 26.4274C44.9728 27.3685 46.3126 27.839 48.0814 27.839C48.7274 27.839 49.2889 27.8097 49.7654 27.7516C50.242 27.6935 50.7767 27.5956 51.3701 27.4582L50.9888 23.4929C50.6815 23.5564 50.4301 23.5987 50.2341 23.6198C50.038 23.641 49.7706 23.6514 49.4318 23.6514C49.0081 23.6514 48.6718 23.5166 48.4231 23.2468C48.174 22.9774 48.0497 22.536 48.0497 21.9226V14.0549H50.9569V10.3432H48.0497V6.07643H42.6958ZM63.714 10.2163C63.5129 10.1635 63.2796 10.1187 63.0151 10.0815C62.7502 10.0447 62.4909 10.0259 62.2366 10.0259C61.4423 10.0259 60.7484 10.2746 60.1554 10.7716C59.5621 11.2687 59.0855 11.9667 58.7256 12.8653L58.5349 10.3432H53.483V27.5059H58.8527V16.244C59.0434 15.8633 59.3346 15.5697 59.7264 15.3635C60.1182 15.1574 60.6213 15.0542 61.2358 15.0542L63.1897 15.0702L63.714 10.2163ZM65.7477 27.5059H71.1333V10.3432H65.7477V27.5059ZM65.7477 6.36186H71.1333V2.76123H65.7477V6.36186ZM78.5523 10.3432H72.8967L78.4888 27.5059H83.9381L89.5301 10.3432H83.8904L81.6185 20.4315L81.2691 22.2715L81.1736 22.2557L80.8561 20.4315L78.5523 10.3432ZM102.629 27.2918C103.82 26.9269 104.792 26.4695 105.544 25.9197L104.273 22.6522C103.341 23.0436 102.571 23.3181 101.962 23.4771C101.353 23.6356 100.54 23.7149 99.523 23.7149C98.5166 23.7149 97.7118 23.4322 97.1082 22.8663C96.5047 22.3007 96.1444 21.579 96.028 20.7009L96.0596 20.6061H105.878V17.7985C105.878 15.4086 105.216 13.5157 103.892 12.1199C102.568 10.7239 100.741 10.0259 98.4109 10.0259C95.8583 10.0157 93.8963 10.8378 92.5248 12.4925C91.1532 14.1477 90.4676 16.2812 90.4676 18.8928V19.4957C90.4676 21.8856 91.2221 23.8736 92.7313 25.4598C94.2406 27.0459 96.2608 27.839 98.7922 27.839C100.159 27.839 101.437 27.6567 102.629 27.2918ZM100.095 14.848C100.455 15.3136 100.635 15.9797 100.635 16.8467V17.259H96.0119L95.9644 17.1798C96.0489 16.2598 96.2845 15.5248 96.6712 14.9749C97.0579 14.4252 97.6376 14.1502 98.4109 14.1502C99.1735 14.1502 99.7348 14.3829 100.095 14.848ZM113.305 22.4934C112.897 21.6794 112.693 20.5531 112.693 19.115V18.7501C112.693 17.3543 112.897 16.2387 113.305 15.4033C113.713 14.5679 114.425 14.1502 115.441 14.1502C116.172 14.1502 116.718 14.4066 117.078 14.9194C117.438 15.4326 117.618 16.0959 117.618 16.9102H122.527L122.559 16.8149C122.601 14.7211 121.971 13.0664 120.668 11.8501C119.366 10.6342 117.623 10.0259 115.441 10.0259C112.857 10.0259 110.861 10.8378 109.452 12.4609C108.044 14.0842 107.339 16.1805 107.339 18.7501V19.115C107.339 21.6953 108.046 23.7941 109.46 25.4121C110.874 27.0299 112.884 27.839 115.489 27.839C117.565 27.839 119.273 27.2497 120.613 26.0704C121.952 24.8914 122.601 23.366 122.559 21.4942L122.527 21.3991H117.618C117.618 22.1604 117.443 22.737 117.094 23.128C116.744 23.5194 116.209 23.7149 115.489 23.7149C114.441 23.7149 113.713 23.3079 113.305 22.4934Z" fill="#4C4C4E"/>
</svg>
