<svg width="34" height="32" viewBox="0 0 34 32" fill="none" xmlns="http://www.w3.org/2000/svg">
<path d="M30.3333 25.1667V26.4167C31.0237 26.4167 31.5833 25.8571 31.5833 25.1667H30.3333ZM3.66667 25.1667H2.41667C2.41667 25.8571 2.97631 26.4167 3.66667 26.4167V25.1667ZM13.4817 13.2227C14.072 12.8647 14.2603 12.0959 13.9023 11.5057C13.5443 10.9154 12.7756 10.7271 12.1853 11.0851L13.4817 13.2227ZM6.93011 18.1995C6.76261 18.8692 7.16973 19.5479 7.83946 19.7155C8.50918 19.883 9.1879 19.4758 9.3554 18.8061L6.93011 18.1995ZM4.5 26.4167H29.5V23.9167H4.5V26.4167ZM29.0833 20.1667V25.1667H31.5833V20.1667H29.0833ZM30.3333 23.9167H3.66667V26.4167H30.3333V23.9167ZM4.91667 25.1667V20.1667H2.41667V25.1667H4.91667ZM18.25 4.33337C18.25 5.02373 17.6904 5.58337 17 5.58337V8.08337C19.0711 8.08337 20.75 6.40444 20.75 4.33337H18.25ZM17 5.58337C16.3096 5.58337 15.75 5.02373 15.75 4.33337H13.25C13.25 6.40444 14.9289 8.08337 17 8.08337V5.58337ZM15.75 4.33337C15.75 3.64302 16.3096 3.08337 17 3.08337V0.583374C14.9289 0.583374 13.25 2.26231 13.25 4.33337H15.75ZM17 3.08337C17.6904 3.08337 18.25 3.64302 18.25 4.33337H20.75C20.75 2.26231 19.0711 0.583374 17 0.583374V3.08337ZM12.1853 11.0851C9.60617 12.6493 7.68281 15.1901 6.93011 18.1995L9.3554 18.8061C9.94481 16.4496 11.4537 14.4527 13.4817 13.2227L12.1853 11.0851ZM17 8.08337C23.6734 8.08337 29.0833 13.4933 29.0833 20.1667H31.5833C31.5833 12.1126 25.0542 5.58337 17 5.58337V8.08337ZM17 5.58337C8.94585 5.58337 2.41667 12.1126 2.41667 20.1667H4.91667C4.91667 13.4933 10.3266 8.08337 17 8.08337V5.58337ZM4.5 26.4167H29.5V23.9167H4.5V26.4167ZM29.5 28.9167H4.5V31.4167H29.5V28.9167ZM4.5 28.9167C3.80964 28.9167 3.25 28.3571 3.25 27.6667H0.75C0.75 29.7378 2.42893 31.4167 4.5 31.4167V28.9167ZM30.75 27.6667C30.75 28.3571 30.1904 28.9167 29.5 28.9167V31.4167C31.5711 31.4167 33.25 29.7378 33.25 27.6667H30.75ZM29.5 26.4167C30.1904 26.4167 30.75 26.9764 30.75 27.6667H33.25C33.25 25.5956 31.5711 23.9167 29.5 23.9167V26.4167ZM4.5 23.9167C2.42893 23.9167 0.75 25.5956 0.75 27.6667H3.25C3.25 26.9764 3.80964 26.4167 4.5 26.4167V23.9167Z" fill="white"/>
</svg>
