<svg width="60" height="60" viewBox="0 0 60 60" fill="none" xmlns="http://www.w3.org/2000/svg">
<path d="M34.1536 9.75214C33.8284 9.99797 33.691 10.4172 33.8139 10.8076L35.1657 14.9716C35.4476 15.8391 34.4571 16.562 33.7198 16.027L30.1704 13.4534C29.8452 13.2077 29.3968 13.2077 29.0643 13.4534L25.5221 16.027C24.7848 16.562 23.7942 15.8391 24.0763 14.9716L25.4281 10.8076C25.551 10.4172 25.4136 9.99797 25.0884 9.75214L21.5389 7.17136C20.8016 6.63645 21.1774 5.4726 22.0883 5.4726H26.4764C26.8884 5.4726 27.2499 5.21239 27.3728 4.8219L28.7246 0.650635C29.0065 -0.216878 30.2355 -0.216878 30.5174 0.650635L31.8764 4.8219C31.9993 5.21227 32.3608 5.4726 32.7657 5.4726H37.1538C38.0645 5.4726 38.4405 6.63645 37.7031 7.17136L34.1536 9.75214Z" fill="url(#paint0_linear_152_7840)"/>
<path d="M15.0053 23.586C14.6801 23.8318 14.5426 24.2511 14.6656 24.6414L16.0173 28.8055C16.2993 29.673 15.3089 30.3958 14.5715 29.8609L11.0221 27.2872C10.6969 27.0415 10.2485 27.0415 9.916 27.2872L6.3738 29.8609C5.63645 30.3958 4.6459 29.673 4.92798 28.8055L6.27977 24.6414C6.40268 24.2511 6.26526 23.8318 5.94004 23.586L2.39059 21.0052C1.65324 20.4703 2.02911 19.3065 2.94001 19.3065H7.32796C7.73996 19.3065 8.10145 19.0463 8.22436 18.6558L9.57614 14.4846C9.8581 13.6171 11.0871 13.6171 11.3689 14.4846L12.728 18.6558C12.8509 19.0461 13.2124 19.3065 13.6172 19.3065H18.0053C18.9161 19.3065 19.2921 20.4703 18.5546 21.0052L15.0053 23.586Z" fill="url(#paint1_linear_152_7840)"/>
<path d="M53.3019 23.586C52.9767 23.8318 52.8393 24.2511 52.9622 24.6414L54.3139 28.8055C54.5959 29.673 53.6054 30.3958 52.8681 29.8609L49.3186 27.2872C48.9933 27.0415 48.545 27.0415 48.2125 27.2872L44.6703 29.8609C43.9329 30.3958 42.9424 29.673 43.2245 28.8055L44.5762 24.6414C44.6992 24.2511 44.5617 23.8318 44.2365 23.586L40.6871 21.0052C39.9497 20.4703 40.3256 19.3065 41.2365 19.3065H45.6246C46.0366 19.3065 46.398 19.0463 46.521 18.6558L47.8727 14.4846C48.1547 13.6171 49.3837 13.6171 49.6655 14.4846L51.0246 18.6558C51.1475 19.0461 51.509 19.3065 51.9138 19.3065H56.3019C57.2127 19.3065 57.5887 20.4703 56.8512 21.0052L53.3019 23.586Z" fill="url(#paint2_linear_152_7840)"/>
<path d="M17.2047 34.6128V54.8976C17.2047 55.8966 16.3941 56.7072 15.3949 56.7072H8.38204C7.38286 56.7072 6.58162 55.8966 6.58162 54.8976V34.6128C6.58162 33.6136 7.38286 32.803 8.38204 32.803H15.3949C16.3941 32.803 17.2047 33.6136 17.2047 34.6128Z" fill="url(#paint3_linear_152_7840)"/>
<path d="M13.9127 51.3693C13.9127 52.4818 13.0107 53.384 11.8981 53.384C10.7756 53.384 9.8736 52.4819 9.8736 51.3693C9.8736 50.2468 10.7756 49.3447 11.8981 49.3447C13.0105 49.3447 13.9127 50.2466 13.9127 51.3693Z" fill="white"/>
<path d="M42.9966 41.7009H40.6414C41.4903 41.7009 42.2435 42.0392 42.8052 42.5945C43.3477 43.1434 43.6924 43.922 43.6924 44.7582C43.6924 46.4369 42.3201 47.8156 40.6414 47.8156H38.2223C39.0712 47.8156 39.8308 48.1603 40.3861 48.6965C40.9478 49.2517 41.2797 49.9985 41.2797 50.8601C41.2797 52.5325 39.9075 53.9047 38.2223 53.9047H35.4011C36.2372 53.9047 37.0096 54.2622 37.5649 54.7983C38.101 55.3536 38.4456 56.1067 38.4456 56.9494C38.4456 58.6408 37.0797 60.0003 35.4011 60.0003H28.0226C24.4738 60.0003 21.2058 58.7875 18.6144 56.7514C18.1165 56.3622 17.6442 55.9472 17.2038 55.5004V35.4777C17.7336 35.3883 18.3847 35.2672 19.1187 35.0947C22.1505 34.3799 26.5547 32.8161 29.2609 29.5098C29.4268 29.3055 29.5863 29.0822 29.7267 28.8587C30.4864 27.6332 30.9204 26.2163 30.997 24.7865C31.0737 23.3057 32.6884 22.3675 33.9394 23.1589C34.616 23.5865 35.2032 24.1609 35.669 24.8503C36.7541 26.4843 37.035 28.5906 36.6265 30.5119C36.2052 32.4331 35.1456 34.182 33.7926 35.6053H42.9965C44.6688 35.6053 46.0411 36.9776 46.0411 38.6498C46.0411 39.4922 45.7092 40.2582 45.1539 40.8135C44.5924 41.369 43.8328 41.7009 42.9966 41.7009Z" fill="#FFCA95"/>
<defs>
<linearGradient id="paint0_linear_152_7840" x1="21.1483" y1="8.10502" x2="38.0937" y2="8.10502" gradientUnits="userSpaceOnUse">
<stop stop-color="#F79808"/>
<stop offset="1" stop-color="#ECBD0B"/>
</linearGradient>
<linearGradient id="paint1_linear_152_7840" x1="1.99997" y1="21.939" x2="18.9454" y2="21.939" gradientUnits="userSpaceOnUse">
<stop stop-color="#F9403E"/>
<stop offset="1" stop-color="#F77953"/>
</linearGradient>
<linearGradient id="paint2_linear_152_7840" x1="40.2966" y1="21.939" x2="57.242" y2="21.939" gradientUnits="userSpaceOnUse">
<stop stop-color="#F9403E"/>
<stop offset="1" stop-color="#F77953"/>
</linearGradient>
<linearGradient id="paint3_linear_152_7840" x1="6.58162" y1="44.7551" x2="17.2047" y2="44.7551" gradientUnits="userSpaceOnUse">
<stop stop-color="#0969DB"/>
<stop offset="1" stop-color="#4F8AFF"/>
</linearGradient>
</defs>
</svg>
