<svg width="60" height="60" viewBox="0 0 60 60" fill="none" xmlns="http://www.w3.org/2000/svg">
<g clip-path="url(#clip0_78_156)">
<path fill-rule="evenodd" clip-rule="evenodd" d="M35.9102 44.5873C35.6575 42.9649 34.5304 41.4793 32.9936 40.9294L21.8152 36.9472C19.6875 36.189 17.857 36.8106 15.958 37.7634L5.99219 42.7464L12.6797 57.1145C15.4805 55.9055 20.4325 53.1836 23.3907 53.631C39.6645 56.0865 36.3995 54.6522 51.9767 43.3068C56.519 40.0008 53.1134 35.5541 49.1147 37.5588L35.9102 44.5873Z" fill="#FFCCBC"/>
<path d="M23.499 46.8788C23.289 46.8041 23.1171 46.6492 23.0211 46.448C22.9251 46.2467 22.9129 46.0157 22.987 45.8054C23.0612 45.5952 23.2157 45.4229 23.4166 45.3264C23.6176 45.2299 23.8486 45.2171 24.0591 45.2907L31.5967 47.9751C32.0201 48.1352 32.4768 48.1868 32.9252 48.1253C33.3777 48.0532 33.7992 47.8502 34.1377 47.5414C34.4986 47.215 34.7712 46.8026 34.93 46.3427C35.1144 45.8217 35.166 45.2629 35.0802 44.7169C35.0626 44.6076 35.0668 44.4958 35.0925 44.3881C35.1183 44.2804 35.1651 44.1789 35.2302 44.0893C35.2954 43.9998 35.3776 43.924 35.4722 43.8664C35.5667 43.8087 35.6718 43.7704 35.7812 43.7535C35.8906 43.7366 36.0023 43.7415 36.1099 43.768C36.2174 43.7944 36.3187 43.8419 36.4078 43.9076C36.4969 43.9733 36.5721 44.0561 36.6292 44.151C36.6862 44.2459 36.7239 44.3512 36.74 44.4607C36.8702 45.2805 36.7939 46.1198 36.5181 46.9027C36.2623 47.6286 35.8291 48.279 35.2579 48.7948C34.6766 49.3196 33.9551 49.6637 33.1814 49.7852C32.4593 49.8929 31.7216 49.8166 31.0369 49.5632L23.499 46.8788Z" fill="#FFAB91"/>
<path fill-rule="evenodd" clip-rule="evenodd" d="M55.7018 18.8666C55.7025 22.5988 54.5964 26.2474 52.5234 29.3509C50.4504 32.4544 47.5037 34.8735 44.0558 36.3022C40.6079 37.7309 36.8138 38.1051 33.1532 37.3774C29.4927 36.6497 26.1301 34.8529 23.4908 32.2141C20.8515 29.5753 19.054 26.2131 18.3256 22.5527C17.5972 18.8923 17.9707 15.0981 19.3987 11.6499C20.8268 8.20175 23.2453 5.25452 26.3484 3.18093C29.4516 1.10734 33.0999 0.000534708 36.8321 0.00048829C41.836 0.000332846 46.6352 1.98785 50.1738 5.52587C53.7125 9.0639 55.7009 13.8627 55.7016 18.8666H55.7018Z" fill="#FF5876"/>
<path fill-rule="evenodd" clip-rule="evenodd" d="M52.9729 18.8663C52.9733 22.0591 52.0268 25.1803 50.2532 27.8352C48.4796 30.4901 45.9585 32.5594 43.0088 33.7814C40.0591 35.0034 36.8132 35.3232 33.6817 34.7004C30.5502 34.0777 27.6738 32.5402 25.4161 30.2826C23.1584 28.0249 21.6209 25.1485 20.9981 22.017C20.3753 18.8855 20.6951 15.6397 21.917 12.6899C23.139 9.74022 25.2083 7.21911 27.8631 5.44546C30.518 3.67181 33.6392 2.72528 36.832 2.72559C41.1127 2.7258 45.2181 4.4264 48.245 7.45331C51.272 10.4802 52.9726 14.5856 52.9729 18.8663Z" fill="#FFE6EB"/>
<path d="M24.4518 12.692C24.2585 12.5801 24.1174 12.3959 24.0598 12.1801C24.0022 11.9642 24.0326 11.7343 24.1445 11.5409C24.2564 11.3475 24.4405 11.2065 24.6564 11.1488C24.8723 11.0912 25.1022 11.1217 25.2956 11.2336L26.9383 12.1828C27.0341 12.2382 27.118 12.3119 27.1853 12.3997C27.2525 12.4876 27.3018 12.5878 27.3304 12.6947C27.3589 12.8015 27.3661 12.913 27.3516 13.0227C27.3371 13.1324 27.3011 13.2381 27.2457 13.3338C27.1903 13.4296 27.1165 13.5135 27.0287 13.5808C26.9409 13.6481 26.8407 13.6974 26.7338 13.7259C26.6269 13.7544 26.5154 13.7616 26.4057 13.7471C26.2961 13.7326 26.1903 13.6966 26.0946 13.6412L24.4518 12.692ZM23.0208 19.7103C22.797 19.7103 22.5824 19.6214 22.4241 19.4632C22.2659 19.3049 22.177 19.0903 22.177 18.8666C22.177 18.6428 22.2659 18.4282 22.4241 18.2699C22.5824 18.1117 22.797 18.0228 23.0208 18.0228H24.9231C25.1468 18.0228 25.3614 18.1117 25.5197 18.2699C25.6779 18.4282 25.7668 18.6428 25.7668 18.8666C25.7668 19.0903 25.6779 19.3049 25.5197 19.4632C25.3614 19.6214 25.1468 19.7103 24.9231 19.7103H23.0208ZM25.2954 26.4999C25.1024 26.6118 24.873 26.6425 24.6574 26.5852C24.4419 26.5279 24.2579 26.3873 24.146 26.1944C24.0342 26.0014 24.0035 25.7719 24.0608 25.5564C24.1181 25.3409 24.2587 25.1569 24.4516 25.045L26.0943 24.0958C26.2873 23.9839 26.5168 23.9533 26.7323 24.0106C26.9479 24.0679 27.1318 24.2085 27.2437 24.4014C27.3556 24.5944 27.3863 24.8239 27.329 25.0394C27.2716 25.255 27.131 25.4389 26.9381 25.5508L25.2954 26.4999ZM30.654 31.2506C30.5421 31.4435 30.3582 31.5841 30.1426 31.6414C29.9271 31.6987 29.6976 31.668 29.5047 31.5562C29.3117 31.4443 29.1712 31.2603 29.1139 31.0448C29.0566 30.8292 29.0872 30.5998 29.1991 30.4068L30.1483 28.7607C30.2602 28.5678 30.4442 28.4272 30.6597 28.3699C30.8752 28.3126 31.1047 28.3432 31.2976 28.4551C31.4906 28.567 31.6312 28.751 31.6885 28.9665C31.7458 29.182 31.7151 29.4115 31.6032 29.6045L30.654 31.2506ZM37.6759 32.6783C37.6759 32.9021 37.587 33.1167 37.4287 33.2749C37.2705 33.4331 37.0559 33.522 36.8321 33.522C36.6083 33.522 36.3937 33.4331 36.2355 33.2749C36.0773 33.1167 35.9884 32.9021 35.9884 32.6783V30.7757C35.9884 30.552 36.0773 30.3374 36.2355 30.1791C36.3937 30.0209 36.6083 29.932 36.8321 29.932C37.0559 29.932 37.2705 30.0209 37.4287 30.1791C37.587 30.3374 37.6759 30.552 37.6759 30.7757V32.6783ZM44.4655 30.4107C44.5748 30.6035 44.6034 30.8318 44.545 31.0456C44.4866 31.2595 44.346 31.4415 44.1538 31.552C43.9617 31.6625 43.7336 31.6925 43.5194 31.6354C43.3052 31.5784 43.1223 31.4389 43.0106 31.2474L42.0577 29.6013C41.9468 29.4079 41.9172 29.1784 41.9755 28.9632C42.0338 28.748 42.1751 28.5647 42.3685 28.4538C42.5619 28.3428 42.7914 28.3132 43.0066 28.3715C43.2218 28.4298 43.4051 28.5712 43.516 28.7646L44.4655 30.4107ZM49.2093 25.0453C49.3056 25.0998 49.3901 25.1729 49.458 25.2602C49.5259 25.3476 49.5759 25.4475 49.605 25.5542C49.6342 25.661 49.6419 25.7724 49.6278 25.8822C49.6138 25.9919 49.5781 26.0978 49.5229 26.1937C49.4678 26.2896 49.3942 26.3736 49.3064 26.441C49.2187 26.5084 49.1185 26.5577 49.0115 26.5862C48.9046 26.6147 48.7931 26.6217 48.6835 26.607C48.5738 26.5922 48.4682 26.5559 48.3726 26.5002L46.7264 25.5509C46.5334 25.44 46.3925 25.2569 46.3345 25.042C46.2765 24.8271 46.3063 24.598 46.4172 24.4051C46.5282 24.2121 46.7113 24.0712 46.9261 24.0132C47.141 23.9552 47.3702 23.985 47.5631 24.0959L49.2093 25.0453ZM50.6403 18.0268C50.8614 18.0294 51.0726 18.1191 51.228 18.2764C51.3835 18.4336 51.4706 18.6458 51.4706 18.867C51.4706 19.0881 51.3835 19.3003 51.228 19.4576C51.0726 19.6149 50.8614 19.7045 50.6403 19.7071H48.7419C48.6307 19.7085 48.5204 19.6877 48.4173 19.6461C48.3142 19.6044 48.2204 19.5428 48.1413 19.4646C48.0623 19.3865 47.9995 19.2934 47.9566 19.1908C47.9138 19.0882 47.8917 18.9781 47.8917 18.867C47.8917 18.7558 47.9138 18.6457 47.9566 18.5431C47.9995 18.4406 48.0623 18.3475 48.1413 18.2693C48.2204 18.1912 48.3142 18.1295 48.4173 18.0879C48.5204 18.0462 48.6307 18.0255 48.7419 18.0268H50.6403ZM48.3691 11.2334C48.5624 11.1233 48.7914 11.0941 49.0062 11.1522C49.221 11.2103 49.404 11.3509 49.5154 11.5435C49.6268 11.7361 49.6576 11.9649 49.6009 12.18C49.5442 12.3952 49.4047 12.5792 49.2129 12.6918L47.5701 13.6411C47.4746 13.6965 47.3691 13.7325 47.2596 13.7471C47.1501 13.7617 47.0389 13.7547 46.9321 13.7263C46.8254 13.6979 46.7253 13.6488 46.6376 13.5817C46.5498 13.5147 46.4762 13.431 46.4208 13.3354C46.3653 13.2399 46.3293 13.1344 46.3147 13.0249C46.3001 12.9154 46.3071 12.8042 46.3355 12.6974C46.3639 12.5907 46.413 12.4906 46.4801 12.4029C46.5472 12.3151 46.6308 12.2415 46.7264 12.1861L48.3691 11.2334ZM43.0106 6.48617C43.0656 6.38993 43.1391 6.30552 43.2269 6.2378C43.3147 6.17007 43.415 6.12038 43.5221 6.09156C43.6291 6.06275 43.7408 6.05539 43.8507 6.06991C43.9606 6.08442 44.0666 6.12053 44.1625 6.17615C44.2584 6.23177 44.3424 6.3058 44.4095 6.39399C44.4767 6.48218 44.5258 6.58278 44.554 6.69001C44.5821 6.79724 44.5888 6.90898 44.5736 7.01881C44.5584 7.12863 44.5217 7.23436 44.4655 7.32992L43.5163 8.97605C43.4036 9.16753 43.2198 9.30668 43.005 9.3631C42.7901 9.41952 42.5617 9.38864 42.3695 9.27719C42.1773 9.16575 42.0371 8.9828 41.9794 8.76829C41.9216 8.55378 41.9511 8.32514 42.0614 8.1323L43.0106 6.48617ZM35.9883 5.05859C35.9883 4.83482 36.0771 4.62021 36.2354 4.46197C36.3936 4.30374 36.6082 4.21484 36.832 4.21484C37.0558 4.21484 37.2704 4.30374 37.4286 4.46197C37.5869 4.62021 37.6758 4.83482 37.6758 5.05859V6.95703C37.6758 7.06783 37.6539 7.17755 37.6115 7.27992C37.5691 7.38229 37.507 7.4753 37.4286 7.55365C37.3503 7.632 37.2573 7.69415 37.1549 7.73655C37.0525 7.77896 36.9428 7.80078 36.832 7.80078C36.7212 7.80078 36.6115 7.77896 36.5091 7.73655C36.4067 7.69415 36.3137 7.632 36.2354 7.55365C36.157 7.4753 36.0949 7.38229 36.0525 7.27992C36.0101 7.17755 35.9883 7.06783 35.9883 6.95703V5.05859ZM29.1991 7.3298C29.1429 7.23424 29.1062 7.12851 29.091 7.01869C29.0758 6.90887 29.0825 6.79713 29.1106 6.6899C29.1388 6.58267 29.1879 6.48206 29.255 6.39388C29.3222 6.30569 29.4062 6.23165 29.5021 6.17603C29.598 6.12041 29.704 6.08431 29.8139 6.06979C29.9238 6.05527 30.0355 6.06263 30.1425 6.09145C30.2496 6.12026 30.3499 6.16996 30.4377 6.23768C30.5254 6.3054 30.599 6.38981 30.654 6.48605L31.6032 8.13219C31.7135 8.32503 31.743 8.55367 31.6852 8.76817C31.6275 8.98268 31.4872 9.16563 31.2951 9.27708C31.1029 9.38852 30.8745 9.4194 30.6596 9.36298C30.4447 9.30656 30.2609 9.16742 30.1483 8.97594L29.1991 7.3298Z" fill="#3A6584"/>
<path d="M35.9883 10.3618C35.9883 10.138 36.0772 9.92343 36.2354 9.7652C36.3936 9.60696 36.6083 9.51807 36.832 9.51807C37.0558 9.51807 37.2704 9.60696 37.4287 9.7652C37.5869 9.92343 37.6758 10.138 37.6758 10.3618V18.3845L41.3473 20.5056C41.4428 20.5605 41.5266 20.6337 41.5939 20.7211C41.6611 20.8084 41.7105 20.9081 41.7392 21.0145C41.768 21.1209 41.7754 21.2319 41.7612 21.3413C41.747 21.4506 41.7115 21.556 41.6565 21.6515C41.6016 21.7471 41.5284 21.8309 41.441 21.8981C41.3537 21.9654 41.254 22.0148 41.1476 22.0435C41.0412 22.0722 40.9301 22.0797 40.8208 22.0655C40.7115 22.0513 40.6061 22.0157 40.5105 21.9608L36.4805 19.6344C36.3334 19.567 36.2088 19.4587 36.1215 19.3225C36.0343 19.1862 35.988 19.0278 35.9883 18.866V10.3618Z" fill="#3A6584"/>
<path d="M36.832 16.9639C37.2716 16.9642 37.6976 17.117 38.0372 17.3962C38.3769 17.6754 38.6092 18.0637 38.6947 18.4949C38.7802 18.9262 38.7136 19.3738 38.5061 19.7614C38.2986 20.149 37.9632 20.4528 37.5569 20.6208C37.1507 20.7889 36.6987 20.8109 36.278 20.6832C35.8573 20.5554 35.4939 20.2857 35.2498 19.9201C35.0056 19.5545 34.8957 19.1155 34.9389 18.678C34.982 18.2404 35.1755 17.8314 35.4864 17.5205C35.8438 17.1645 36.3275 16.9643 36.832 16.9639Z" fill="#EB9C2C"/>
<path fill-rule="evenodd" clip-rule="evenodd" d="M41.7878 3.50129C45.0378 4.55076 47.8714 6.60359 49.8813 9.36474C51.8912 12.1259 52.9739 15.4532 52.9739 18.8684C52.9739 22.2836 51.8912 25.6109 49.8813 28.372C47.8714 31.1332 45.0378 33.186 41.7878 34.2355C39.4243 35.9237 36.7017 37.0413 33.8336 37.5005C36.5287 37.9306 39.2851 37.7709 41.9125 37.0323C44.5399 36.2938 46.9758 34.994 49.0522 33.2227C51.1285 31.4514 52.7959 29.2508 53.9392 26.7726C55.0826 24.2944 55.6746 21.5976 55.6746 18.8684C55.6746 16.1391 55.0826 13.4424 53.9392 10.9642C52.7959 8.48599 51.1285 6.28533 49.0522 4.51404C46.9758 2.74274 44.5399 1.44299 41.9125 0.704442C39.2851 -0.0341023 36.5287 -0.193853 33.8336 0.236212C36.7017 0.695419 39.4243 1.81301 41.7878 3.50129Z" fill="#E84362"/>
<path fill-rule="evenodd" clip-rule="evenodd" d="M12.389 39.5461L19.2468 54.2832C17.3104 54.9394 15.2783 55.9293 13.6732 56.667L6.96887 42.2614L12.389 39.5461Z" fill="#FFAB91"/>
<path d="M4.29968 41.0691L9.79738 38.5112L18.617 57.4671L13.1193 60.025L4.29968 41.0691Z" fill="#57A3FF"/>
<path fill-rule="evenodd" clip-rule="evenodd" d="M7.25574 39.6756L8.17789 41.6564L14.8992 56.0997L14.9368 56.1783L11.9791 57.5547L13.1164 60L18.6116 57.4419L17.4573 54.9625L16.6375 53.2036L10.6812 40.403L9.79332 38.4939L7.25574 39.6756Z" fill="#3282E3"/>
<path d="M36.1321 17.0972C36.4873 17.2376 36.792 17.4815 37.0067 17.7973C37.2214 18.1131 37.3362 18.4862 37.3362 18.868C37.3362 19.2499 37.2214 19.623 37.0067 19.9388C36.792 20.2546 36.4873 20.4985 36.1321 20.6389C35.89 20.544 35.6701 20.3998 35.4867 20.2154C35.1301 19.8576 34.9299 19.3731 34.9299 18.868C34.9299 18.363 35.1301 17.8785 35.4867 17.5207C35.6701 17.3363 35.8899 17.192 36.1321 17.0972Z" fill="#FFBA57"/>
</g>
<defs>
<clipPath id="clip0_78_156">
<rect width="60" height="60" fill="white"/>
</clipPath>
</defs>
</svg>
