<svg width="60" height="60" viewBox="0 0 60 60" fill="none" xmlns="http://www.w3.org/2000/svg">
<path fill-rule="evenodd" clip-rule="evenodd" d="M19.159 60H40.7399C41.4444 60 42.0221 59.4223 42.0221 58.7126V51.5487C42.0221 46.9031 38.2216 43.0991 33.5725 43.0991H26.3229C21.6773 43.0991 17.8733 46.9048 17.8733 51.5487V58.7109C17.8716 59.4206 18.4493 60 19.159 60Z" fill="#0593FC"/>
<path fill-rule="evenodd" clip-rule="evenodd" d="M29.9469 39.9979C33.2314 39.9979 35.9142 37.3202 35.9142 34.0357C35.9142 30.7512 33.2314 28.0735 29.9469 28.0735C26.6624 28.0735 23.9847 30.7512 23.9847 34.0357C23.9847 37.3202 26.6624 39.9979 29.9469 39.9979Z" fill="#FBBD80"/>
<path fill-rule="evenodd" clip-rule="evenodd" d="M37.3868 3.07281C41.4839 7.16475 41.4839 13.8607 37.3868 17.9526C33.2948 22.0445 26.5989 22.0445 22.507 17.9526C18.415 13.8607 18.415 7.16475 22.507 3.07281C26.5989 -1.02427 33.2948 -1.02427 37.3868 3.07281Z" fill="#FFD23B"/>
<path d="M26.3315 13.0053C26.1275 12.5151 26.3606 11.9459 26.8509 11.7419C27.3463 11.5379 27.9103 11.7711 28.1143 12.2613C28.188 12.4413 28.2755 12.6008 28.3715 12.7465C28.7075 13.2608 29.1583 13.5573 29.6246 13.6842C30.096 13.811 30.5812 13.7716 30.9754 13.607C31.068 13.5676 31.1554 13.5248 31.2377 13.4716C31.3063 13.4236 31.3697 13.3739 31.4228 13.3208C31.5737 13.1648 31.6714 12.971 31.7006 12.7722C31.7246 12.5922 31.6851 12.3985 31.5686 12.2288C31.5291 12.1602 31.4811 12.1019 31.428 12.0488C31.2137 11.8396 30.6789 11.7179 30.1166 11.5825C29.1789 11.3631 28.1778 11.1265 27.3961 10.3242C27.1098 10.0277 26.8955 9.67281 26.7686 9.28881C26.5989 8.78825 26.5646 8.23454 26.6812 7.70998C26.7978 7.18027 27.0652 6.66942 27.4886 6.25628C27.7955 5.95457 28.1795 5.71286 28.6406 5.55687C28.7469 5.52258 28.86 5.48829 28.98 5.45915C29.7772 5.2603 30.6909 5.28944 31.4829 5.58087C32.3486 5.90143 33.0771 6.52371 33.408 7.50084C33.4371 7.58312 33.4611 7.67055 33.4817 7.76312C33.6137 8.2774 33.2965 8.80368 32.7771 8.92882C32.2577 9.05567 31.7366 8.73853 31.6114 8.22426C31.6011 8.18997 31.5926 8.15568 31.5771 8.1214C31.4554 7.7614 31.1691 7.52312 30.8194 7.39284C30.3926 7.23684 29.8869 7.22313 29.4446 7.33455C29.3863 7.34998 29.3229 7.3637 29.2646 7.3877C29.0846 7.44598 28.944 7.53341 28.8377 7.63626C28.7023 7.77169 28.6149 7.94312 28.5755 8.11797C28.5309 8.30826 28.5412 8.49682 28.5995 8.66654C28.644 8.78825 28.7023 8.89453 28.7846 8.97682C29.1686 9.3711 29.8869 9.54081 30.5589 9.70024C31.3954 9.89395 32.1771 10.0791 32.7788 10.6619C32.9434 10.8265 33.0805 10.9928 33.192 11.1676C33.576 11.7505 33.7028 12.4019 33.6154 13.0293C33.5331 13.6362 33.2503 14.2156 32.808 14.6665C32.652 14.8276 32.4823 14.9682 32.2971 15.0899C32.1223 15.2064 31.9286 15.3093 31.7246 15.3916C30.9514 15.7173 30.024 15.7944 29.1343 15.5527C28.236 15.3144 27.3806 14.7556 26.7583 13.8076C26.5989 13.5693 26.4584 13.3019 26.3315 13.0053Z" fill="#975D0F"/>
<path d="M30.9137 5.18659C30.9137 5.72144 30.4817 6.15343 29.9469 6.15343C29.412 6.15343 28.98 5.72144 28.98 5.18659V4.4666C28.98 3.93175 29.412 3.49976 29.9469 3.49976C30.4817 3.49976 30.9137 3.93175 30.9137 4.4666V5.18659Z" fill="#975D0F"/>
<path d="M30.9137 16.552C30.9137 17.0868 30.4817 17.524 29.9469 17.524C29.412 17.524 28.98 17.0868 28.98 16.552V16.0223C28.98 15.4874 29.412 15.0554 29.9469 15.0554C30.4817 15.0554 30.9137 15.4874 30.9137 16.0223V16.552Z" fill="#975D0F"/>
<path d="M17.5013 23.9869C17.5013 23.452 17.9333 23.02 18.4682 23.02C19.003 23.02 19.435 23.452 19.435 23.9869V34.3427C19.435 34.8776 19.003 35.3147 18.4682 35.3147C17.9333 35.3147 17.5013 34.8776 17.5013 34.3427V23.9869Z" fill="#33CC33"/>
<path d="M16.651 26.985C16.2773 27.3639 15.6653 27.3639 15.2848 26.985C14.9042 26.6062 14.9059 25.9942 15.2848 25.6153L17.7825 23.1176C18.1613 22.7388 18.7733 22.7388 19.1522 23.1176L21.6498 25.6153C22.0287 25.9942 22.0287 26.6062 21.6498 26.985C21.2761 27.3639 20.659 27.3639 20.2836 26.985L18.4665 25.1679L16.651 26.985Z" fill="#33CC33"/>
<path d="M40.457 23.9869C40.457 23.452 40.889 23.02 41.4238 23.02C41.9587 23.02 42.3958 23.452 42.3958 23.9869V34.3427C42.3958 34.8776 41.9587 35.3147 41.4238 35.3147C40.889 35.3147 40.457 34.8776 40.457 34.3427V23.9869Z" fill="#33CC33"/>
<path d="M39.6119 26.985C39.233 27.3639 38.621 27.3639 38.2422 26.985C37.8633 26.6062 37.8633 25.9942 38.2422 25.6153L40.745 23.1176C41.1187 22.7388 41.7307 22.7388 42.1113 23.1176L44.6141 25.6153C44.9878 25.9942 44.9878 26.6062 44.6141 26.985C44.2352 27.3639 43.6232 27.3639 43.2444 26.985L41.4273 25.1679L39.6119 26.985Z" fill="#33CC33"/>
</svg>
