<svg width="32" height="34" viewBox="0 0 32 34" fill="none" xmlns="http://www.w3.org/2000/svg">
<path d="M16.959 7.91833C16.959 7.22817 16.3992 6.66833 15.709 6.66833C15.0188 6.66833 14.459 7.22817 14.459 7.91833V14.7778L10.4372 17.7938C9.88467 18.208 9.77234 18.9918 10.1865 19.5435C10.4323 19.8715 10.8075 20.044 11.1875 20.044C11.4487 20.044 11.7117 19.9627 11.9362 19.7942L16.4585 16.403C16.7735 16.167 16.959 15.7967 16.959 15.4028V7.91833Z" fill="white"/>
<path d="M13.528 30.027C13.9035 30.0702 14.2897 30.0782 14.6737 30.093C14.2485 29.2964 13.93 28.4359 13.7327 27.5299C7.61634 26.7812 3.0135 21.5842 3.0135 15.403C3.0135 8.66321 8.49617 3.18054 15.236 3.18054C21.9752 3.18054 27.4577 8.66321 27.4577 15.403C27.4577 15.6734 27.4345 15.938 27.417 16.2042C28.2695 16.5687 29.0595 17.0505 29.7713 17.6257C29.8822 16.8987 29.9577 16.1604 29.9577 15.403C29.9577 7.28538 23.3537 0.680542 15.236 0.680542C7.11834 0.680542 0.513504 7.28538 0.513504 15.403C0.513837 22.8825 6.10867 29.1692 13.528 30.027Z" fill="white"/>
<path d="M23.5695 17.4862C19.2043 17.4862 15.6528 21.0377 15.6528 25.4029C15.6528 29.768 19.2043 33.3195 23.5695 33.3195C27.9347 33.3195 31.4862 29.768 31.4862 25.4029C31.4862 21.0377 27.9348 17.4862 23.5695 17.4862ZM23.5695 30.8195C20.5828 30.8195 18.1528 28.3895 18.1528 25.4029C18.1528 22.4162 20.5828 19.9862 23.5695 19.9862C26.5562 19.9862 28.9862 22.4162 28.9862 25.4029C28.9862 28.3895 26.5562 30.8195 23.5695 30.8195Z" fill="white"/>
<path d="M24.6585 23.0674L22.9528 24.773L22.3417 24.1619C21.8533 23.6735 21.0623 23.6735 20.5742 24.1619C20.086 24.6502 20.0858 25.4412 20.5742 25.9294L22.0692 27.4244C22.3133 27.6685 22.6332 27.7905 22.953 27.7905C23.2728 27.7905 23.5927 27.6685 23.8368 27.4244L26.4263 24.8349C26.9147 24.3465 26.9147 23.5555 26.4263 23.0674C25.938 22.5792 25.1467 22.579 24.6585 23.0674Z" fill="white"/>
</svg>
