<svg width="24" height="26" viewBox="0 0 24 26" fill="none" xmlns="http://www.w3.org/2000/svg">
<path d="M19.2864 0.982086C18.9227 0.801685 18.5632 0.841623 18.3203 0.904861C18.0785 0.967825 17.8438 1.08153 17.6347 1.19764C17.2262 1.42452 16.7043 1.78325 16.0849 2.2089L2.49593 11.5475C2.09871 11.8204 1.73527 12.0701 1.47635 12.2956C1.2405 12.5009 0.833413 12.8958 0.82463 13.4954C0.820975 13.745 0.877179 13.9918 0.988537 14.2153C1.25604 14.752 1.79395 14.9317 2.09545 15.0147C2.42644 15.1058 2.86215 15.1736 3.33836 15.2476L7.82793 15.9462L4.83724 21.2279C4.48139 21.8564 4.17957 22.3893 3.99529 22.8042C3.9007 23.0171 3.81006 23.2567 3.76992 23.5006C3.72923 23.7478 3.72447 24.1003 3.92773 24.44C4.06958 24.677 4.27172 24.8721 4.51357 25.0056C4.86011 25.1968 5.21222 25.1797 5.45786 25.1304C5.70025 25.0817 5.93652 24.9827 6.14599 24.8807C6.55407 24.682 7.07613 24.3617 7.69164 23.984L21.4381 15.5502C21.8362 15.306 22.2029 15.0812 22.4673 14.8735C22.7118 14.6816 23.127 14.3152 23.1717 13.7277C23.1904 13.4813 23.1504 13.2339 23.0549 13.0059C22.8274 12.4625 22.3178 12.2457 22.0253 12.1406C21.7089 12.0269 21.29 11.9291 20.8353 11.8229L15.9937 10.6913L19.0604 4.85091C19.4098 4.18556 19.7042 3.62482 19.8812 3.19232C19.9717 2.97099 20.0569 2.72447 20.0908 2.4769C20.1249 2.22826 20.122 1.86659 19.8998 1.5268C19.7475 1.29383 19.5357 1.10577 19.2864 0.982086Z" fill="#E1C454"/>
</svg>
