<svg width="26" height="22" viewBox="0 0 26 22" fill="none" xmlns="http://www.w3.org/2000/svg">
<path fill-rule="evenodd" clip-rule="evenodd" d="M0.8125 7.56284V11.1346C0.8125 13.3038 2.57103 15.0624 4.74028 15.0624L4.00455 16.9017C3.86 17.2631 3.95378 17.6762 4.24021 17.9397C4.52664 18.2033 4.94612 18.2625 5.29426 18.0884L10.5006 15.0624H12.3756H13.6266C16.5458 15.0624 18.0053 15.0624 19.0927 14.435C19.8061 14.0233 20.3985 13.431 20.8101 12.7175C21.4375 11.6302 21.4375 10.1706 21.4375 7.25147V5.37647C21.4375 4.79485 21.4375 4.50405 21.4117 4.25924C21.18 2.05878 19.4411 0.320032 17.2406 0.0884475C16.9958 0.0626836 16.705 0.0627049 16.1234 0.0627475L8.31147 0.0633201C5.68685 0.0635125 4.37454 0.0636087 3.37204 0.574372C2.48983 1.02385 1.7726 1.74113 1.32319 2.62337C0.8125 3.62591 0.8125 4.93822 0.8125 7.56284ZM12.375 7.87492C12.375 8.56528 11.8154 9.12492 11.125 9.12492C10.4346 9.12492 9.875 8.56528 9.875 7.87492C9.875 7.18457 10.4346 6.62492 11.125 6.62492C11.8154 6.62492 12.375 7.18457 12.375 7.87492ZM7.375 7.87492C7.375 8.56528 6.81536 9.12492 6.125 9.12492C5.43464 9.12492 4.875 8.56528 4.875 7.87492C4.875 7.18457 5.43464 6.62492 6.125 6.62492C6.81536 6.62492 7.375 7.18457 7.375 7.87492ZM16.125 9.12492C16.8154 9.12492 17.375 8.56528 17.375 7.87492C17.375 7.18457 16.8154 6.62492 16.125 6.62492C15.4346 6.62492 14.875 7.18457 14.875 7.87492C14.875 8.56528 15.4346 9.12492 16.125 9.12492Z" fill="#EFF5FF"/>
<path d="M20.5 7.5625C20.5 4.92913 20.5 3.61245 19.868 2.66661C19.5944 2.25715 19.2429 1.90558 18.8334 1.63199C17.8876 1 16.5709 1 13.9375 1H8.3125C5.67913 1 4.36245 1 3.41661 1.63199C3.00715 1.90558 2.65558 2.25715 2.38199 2.66661C1.75 3.61245 1.75 4.92913 1.75 7.5625V9.75C1.75 10.3305 1.75 10.6208 1.78208 10.8645C2.00362 12.5472 3.32778 13.8714 5.01053 14.0929C5.25421 14.125 5.54447 14.125 6.125 14.125V14.125L4.875 17.25L11.125 14.125H13.9375C16.5709 14.125 17.8876 14.125 18.8334 13.493C19.2429 13.2194 19.5944 12.8679 19.868 12.4584C20.5 11.5126 20.5 10.1959 20.5 7.5625V7.5625Z" stroke="#EFF5FF" stroke-width="1.875" stroke-linecap="round" stroke-linejoin="round"/>
<path d="M20.8125 17.8757C20.8118 18.3935 21.231 18.8138 21.7488 18.8145C22.2665 18.8151 22.6868 18.3959 22.6875 17.8782L20.8125 17.8757ZM21.75 21.002L21.1498 21.7222C21.4293 21.955 21.8182 22.0052 22.1476 21.8509C22.4771 21.6967 22.6875 21.3657 22.6875 21.002L21.75 21.002ZM18 17.877L18.6002 17.1567C18.4317 17.0163 18.2193 16.9395 18 16.9395V17.877ZM21.75 17.8751V16.9376C21.2327 16.9376 20.8132 17.3566 20.8125 17.8739L21.75 17.8751ZM23.3125 9.12695V15.3957H25.1875V9.12695H23.3125ZM22.3502 20.2817L18.6002 17.1567L17.3998 18.5972L21.1498 21.7222L22.3502 20.2817ZM18 16.9395H14.25V18.8145H18V16.9395ZM22.6875 17.8782L22.6875 17.8763L20.8125 17.8739L20.8125 17.8757L22.6875 17.8782ZM20.8125 17.8751L20.8125 21.002L22.6875 21.002L22.6875 17.8751L20.8125 17.8751ZM21.7688 16.9376H21.75V18.8126H21.7688V16.9376ZM23.3125 15.3957C23.3125 16.2477 22.6215 16.9383 21.7694 16.9376L21.7681 18.8126C23.6562 18.814 25.1875 17.2838 25.1875 15.3957H23.3125ZM14.25 16.9395C13.2145 16.9395 12.375 16.1 12.375 15.0645H10.5C10.5 17.1355 12.1789 18.8145 14.25 18.8145V16.9395ZM25.1875 9.12695C25.1875 7.05589 23.5086 5.37695 21.4375 5.37695V7.25195C22.473 7.25195 23.3125 8.09142 23.3125 9.12695H25.1875Z" fill="#EFF5FF"/>
</svg>
