<svg width="26" height="26" viewBox="0 0 26 26" fill="none" xmlns="http://www.w3.org/2000/svg">
<path d="M16.9072 2.0625H11.5C7.04719 2.0625 4.82079 2.0625 3.26003 3.19646C2.75596 3.56268 2.31268 4.00596 1.94646 4.51003C0.8125 6.07079 0.8125 8.29719 0.8125 12.75V14.5C0.8125 18.9528 0.8125 21.1792 1.94646 22.74C2.31268 23.244 2.75596 23.6873 3.26003 24.0535C4.82079 25.1875 7.04719 25.1875 11.5 25.1875H13.25C17.7028 25.1875 19.9292 25.1875 21.49 24.0535C21.994 23.6873 22.4373 23.244 22.8035 22.74C23.9375 21.1792 23.9375 18.9528 23.9375 14.5V9.09281C21.9817 9.97586 19.6008 9.61376 17.9935 8.00651C16.3862 6.39925 16.0241 4.01835 16.9072 2.0625Z" fill="#90E193"/>
<path d="M24.1807 6.68068C22.8383 8.02311 20.6617 8.02311 19.3193 6.68068C17.9769 5.33825 17.9769 3.16175 19.3193 1.81932C20.6617 0.476893 22.8383 0.476893 24.1807 1.81932C25.5231 3.16175 25.5231 5.33825 24.1807 6.68068Z" fill="#90E193"/>
</svg>
