<svg width="30" height="30" viewBox="0 0 30 30" fill="none" xmlns="http://www.w3.org/2000/svg">
<path d="M27.0082 1.6699C24.4683 1.74084 18.7371 2.34387 14.4063 6.0943C14.2123 6.26231 14.1152 6.34631 14.0153 6.39446C13.9803 6.41132 13.95 6.42354 13.9131 6.43563C13.8077 6.47018 13.6896 6.47632 13.4535 6.48861L6.80619 6.83458C4.47879 6.95572 2.65381 8.87815 2.65381 11.2087C2.65381 13.5551 4.50282 15.4847 6.84707 15.5848L8.45885 15.6536C8.56198 15.658 8.61355 15.6602 8.66293 15.6683C8.8015 15.691 8.93208 15.7484 9.04254 15.8351C9.0819 15.866 9.1184 15.9025 9.19139 15.9754L9.1914 15.9755L14.02 20.804C14.093 20.877 14.1294 20.9135 14.1603 20.9529C14.247 21.0633 14.3044 21.1939 14.3272 21.3325C14.3353 21.3819 14.3375 21.4334 14.3419 21.5366L14.4107 23.1483C14.5107 25.4926 16.4403 27.3416 18.7867 27.3416C21.1173 27.3416 23.0397 25.5166 23.1608 23.1892L23.5068 16.5419C23.5191 16.3058 23.5252 16.1877 23.5598 16.0823C23.5719 16.0454 23.5841 16.0151 23.601 15.9801C23.6491 15.8801 23.7331 15.7831 23.9011 15.5892L23.9011 15.5891C27.6516 11.2583 28.2546 5.5271 28.3255 2.98718C28.3396 2.48369 28.3466 2.23195 28.1826 2.00362C28.136 1.93865 28.0568 1.85942 27.9918 1.81276C27.7635 1.64881 27.5117 1.65584 27.0082 1.6699Z" stroke="white" stroke-width="2.5" stroke-linejoin="round"/>
<path d="M1.66668 27.1438C1.66722 27.5585 1.66748 27.7659 1.82641 27.9845C1.8685 28.0424 1.95257 28.1265 2.01047 28.1686C2.2291 28.3275 2.43644 28.3278 2.85113 28.3283C4.26324 28.3301 6.70586 28.0634 8.36472 26.4046C8.44865 26.3207 8.53089 26.2328 8.61119 26.1418C9.70022 24.9068 9.23206 23.0915 8.06778 21.9272V21.9272C6.90351 20.7629 5.08813 20.2947 3.85319 21.3838C3.76213 21.4641 3.67432 21.5463 3.59039 21.6303C1.93153 23.2891 1.66486 25.7317 1.66668 27.1438Z" stroke="white" stroke-width="2.5" stroke-linejoin="round"/>
<path d="M15.1313 14.8628C15.9441 15.6756 17.2618 15.6756 18.0746 14.8628V14.8628C18.8873 14.0501 18.8873 12.7324 18.0746 11.9196V11.9196C17.2618 11.1069 15.9441 11.1069 15.1313 11.9196V11.9196C14.3186 12.7324 14.3186 14.0501 15.1313 14.8628V14.8628Z" stroke="white" stroke-width="2.5" stroke-linejoin="round"/>
</svg>
