<svg width="20" height="20" viewBox="0 0 20 20" fill="none" xmlns="http://www.w3.org/2000/svg">
<g clip-path="url(#clip0_19_16)">
<path d="M19.4401 7.25371L13.3223 6.36477L10.5863 0.821055C10.347 0.336133 9.6532 0.335898 9.41371 0.821055L6.67777 6.36477L0.560001 7.25371C0.0249615 7.33148 -0.189921 7.99117 0.197657 8.36891L4.62449 12.6841L3.57941 18.7771C3.53731 19.0224 3.63813 19.2703 3.83953 19.4166C4.04086 19.5629 4.30773 19.5821 4.52805 19.4663L10 16.5896C15.9573 19.7215 15.5481 19.5415 15.7761 19.5415C16.1791 19.5415 16.4894 19.1782 16.4206 18.7771L15.3755 12.6841L19.8024 8.36891C20.1896 7.99145 19.9755 7.33156 19.4401 7.25371Z" fill="#F7AC16"/>
<path d="M10 0.456604C9.75066 0.456604 9.52363 0.598362 9.41367 0.821057L6.67773 6.36477L0.560001 7.25371C0.0249615 7.33149 -0.189921 7.99117 0.197657 8.36891L4.62449 12.6841L3.57941 18.7771C3.53731 19.0224 3.63813 19.2703 3.83953 19.4166C4.04086 19.5629 4.30773 19.5822 4.52805 19.4663L10 16.5897H10V0.456604Z" fill="#F2D422"/>
<path d="M0.560001 7.25373C0.0249615 7.3315 -0.189921 7.99119 0.197657 8.36893L4.62449 12.6841L3.57941 18.7771C3.53731 19.0224 3.63813 19.2703 3.83953 19.4166C4.04086 19.5629 4.30773 19.5822 4.52805 19.4663L10 16.5897C15.9573 19.7215 15.5481 19.5415 15.7761 19.5415C15.9117 19.5415 16.0466 19.4994 16.1605 19.4166L6.67773 6.36475L0.560001 7.25373Z" fill="#F7AC16"/>
<path d="M6.97492 11.9314C2.23297 7.30914 2.4368 7.55687 2.37316 7.31715C2.34727 7.22086 2.34195 7.10883 2.37012 6.99066L0.560001 7.25367C0.0249615 7.33144 -0.189921 7.99113 0.197657 8.36886L4.62449 12.684L3.57941 18.7771C3.53731 19.0224 3.63813 19.2703 3.83953 19.4166C4.04086 19.5628 4.30773 19.5821 4.52805 19.4663L6.13691 18.6205C5.97141 18.4714 5.89164 18.2471 5.92984 18.0245L6.97492 11.9314Z" fill="#F48B19"/>
<path d="M0.197689 8.3689L4.62452 12.6841L3.57945 18.7771C3.53734 19.0224 3.63816 19.2703 3.83956 19.4166C4.04089 19.5628 4.30777 19.5821 4.52808 19.4663L10 16.5896C15.9573 19.7215 15.5481 19.5415 15.7762 19.5415C16.1791 19.5415 16.4894 19.1782 16.4206 18.7771L15.3756 12.6841L0.032181 7.69867C-0.0442643 7.97269 0.0322591 8.20773 0.197689 8.3689Z" fill="#F2D422"/>
<path d="M0.197689 8.3689L4.62452 12.6841L3.57945 18.7771C3.53734 19.0224 3.63816 19.2703 3.83956 19.4166C4.04089 19.5628 4.30777 19.5821 4.52808 19.4663L6.13695 18.6205C5.97144 18.4714 5.89167 18.2471 5.92988 18.0245L6.97495 11.9314L3.93284 8.96609L0.032181 7.69867C-0.0442643 7.97269 0.0322591 8.20773 0.197689 8.3689Z" fill="#EFB616"/>
<path d="M3.57939 18.7771C3.53728 19.0224 3.6381 19.2703 3.83951 19.4166C4.04084 19.5629 4.30771 19.5822 4.52802 19.4663L9.99998 16.5897C15.9572 19.7215 15.5481 19.5415 15.7761 19.5415C16.1791 19.5415 16.4894 19.1782 16.4206 18.7771L15.3755 12.6841L19.8024 8.36893C19.9806 8.19521 20.0447 7.93537 19.9678 7.69873L4.62447 12.6841L3.57939 18.7771Z" fill="#F7AC16"/>
<path d="M3.57939 18.7771C3.53728 19.0224 3.6381 19.2702 3.83951 19.4166C4.04084 19.5628 4.30771 19.5821 4.52802 19.4663L6.13689 18.6205C5.97138 18.4714 5.89162 18.247 5.92982 18.0245L6.9749 11.9314L6.96634 11.9231L4.62447 12.684L3.57939 18.7771Z" fill="#F48B19"/>
<path d="M4.52803 19.4663L9.99995 16.5896C15.9572 19.7215 15.548 19.5415 15.7761 19.5415C16.179 19.5415 16.4893 19.1782 16.4205 18.7771L15.3755 12.684L19.8024 8.36889C20.1895 7.99143 19.9755 7.33154 19.44 7.25369L13.3222 6.36475L3.83948 19.4166C4.04081 19.5628 4.30768 19.5821 4.52803 19.4663Z" fill="#F2D422"/>
<path d="M19.9678 7.69867L9.99995 10.9374L3.83948 19.4166C4.04081 19.5628 4.30768 19.5821 4.52799 19.4663L9.99995 16.5896C15.9572 19.7215 15.548 19.5415 15.7761 19.5415C16.179 19.5415 16.4893 19.1782 16.4205 18.7771L15.3755 12.6841L19.8024 8.3689C19.9806 8.19515 20.0447 7.93535 19.9678 7.69867Z" fill="#F7AC16"/>
<path d="M15.3755 12.6841L9.99995 10.9374L3.83948 19.4166C4.04081 19.5629 4.30768 19.5822 4.52799 19.4663L9.99995 16.5897C15.9572 19.7215 15.548 19.5415 15.7761 19.5415C16.179 19.5415 16.4893 19.1782 16.4205 18.7771L15.3755 12.6841Z" fill="#F2D422"/>
<path d="M3.83948 19.4166C4.04081 19.5629 4.30768 19.5822 4.52799 19.4663L9.99995 16.5897C15.9572 19.7215 15.548 19.5415 15.7761 19.5415C15.9116 19.5415 16.0465 19.4994 16.1604 19.4166L9.99995 10.9374L3.83948 19.4166Z" fill="#F7AC16"/>
<path d="M9.99999 10.9375L9.99995 10.9374L3.83948 19.4166C4.04081 19.5629 4.30768 19.5822 4.52799 19.4663L9.99995 16.5897H9.99999V10.9375Z" fill="#F2D422"/>
<path d="M6.26319 16.0807L3.83948 19.4166C4.04081 19.5629 4.30768 19.5822 4.52799 19.4664L6.13686 18.6205C5.97135 18.4715 5.89159 18.2471 5.92979 18.0245L6.26319 16.0807Z" fill="#EFB616"/>
</g>
<defs>
<clipPath id="clip0_19_16">
<rect width="20" height="20" fill="white"/>
</clipPath>
</defs>
</svg>
