<svg width="40" height="40" viewBox="0 0 40 40" fill="none" xmlns="http://www.w3.org/2000/svg">
<path d="M21.3045 34.0318H2.40454C1.29987 34.0318 0.404541 33.1651 0.404541 32.0958V3.8831C0.404541 3.73443 0.457874 3.59243 0.551208 3.4831L2.60454 0.991763C2.85121 0.695097 3.31787 0.669097 3.59787 0.94043L5.26454 2.55376C5.52454 2.80576 5.95121 2.80576 6.21121 2.55376L7.93321 0.887097C8.19254 0.63643 8.61654 0.63643 8.87587 0.887097L10.5979 2.55376C10.8579 2.80576 11.2845 2.80576 11.5445 2.55376L13.2665 0.887097C13.5259 0.63643 13.9499 0.63643 14.2092 0.887097L15.9312 2.55376C16.1912 2.80576 16.6179 2.80576 16.8779 2.55376L18.5999 0.887097C18.8592 0.63643 19.2832 0.63643 19.5425 0.887097L21.2645 2.55376C21.5245 2.80576 21.9512 2.80576 22.2112 2.55376L23.8779 0.94043C24.1579 0.669097 24.6245 0.695097 24.8712 0.991763L26.9245 3.4831C27.0179 3.5931 27.0712 3.7351 27.0712 3.8831V21.0851L21.3045 34.0318Z" fill="#955BA5"/>
<path d="M5.07129 22.0318C5.07129 17.2451 8.95129 13.3651 13.738 13.3651C18.5246 13.3651 22.4046 17.2451 22.4046 22.0318H5.07129Z" fill="#F3D55B"/>
<path d="M19.0719 19.3651C18.8272 19.3651 18.5919 19.2304 18.4745 18.9964C17.9272 17.9011 16.1459 16.6984 15.0712 16.6984C14.7025 16.6984 14.4045 16.3998 14.4045 16.0318C14.4045 15.6638 14.7025 15.3651 15.0712 15.3651C16.6539 15.3651 18.8879 16.8398 19.6679 18.4004C19.8325 18.7298 19.6992 19.1304 19.3699 19.2951C19.2739 19.3431 19.1725 19.3651 19.0725 19.3651H19.0719Z" fill="#F9EAB0"/>
<path d="M24.138 22.5651C23.8913 22.2451 23.5046 22.0317 23.0713 22.0317H4.40462C4.03796 22.0317 3.70462 22.1784 3.46462 22.4251C3.21796 22.6651 3.07129 22.9984 3.07129 23.3651C3.07129 24.0984 3.67129 24.6984 4.40462 24.6984H22.0846L24.138 22.5651Z" fill="#F29C1F"/>
<path d="M15.5445 13.5518C15.6711 13.2918 15.7378 13.0051 15.7378 12.6984C15.7378 11.5918 14.8445 10.6984 13.7378 10.6984C12.6311 10.6984 11.7378 11.5918 11.7378 12.6984C11.7378 13.0051 11.8045 13.2918 11.9311 13.5518H15.5445Z" fill="#F29C1F"/>
<path d="M29.7379 39.3651C34.8925 39.3651 39.0712 35.1864 39.0712 30.0318C39.0712 24.8771 34.8925 20.6984 29.7379 20.6984C24.5832 20.6984 20.4045 24.8771 20.4045 30.0318C20.4045 35.1864 24.5832 39.3651 29.7379 39.3651Z" fill="#E64C3C"/>
<path d="M29.738 36.6984C33.4199 36.6984 36.4046 33.7137 36.4046 30.0318C36.4046 26.3499 33.4199 23.3651 29.738 23.3651C26.0561 23.3651 23.0713 26.3499 23.0713 30.0318C23.0713 33.7137 26.0561 36.6984 29.738 36.6984Z" fill="#ECF0F1"/>
<path d="M33.738 30.6984H29.738C29.3693 30.6984 29.0713 30.3998 29.0713 30.0318V26.0318C29.0713 25.6638 29.3693 25.3651 29.738 25.3651C30.1066 25.3651 30.4046 25.6638 30.4046 26.0318V29.3651H33.738C34.1066 29.3651 34.4046 29.6638 34.4046 30.0318C34.4046 30.3998 34.1066 30.6984 33.738 30.6984Z" fill="#3F5C6C"/>
</svg>
