<svg width="23" height="18" viewBox="0 0 23 18" fill="none" xmlns="http://www.w3.org/2000/svg">
<path d="M11.867 2.29974C11.8308 2.29969 11.7953 2.28961 11.7646 2.2706C11.7338 2.25159 11.7089 2.22441 11.6927 2.19208C11.6764 2.15976 11.6695 2.12356 11.6726 2.08752C11.6757 2.05148 11.6888 2.01702 11.7104 1.98798C12.0499 1.50744 12.2725 0.95419 12.3602 0.372373C12.3647 0.3471 12.374 0.32295 12.3878 0.301301C12.4016 0.279653 12.4195 0.26093 12.4405 0.246203C12.4615 0.231475 12.4852 0.221031 12.5103 0.215466C12.5353 0.209901 12.5612 0.209324 12.5865 0.213769C12.6118 0.218214 12.6359 0.227593 12.6576 0.241371C12.6792 0.25515 12.6979 0.273057 12.7127 0.294071C12.7274 0.315085 12.7378 0.338793 12.7434 0.363844C12.749 0.388894 12.7496 0.414795 12.7451 0.440068C12.6469 1.0818 12.4 1.69166 12.0239 2.22087C12.0058 2.24538 11.9821 2.26528 11.9548 2.27898C11.9276 2.29267 11.8975 2.29978 11.867 2.29974Z" fill="url(#paint0_linear_19_14)"/>
<path d="M19.3125 13.605C21.2443 13.9587 22.436 14.4481 22.4375 14.9924C22.4405 16.0965 17.5461 17.0088 11.5055 17.03C5.46488 17.0513 0.565548 16.1736 0.562501 15.0695C0.561017 14.5244 1.75311 14.0261 3.6875 13.6587L19.3125 13.605Z" fill="url(#paint1_linear_19_14)"/>
<path d="M0.5625 15.0695C0.565508 16.1736 5.46484 17.0513 11.5054 17.0301C17.5459 17.0088 22.4404 16.0965 22.4375 14.9924C22.4327 14.8796 22.3879 14.7722 22.3111 14.6895H0.760293C0.703056 14.7359 0.655967 14.7936 0.621943 14.859C0.587919 14.9243 0.567687 14.996 0.5625 15.0695Z" fill="url(#paint2_linear_19_14)"/>
<path d="M3.6875 4.85388V14.4445L11.5 15.8359L19.3125 14.4445V4.85388H3.6875Z" fill="url(#paint3_linear_19_14)"/>
<path d="M3.6875 10.0379L16.443 12.6188L17.0477 9.62989L3.6875 6.92657V10.0379Z" fill="url(#paint4_linear_19_14)"/>
<path d="M3.6875 14.4446L11.5 15.836L15.2902 15.161L15.4062 14.5875L3.6875 12.2164V14.4446Z" fill="url(#paint5_linear_19_14)"/>
<path d="M19.3125 4.85388H11.5V15.8359L19.3125 14.4445V4.85388Z" fill="url(#paint6_linear_19_14)"/>
<path d="M11.5 11.7037L19.3125 10.1231V7.58655L11.5 9.16741V11.7037Z" fill="url(#paint7_linear_19_14)"/>
<path d="M19.3125 9.24402C18.6328 9.35634 18.6971 9.6705 18.0368 9.7881C17.3853 9.90416 17.3305 9.59648 16.679 9.71253C16.0279 9.82849 16.0827 10.1361 15.4316 10.2521C14.7811 10.368 14.7263 10.0603 14.0758 10.1762C13.4249 10.2921 13.4797 10.5998 12.8288 10.7157C12.1779 10.8316 12.161 10.6376 11.5 10.6374C10.8382 10.6374 10.8211 10.8315 10.1695 10.7154C9.51799 10.5994 9.57281 10.2917 8.92127 10.1757C8.2702 10.0597 8.21537 10.3674 7.56428 10.2514C6.91379 10.1355 6.96857 9.82787 6.31807 9.71201C5.66719 9.59607 5.6124 9.90373 4.9615 9.78779C4.30213 9.67035 4.36623 9.35627 3.6875 9.24416V11.0016C4.36719 11.1137 4.30186 11.4282 4.9615 11.5457C5.6124 11.6616 5.66719 11.354 6.31807 11.4699C6.96857 11.5858 6.91377 11.8934 7.56428 12.0093C8.21537 12.1252 8.2702 11.8176 8.92127 11.9335C9.57281 12.0496 9.51801 12.3573 10.1695 12.4733C10.8211 12.5893 10.8382 12.3952 11.5 12.3953C12.161 12.3953 12.1781 12.5895 12.8288 12.4736C13.4795 12.3577 13.4249 12.05 14.0758 11.9341C14.7263 11.8182 14.7811 12.1259 15.4316 12.01C16.0827 11.894 16.0279 11.5864 16.679 11.4704C17.3305 11.3544 17.3853 11.662 18.0368 11.546C18.6974 11.4283 18.6319 11.1138 19.3125 11.0015V9.24402Z" fill="url(#paint8_linear_19_14)"/>
<path d="M11.5 7.2781L19.3125 5.8865V4.85388H3.6875V5.8865L11.5 7.2781Z" fill="url(#paint9_linear_19_14)"/>
<path d="M19.3125 4.85388H11.5V7.2781L19.3125 5.8865V4.85388Z" fill="url(#paint10_linear_19_14)"/>
<path d="M9.7998 3.6662L3.6875 4.85389L11.5 6.24549L19.3125 4.85389L13.3396 3.69335L9.7998 3.6662Z" fill="url(#paint11_linear_19_14)"/>
<path d="M3.6875 4.85391L11.5 6.24551L19.3125 4.85391L17.4604 4.49414H5.53965L3.6875 4.85391Z" fill="url(#paint12_linear_19_14)"/>
<path d="M13.0668 4.88341C14.3333 4.88341 15.36 4.80235 15.36 4.70236C15.36 4.60236 14.3333 4.5213 13.0668 4.5213C11.8004 4.5213 10.7737 4.60236 10.7737 4.70236C10.7737 4.80235 11.8004 4.88341 13.0668 4.88341Z" fill="url(#paint13_linear_19_14)"/>
<path d="M12.8288 12.4735C13.4797 12.3576 13.4249 12.0499 14.0758 11.934C14.7263 11.8181 14.7811 12.1258 15.4316 12.0099C16.0827 11.894 16.0279 11.5863 16.679 11.4703C17.3305 11.3543 17.3853 11.662 18.0368 11.5459C18.6974 11.4283 18.6319 11.1137 19.3125 11.0015V9.24402C18.6328 9.35634 18.6971 9.6705 18.0368 9.7881C17.3853 9.90416 17.3305 9.59648 16.679 9.71253C16.0279 9.82849 16.0827 10.1361 15.4316 10.2521C14.7811 10.368 14.7263 10.0603 14.0758 10.1762C13.4249 10.2921 13.4797 10.5998 12.8288 10.7157C12.1779 10.8316 12.161 10.6376 11.5 10.6374V12.3952C12.161 12.3953 12.1781 12.5894 12.8288 12.4735Z" fill="url(#paint14_linear_19_14)"/>
<path d="M10.899 4.61689C11.3112 4.778 12.2524 4.83552 12.8344 4.27298C13.4164 3.71044 13.4491 2.92157 13.054 2.56097C12.5201 2.07368 12.2406 2.33943 11.8544 2.17282C11.4576 2.03333 11.4324 1.64849 10.7096 1.64454C10.1747 1.64161 9.66373 2.24357 9.70994 3.05165C9.75616 3.85974 10.4869 4.45579 10.899 4.61689Z" fill="url(#paint15_linear_19_14)"/>
<path d="M9.74158 3.27069C9.82225 3.56704 9.96802 3.84166 10.1683 4.07454C10.3685 4.30742 10.6182 4.49269 10.8991 4.61686C11.3112 4.77798 12.2526 4.83548 12.8345 4.27296C13.1165 4.01237 13.2883 3.65379 13.3145 3.27069H9.74158Z" fill="url(#paint16_linear_19_14)"/>
<path d="M19.3125 12.3631L11.5 13.944V15.8359L19.3125 14.4445V12.3631Z" fill="url(#paint17_linear_19_14)"/>
<defs>
<linearGradient id="paint0_linear_19_14" x1="11.6719" y1="1.25524" x2="12.748" y2="1.25524" gradientUnits="userSpaceOnUse">
<stop stop-color="#C61E32"/>
<stop offset="1" stop-color="#B5122E"/>
</linearGradient>
<linearGradient id="paint1_linear_19_14" x1="0.562501" y1="15.3178" x2="22.4375" y2="15.3178" gradientUnits="userSpaceOnUse">
<stop stop-color="#C5CED3" stop-opacity="0"/>
<stop offset="0.9495" stop-color="#C5CED3"/>
</linearGradient>
<linearGradient id="paint2_linear_19_14" x1="11.5" y1="14.6895" x2="11.5" y2="17.0305" gradientUnits="userSpaceOnUse">
<stop stop-color="#C5CED3" stop-opacity="0"/>
<stop offset="0.9495" stop-color="#C5CED3"/>
</linearGradient>
<linearGradient id="paint3_linear_19_14" x1="3.6875" y1="10.3449" x2="19.3125" y2="10.3449" gradientUnits="userSpaceOnUse">
<stop stop-color="#F2EDC6"/>
<stop offset="1" stop-color="#F2A74B"/>
</linearGradient>
<linearGradient id="paint4_linear_19_14" x1="10.3096" y1="8.59747" x2="9.89883" y2="10.8567" gradientUnits="userSpaceOnUse">
<stop stop-color="#F2A74B" stop-opacity="0"/>
<stop offset="0.9654" stop-color="#F2A74B"/>
</linearGradient>
<linearGradient id="paint5_linear_19_14" x1="9.52715" y1="13.574" x2="9.31719" y2="15.4127" gradientUnits="userSpaceOnUse">
<stop stop-color="#F2A74B" stop-opacity="0"/>
<stop offset="0.9654" stop-color="#F2A74B"/>
</linearGradient>
<linearGradient id="paint6_linear_19_14" x1="11.5" y1="10.3449" x2="-0.804687" y2="10.3449" gradientUnits="userSpaceOnUse">
<stop stop-color="#F2EDC6"/>
<stop offset="1" stop-color="#F2A74B"/>
</linearGradient>
<linearGradient id="paint7_linear_19_14" x1="15.2406" y1="8.72463" x2="15.5141" y2="10.2438" gradientUnits="userSpaceOnUse">
<stop stop-color="#F2A74B" stop-opacity="0"/>
<stop offset="0.9654" stop-color="#F2A74B"/>
</linearGradient>
<linearGradient id="paint8_linear_19_14" x1="3.6875" y1="10.8772" x2="19.3125" y2="10.8772" gradientUnits="userSpaceOnUse">
<stop stop-color="#854836"/>
<stop offset="1" stop-color="#612618"/>
</linearGradient>
<linearGradient id="paint9_linear_19_14" x1="-1" y1="6.06599" x2="-0.804688" y2="6.06599" gradientUnits="userSpaceOnUse">
<stop stop-color="#854836"/>
<stop offset="1" stop-color="#612618"/>
</linearGradient>
<linearGradient id="paint10_linear_19_14" x1="11.5" y1="6.06599" x2="-0.804687" y2="6.06599" gradientUnits="userSpaceOnUse">
<stop stop-color="#854836"/>
<stop offset="1" stop-color="#612618"/>
</linearGradient>
<linearGradient id="paint11_linear_19_14" x1="3.6875" y1="4.95585" x2="19.3125" y2="4.95585" gradientUnits="userSpaceOnUse">
<stop offset="0.0106" stop-color="#7E4130"/>
<stop offset="1" stop-color="#4F1E19"/>
</linearGradient>
<linearGradient id="paint12_linear_19_14" x1="11.5" y1="4.49414" x2="11.5" y2="6.24551" gradientUnits="userSpaceOnUse">
<stop stop-color="#4F1E19" stop-opacity="0"/>
<stop offset="0.992" stop-color="#4F1E19"/>
</linearGradient>
<linearGradient id="paint13_linear_19_14" x1="13.8073" y1="4.67345" x2="11.7633" y2="4.75333" gradientUnits="userSpaceOnUse">
<stop stop-color="#4F1E19" stop-opacity="0"/>
<stop offset="0.992" stop-color="#4F1E19"/>
</linearGradient>
<linearGradient id="paint14_linear_19_14" x1="11.5" y1="10.8772" x2="-0.804687" y2="10.8772" gradientUnits="userSpaceOnUse">
<stop stop-color="#854836"/>
<stop offset="1" stop-color="#612618"/>
</linearGradient>
<linearGradient id="paint15_linear_19_14" x1="9.70698" y1="3.18597" x2="13.3167" y2="3.18597" gradientUnits="userSpaceOnUse">
<stop stop-color="#E63B55"/>
<stop offset="1" stop-color="#C61E32"/>
</linearGradient>
<linearGradient id="paint16_linear_19_14" x1="11.5279" y1="3.27071" x2="11.5279" y2="4.72755" gradientUnits="userSpaceOnUse">
<stop stop-color="#C61E32" stop-opacity="0"/>
<stop offset="0.9661" stop-color="#C61E32"/>
</linearGradient>
<linearGradient id="paint17_linear_19_14" x1="15.3359" y1="13.4674" x2="15.4953" y2="14.9006" gradientUnits="userSpaceOnUse">
<stop stop-color="#F2A74B" stop-opacity="0"/>
<stop offset="0.9654" stop-color="#F2A74B"/>
</linearGradient>
</defs>
</svg>
