<svg width="41" height="41" viewBox="0 0 41 41" fill="none" xmlns="http://www.w3.org/2000/svg">
<g clip-path="url(#clip0_25_193)">
<path d="M35.3737 2.54268V37.5208C35.3737 38.1216 34.8862 38.6099 34.2854 38.6099H6.96975C6.36897 38.6099 5.88147 38.1216 5.88147 37.5208V2.54268C5.88147 1.94189 6.36897 1.45361 6.96975 1.45361H34.2854C34.8862 1.45361 35.3737 1.94189 35.3737 2.54268Z" fill="#EDF4FE"/>
<path d="M35.3737 2.54268V37.5208C35.3737 38.1216 34.8862 38.6099 34.2854 38.6099H20.6268V1.45361H34.2854C34.8862 1.45361 35.3737 1.94189 35.3737 2.54268Z" fill="#D7E9FE"/>
<path d="M35.3307 0.0317383H5.92444C5.27756 0.0317383 4.75256 0.556738 4.75256 1.20361V38.8599C4.75256 39.5067 5.27756 40.0317 5.92444 40.0317H35.3307C35.9776 40.0317 36.5026 39.5067 36.5026 38.8599V1.20361C36.5026 0.556738 35.9776 0.0317383 35.3307 0.0317383ZM34.1588 37.688H7.09631V2.37549H13.6049V5.10986C13.6049 5.75674 14.1299 6.28174 14.7768 6.28174H26.4783C27.1252 6.28174 27.6502 5.75674 27.6502 5.10986V2.37549H34.1588V37.688Z" fill="#4E6BA6"/>
<path d="M30.326 34.4943H27.1299C26.4827 34.4943 25.958 33.9696 25.958 33.3224C25.958 32.6753 26.4827 32.1506 27.1299 32.1506H30.3259C30.9731 32.1506 31.4978 32.6753 31.4978 33.3224C31.4978 33.9696 30.9732 34.4943 30.326 34.4943Z" fill="#6DABFC"/>
<path d="M23.6142 33.3224C23.6142 33.9693 23.0892 34.4943 22.4424 34.4943H10.9291C10.2822 34.4943 9.7572 33.9693 9.7572 33.3224C9.7572 32.6756 10.2822 32.1506 10.9291 32.1506H22.4424C23.0892 32.1506 23.6142 32.6756 23.6142 33.3224Z" fill="#AFD1FD"/>
<path d="M23.6142 33.3224C23.6142 33.9693 23.0892 34.4943 22.4423 34.4943H20.6267V32.1506H22.4423C23.0892 32.1506 23.6142 32.6756 23.6142 33.3224Z" fill="#6DABFC"/>
<path d="M30.1089 16.8653V18.5723C30.1089 19.2606 29.576 19.8192 28.9182 19.8192H12.337C11.6792 19.8192 11.1464 19.2606 11.1464 18.5723V16.8653C11.1464 14.0942 12.6089 11.6746 14.7682 10.4106C14.9175 10.3231 16.1081 11.6637 16.1081 11.6637C16.1081 11.6637 16.4479 9.67073 17.112 9.5637C17.7735 9.45472 18.1185 9.47542 19.4557 9.47542C20.7639 10.712 20.6013 10.5582 20.6721 10.6254L21.7995 9.47542C23.0879 9.47542 23.476 9.45378 24.1432 9.5637C24.8073 9.67073 25.2526 11.3465 25.2526 11.3465C25.2526 11.3465 26.3378 10.3231 26.487 10.4106C28.6464 11.6746 30.1089 14.0942 30.1089 16.8653Z" fill="#FFDC75"/>
<path d="M30.1089 16.8653V18.5723C30.1089 19.2606 29.5761 19.8192 28.9183 19.8192H20.6277V10.5832L20.6722 10.6254L21.7996 9.47542C23.088 9.47542 23.4761 9.45378 24.1433 9.5637C24.8074 9.67073 25.2527 11.3465 25.2527 11.3465C25.2527 11.3465 26.3378 10.3231 26.4871 10.4106C28.6464 11.6746 30.1089 14.0942 30.1089 16.8653Z" fill="#FFC649"/>
<path d="M30.1086 23.559V25.5247C30.1086 27.8861 28.2751 29.8068 26.0218 29.8068H15.2334C12.9801 29.8068 11.1466 27.8861 11.1466 25.5247V23.559C11.1466 22.87 11.6794 22.3123 12.3368 22.3123H28.9184C29.5758 22.3123 30.1086 22.87 30.1086 23.559Z" fill="#FFC649"/>
<path d="M30.1086 23.559V25.5247C30.1086 27.8861 28.2751 29.8068 26.0218 29.8068H20.6276V22.3123H28.9183C29.5758 22.3123 30.1086 22.87 30.1086 23.559Z" fill="#FFA951"/>
<path d="M21.7996 9.4754V13.2848C21.7996 13.9317 21.2746 14.4567 20.6277 14.4567C19.98 14.4567 19.4558 13.9317 19.4558 13.2848V9.4754H21.7996Z" fill="#FFA951"/>
<path d="M17.1121 9.56372V13.2848C17.1121 13.9317 16.5871 14.4567 15.9402 14.4567C15.2925 14.4567 14.7683 13.9317 14.7683 13.2848V10.4106C15.4817 9.99231 16.2711 9.69927 17.1121 9.56372Z" fill="#FFA951"/>
<path d="M26.4871 10.4106V13.2848C26.4871 13.9317 25.9621 14.4567 25.3152 14.4567C24.6675 14.4567 24.1433 13.9317 24.1433 13.2848V9.56372C24.9842 9.69927 25.7736 9.99224 26.4871 10.4106Z" fill="#FF8659"/>
<path d="M32.5687 21.0655C32.5687 22.5458 31.3686 23.7459 29.8883 23.7459H11.3669C9.88804 23.7459 8.6864 22.5466 8.6864 21.0655C8.6864 19.5852 9.88656 18.385 11.3669 18.385H29.8884C31.3672 18.385 32.5687 19.5844 32.5687 21.0655Z" fill="#FF775C"/>
<path d="M32.5687 21.0655C32.5687 22.5458 31.3686 23.7459 29.8883 23.7459H20.6276V18.385H29.8883C31.3672 18.385 32.5687 19.5844 32.5687 21.0655Z" fill="#F94E4E"/>
<path d="M21.7996 9.4754V13.2848C21.7996 13.9317 21.2746 14.4567 20.6277 14.4567V9.4754H21.7996Z" fill="#FF8659"/>
<path d="M36.5026 1.20361V38.8599C36.5026 39.5067 35.9776 40.0317 35.3307 40.0317H20.6268V37.688H34.1589V2.37549H27.6503V5.10986C27.6503 5.75674 27.1253 6.28174 26.4784 6.28174H20.6268V0.0317383H35.3307C35.9776 0.0317383 36.5026 0.556738 36.5026 1.20361Z" fill="#4E6BA6"/>
</g>
<defs>
<clipPath id="clip0_25_193">
<rect width="40" height="40" fill="white" transform="translate(0.627563 0.0317383)"/>
</clipPath>
</defs>
</svg>
