<svg width="29" height="29" viewBox="0 0 29 29" fill="none" xmlns="http://www.w3.org/2000/svg">
<path d="M19.1489 7.22906H6.61818C6.69965 7.41159 6.74423 7.61437 6.74423 7.82721C6.74423 8.64593 6.08007 9.31009 5.26135 9.31009C4.44203 9.31009 3.77847 8.64593 3.77847 7.82721C3.77847 7.61437 3.82305 7.41159 3.90451 7.22906H2.56613C1.14867 7.22906 -6.10352e-05 8.37785 -6.10352e-05 9.79531V26.3781C-6.10352e-05 27.795 1.14867 28.9437 2.56613 28.9437H11.0745C10.8159 28.5096 10.6678 28.0025 10.6678 27.4608C10.6678 25.8555 11.9688 24.5545 13.5742 24.5545C15.1795 24.5545 16.4805 25.8555 16.4805 27.4608C16.4805 28.0025 16.3325 28.5096 16.0738 28.9437H19.1489C20.5658 28.9437 21.7145 27.795 21.7145 26.3781V9.79531C21.7146 8.37785 20.5659 7.22906 19.1489 7.22906ZM4.63289 25.5374C3.98538 25.5374 3.46098 25.0124 3.46098 24.3655C3.46098 23.7179 3.98538 23.1929 4.63289 23.1929C5.2804 23.1929 5.8048 23.7179 5.8048 24.3655C5.8048 25.0124 5.2804 25.5374 4.63289 25.5374ZM4.97656 20.2837C3.20591 20.2837 1.77 18.8478 1.77 17.0771C1.77 15.3059 3.20591 13.8705 4.97656 13.8705C6.74782 13.8705 8.18373 15.3059 8.18373 17.0771C8.18373 18.8478 6.74782 20.2837 4.97656 20.2837ZM12.803 16.1317C11.3618 16.1317 10.1934 14.9628 10.1934 13.5215C10.1934 12.0802 11.3618 10.9119 12.803 10.9119C14.2443 10.9119 15.4132 12.0802 15.4132 13.5215C15.4132 14.9628 14.2443 16.1317 12.803 16.1317Z" fill="#FEE45A"/>
<path d="M1.60173 26.3781V9.79531C1.60173 8.46879 2.60776 7.37775 3.89858 7.24279C3.90038 7.23805 3.90272 7.23386 3.90451 7.22913H2.56613C1.14867 7.22907 -6.10352e-05 8.37785 -6.10352e-05 9.79531V26.3781C-6.10352e-05 27.795 1.14867 28.9437 2.56613 28.9437H4.16791C2.75045 28.9437 1.60173 27.795 1.60173 26.3781Z" fill="#FFD15B"/>
<path d="M11.5574 22.1818C12.3764 22.1818 13.0404 21.5179 13.0404 20.6989C13.0404 19.8799 12.3764 19.2159 11.5574 19.2159C10.7384 19.2159 10.0745 19.8799 10.0745 20.6989C10.0745 21.5179 10.7384 22.1818 11.5574 22.1818Z" fill="#FFD15B"/>
<path d="M17.9494 18.1149C18.5967 18.1149 19.1215 17.5901 19.1215 16.9428C19.1215 16.2955 18.5967 15.7708 17.9494 15.7708C17.3021 15.7708 16.7773 16.2955 16.7773 16.9428C16.7773 17.5901 17.3021 18.1149 17.9494 18.1149Z" fill="#FFD15B"/>
<circle cx="21.8266" cy="7.69348" r="6.96594" fill="white"/>
<path d="M21.8266 0.727539C17.9855 0.727539 14.8606 3.85243 14.8606 7.69348C14.8606 11.5345 17.9855 14.6594 21.8266 14.6594C25.6676 14.6594 28.7925 11.5345 28.7925 7.69348C28.7925 3.85243 25.6676 0.727539 21.8266 0.727539ZM22.5472 8.17389H21.106V9.61512H20.1451V8.17389H18.7039V7.21307H20.1451V5.77184H21.106V7.21307H22.5472V8.17389ZM24.9492 9.85533H23.9884V5.82849L22.7621 6.44179L22.3323 5.58231L24.254 4.62149C24.4029 4.54689 24.5799 4.55498 24.7213 4.6426C24.863 4.7301 24.9492 4.88468 24.9492 5.05123V9.85533Z" fill="#FF5023"/>
</svg>
