<svg width="36" height="41" viewBox="0 0 36 41" fill="none" xmlns="http://www.w3.org/2000/svg">
<path d="M8.54688 9.4435C8.54688 14.6331 12.7688 18.8553 17.9586 18.8553L19.718 9.4435L17.9586 0.0317383C12.7691 0.0317383 8.54688 4.2537 8.54688 9.4435Z" fill="#FFD737"/>
<path d="M27.3703 9.4435C27.3703 4.25401 23.1483 0.0317383 17.9585 0.0317383V18.8553C23.148 18.8553 27.3703 14.6333 27.3703 9.4435Z" fill="#FFD737"/>
<path d="M0.311523 38.8553V40.0317H9.72329C9.72329 39.6203 9.72329 39.2667 9.72329 38.8553C9.72329 34.3144 13.4175 30.62 17.9586 30.62L19.1351 25.9141L17.9586 21.2082C8.20564 21.2082 0.311523 29.101 0.311523 38.8553Z" fill="#EBF3FE"/>
<path d="M17.9585 21.2082V30.62C22.4994 30.62 26.1938 34.3142 26.1938 38.8553V40.0317H35.6056C35.6056 39.6203 35.6056 39.2667 35.6056 38.8553C35.6056 29.1023 27.7128 21.2082 17.9585 21.2082Z" fill="#EBF3FE"/>
<path d="M16.7821 8.267C15.9592 8.267 15.2521 8.267 14.4292 8.267C14.4292 7.4441 14.4292 6.73696 14.4292 5.91406H16.7821V8.267Z" fill="#FFB048"/>
<path d="M21.488 8.267C20.665 8.267 19.9579 8.267 19.135 8.267C19.135 7.4441 19.135 6.73696 19.135 5.91406H21.488V8.267Z" fill="#FFB048"/>
<path d="M4.27051 32.0383L5.46517 34.6991H8.2211C9.86376 30.8652 13.654 28.267 17.9587 28.267L19.1351 25.9141L17.9587 23.5612C12.0096 23.5612 6.7978 26.9841 4.27051 32.0383Z" fill="#FFD737"/>
<path d="M2.70923 37.6788H7.43527C7.54931 36.6517 7.81362 35.6497 8.22099 34.6991C6.8384 33.7679 5.65299 32.9695 4.2704 32.0383C3.38899 33.801 2.85966 35.7103 2.70923 37.6788Z" fill="#AEE52E"/>
<path d="M17.9585 23.5612V28.267C22.2517 28.267 26.0488 30.8545 27.6961 34.6991L30.4519 34.5939L31.6467 32.0383C29.1205 26.9866 23.9103 23.5612 17.9585 23.5612Z" fill="#FF5E4A"/>
<path d="M27.696 34.6991C28.1031 35.649 28.3676 36.651 28.4818 37.6788H33.2078C33.0576 35.7139 32.5296 33.8041 31.6467 32.0383C30.2641 32.9695 29.0786 33.768 27.696 34.6991Z" fill="#EA274A"/>
<path d="M21.25 35.2304C22.7972 33.9044 26.048 31.118 26.9596 30.3367C26.4241 29.7119 25.9639 29.1749 25.4284 28.5502C23.8806 29.8768 20.6292 32.6636 19.718 33.4446L19.7234 34.8585L21.25 35.2304Z" fill="#FFB048"/>
<path d="M16.0568 10.9835C15.462 11.5521 14.9508 12.0408 14.356 12.6094C15.2916 13.588 16.6047 14.1494 17.9586 14.1494L19.1351 12.9729L17.9586 11.7965C17.244 11.7965 16.5508 11.5001 16.0568 10.9835Z" fill="#FFB048"/>
<path d="M19.8603 10.9835C19.3664 11.5001 18.6732 11.7965 17.9585 11.7965V14.1494C19.3124 14.1494 20.6253 13.5881 21.561 12.6095C20.9662 12.0408 20.4551 11.5522 19.8603 10.9835Z" fill="#FFB048"/>
<path d="M14.4292 36.5023C14.4292 38.4484 16.0124 40.0317 17.9586 40.0317L19.1351 36.5023L17.9586 32.9729C16.0126 32.9729 14.4292 34.556 14.4292 36.5023Z" fill="#4D5086"/>
<path d="M17.9585 32.9729V40.0317C19.9045 40.0317 21.4879 38.4486 21.4879 36.5023C21.4879 34.5563 19.9048 32.9729 17.9585 32.9729Z" fill="#4D5086"/>
</svg>
