<svg width="33" height="34" viewBox="0 0 33 34" fill="none" xmlns="http://www.w3.org/2000/svg">
<path d="M23.4475 23.5706L11.0263 23.9784C9.40413 23.5428 7.82522 22.7302 6.79627 21.4046C5.77044 20.076 5.39349 18.1726 6.14123 16.671C6.75919 15.4319 8.03842 14.6286 9.37632 14.2609C9.42267 14.2485 9.58026 14.1836 9.77492 14.1002C9.30216 13.5132 9.13226 12.8118 9.23423 12.1165C9.42889 10.7786 10.6926 9.90112 11.839 9.18119C14.1847 7.70552 14.6319 6.30565 14.3102 5.28604C14.1075 4.64357 14.6577 4.01259 15.3065 4.19411C20.1095 5.53798 20.7977 8.78012 19.749 10.7168H19.7429V10.7199H19.7458C20.0363 10.6921 20.2556 10.6643 20.3637 10.655C23.1941 10.3924 24.2693 11.6592 24.3188 13.096C24.362 14.4339 23.4196 15.0364 23.1971 15.3175C24.6216 14.8232 26.3611 15.8861 26.701 18.1015C27.0657 20.49 25.6722 22.7703 23.4475 23.5706Z" fill="#EFEFEF"/>
<g opacity="0.1">
<path d="M16.345 23.9764H11.0257C9.40319 23.5443 7.82396 22.7311 6.79463 21.4032C5.76924 20.0754 5.3921 18.1738 6.14244 16.6692C6.75926 15.4317 8.03996 14.6302 9.37569 14.261C9.4228 14.2492 9.58001 14.1824 9.77639 14.0999C9.30103 13.5146 9.13208 12.8113 9.23423 12.116C9.43068 10.7802 10.6917 9.90024 11.8389 9.18133C14.1843 7.70419 14.6321 6.3056 14.31 5.28414C14.1058 4.64377 14.6597 4.01126 15.3079 4.1959L16.345 23.9764Z" fill="black"/>
</g>
<path d="M9.75766 14.0703C10.2048 14.4878 10.7373 14.7742 11.3027 14.9443C11.8637 15.1276 12.4538 15.2033 13.0423 15.2351C14.2282 15.3057 15.3917 15.0875 16.6295 14.9749C17.2452 14.9319 17.8715 14.9125 18.4985 14.9789C19.1229 15.0511 19.75 15.1857 20.3332 15.4399C20.9234 15.6794 21.4445 16.0655 21.8879 16.5028C22.3405 16.939 22.6586 17.4828 22.9299 18.0252C22.5411 17.5534 22.1684 17.078 21.6854 16.7287C21.2197 16.3681 20.7109 16.0702 20.1579 15.8892C19.0546 15.5183 17.864 15.4847 16.6778 15.5907C16.0805 15.6291 15.4866 15.7139 14.8653 15.7566C14.2459 15.7918 13.6204 15.7964 13.0001 15.7137C12.3806 15.6379 11.7636 15.4889 11.193 15.2255C10.6254 14.9664 10.1011 14.5789 9.75766 14.0703Z" fill="#C5C5C5"/>
<path d="M19.7524 10.7292C19.2704 10.914 18.7695 11.0323 18.2558 11.0847C17.7431 11.1378 17.2155 11.1346 16.6902 11.0225C16.1725 10.9127 15.6263 10.6877 15.2477 10.2416C15.0593 10.023 14.9371 9.75107 14.8903 9.47989C14.8484 9.20644 14.8698 8.93774 14.9461 8.69019C15.0516 9.19977 15.2498 9.63374 15.5909 9.90294C15.9256 10.1784 16.3649 10.3183 16.8193 10.4184C17.2767 10.5154 17.7583 10.5671 18.2481 10.6044C18.7386 10.6434 19.2377 10.6604 19.7524 10.7292Z" fill="#C5C5C5"/>
<path d="M11.4579 21.0903L13.0407 32.7292H10.8986L8.3522 21.5638C8.16699 20.6077 8.89943 19.7197 9.87333 19.7197H9.91885C10.7053 19.7197 11.367 20.309 11.4579 21.0903Z" fill="#EAA51C"/>
<path d="M17.8434 21.3291L17.3251 32.7292H15.1829L14.6645 21.3291C14.6305 20.4505 15.3336 19.7197 16.2128 19.7197H16.2952C17.1744 19.7198 17.8775 20.4506 17.8434 21.3291Z" fill="#EAA51C"/>
<path d="M24.1561 21.5638L21.6097 32.7292H19.4676L21.0504 21.0903C21.1412 20.309 21.8029 19.7197 22.5895 19.7197H22.635C23.609 19.7198 24.3414 20.6077 24.1561 21.5638Z" fill="#EAA51C"/>
<g opacity="0.1">
<path d="M22.6347 19.7178L19.4682 32.7293L21.0515 21.0889C21.1418 20.3071 21.8018 19.7178 22.5875 19.7178L22.6347 19.7178Z" fill="black"/>
</g>
<g opacity="0.1">
<path d="M9.91808 19.7179L10.9002 32.7294L8.35059 21.5643C8.16596 20.6096 8.90062 19.7179 9.8749 19.7179H9.91808Z" fill="black"/>
</g>
<g opacity="0.1">
<path d="M16.2112 19.7189H16.2937L15.1819 32.7303L14.6633 21.3296C14.6319 20.4535 15.3351 19.7189 16.2112 19.7189Z" fill="black"/>
</g>
<path d="M8.23804 20.9746L10.8986 32.7294C9.62247 32.7294 8.49264 31.9045 8.10394 30.689L5.22148 21.6748C4.95431 20.6896 5.69615 19.7198 6.71684 19.7198C7.45899 19.7198 8.09689 20.246 8.23804 20.9746Z" fill="#F5BB36"/>
<path d="M14.6599 21.2092L15.183 32.7294H13.0408L11.4995 21.4481C11.3926 20.5277 12.112 19.7198 13.0386 19.7198H13.1117C13.944 19.7198 14.6277 20.3775 14.6599 21.2092Z" fill="#F5BB36"/>
<path d="M21.0086 21.4481L19.4673 32.7294H17.3251L17.8481 21.2092C17.8804 20.3775 18.564 19.7198 19.3964 19.7198H19.4695C20.3961 19.7198 21.1155 20.5277 21.0086 21.4481Z" fill="#F5BB36"/>
<path d="M27.2865 21.6748L24.404 30.689C24.0153 31.9045 22.8856 32.7294 21.6094 32.7294L24.2699 20.9746C24.4111 20.246 25.049 19.7198 25.7911 19.7198C26.8118 19.7198 27.5536 20.6896 27.2865 21.6748Z" fill="#F5BB36"/>
<g opacity="0.1">
<path d="M19.3975 19.7179H19.4682L17.3232 32.7294L17.8497 21.2107C17.8811 20.3779 18.5646 19.7179 19.3975 19.7179Z" fill="black"/>
</g>
<g opacity="0.1">
<path d="M25.7894 19.7179L21.6093 32.7294L24.269 20.975C24.4104 20.2443 25.0508 19.7179 25.7894 19.7179Z" fill="black"/>
</g>
<g opacity="0.1">
<path d="M13.0371 19.7179H13.1118L13.041 32.7294L11.5011 21.4465C11.3911 20.5272 12.11 19.7179 13.0371 19.7179Z" fill="black"/>
</g>
<g opacity="0.1">
<path d="M6.71609 19.7179L8.10287 30.6905L5.22321 21.6743C4.95604 20.6882 5.69463 19.7179 6.71609 19.7179Z" fill="black"/>
</g>
<g opacity="0.2">
<path d="M19.1568 28.4088C18.7739 28.3593 18.4234 28.6296 18.374 29.0125L18.1429 30.8013C18.0934 31.1841 18.3637 31.5346 18.7465 31.5841C19.1294 31.6335 19.4799 31.3632 19.5293 30.9804L19.7604 29.1916C19.8099 28.8087 19.5396 28.4583 19.1568 28.4088Z" fill="white"/>
</g>
<g opacity="0.2">
<path d="M14.1402 28.7522C13.8402 28.7546 13.5989 28.9998 13.6013 29.2999L13.6126 30.7018C13.615 31.0019 13.8602 31.2431 14.1603 31.2407C14.4603 31.2383 14.7016 30.9931 14.6992 30.693L14.6879 29.2911C14.6855 28.9911 14.4403 28.7498 14.1402 28.7522Z" fill="white"/>
</g>
<g opacity="0.2">
<path d="M8.62146 27.9082C8.32756 27.9688 8.13835 28.2561 8.19886 28.55L8.48159 29.9231C8.5421 30.217 8.8294 30.4061 9.1233 30.3456C9.4172 30.2851 9.60641 29.9978 9.5459 29.7039L9.26317 28.3308C9.20266 28.0369 8.91536 27.8477 8.62146 27.9082Z" fill="white"/>
</g>
<path d="M11.1529 10.821C11.1529 10.821 11.6136 10.3837 10.5959 9.76945C9.57815 9.15523 8.74266 9.49872 8.74266 9.49872C8.16222 9.73822 8.79212 9.02762 8.56564 8.12184C8.26114 6.91411 6.98572 7.49194 6.98572 7.49194C6.41308 7.74959 6.8894 7.28629 6.82692 6.40662C6.76705 5.52427 5.18973 4.09012 5.18973 4.09012C4.72382 3.66847 4.85398 3.37959 5.47868 3.45241C5.47868 3.45241 7.59733 3.69451 8.30012 3.16092C9.00291 2.62734 9.09656 1.94277 9.34907 2.51801C9.34907 2.51801 9.91909 3.81939 11.0279 3.25197C11.8608 2.82772 11.6864 1.9688 11.8894 2.56486C11.8894 2.56486 12.1809 3.41857 13.3132 3.78035C14.4454 4.14219 14.4741 3.50708 14.4741 3.50708C14.5001 2.87978 14.6719 2.85896 14.8593 3.45762C14.8593 3.45762 15.5698 5.74808 16.5979 6.66693C16.6109 6.67735 16.6239 6.69036 16.6344 6.70071C17.436 5.58415 17.7458 3.36397 17.7458 3.36397C17.8317 2.74188 18.2637 3.97298 19.3231 3.43419C20.3825 2.8954 20.5308 2.00264 20.5308 2.00264C20.6349 1.38316 20.6037 2.25775 21.4912 2.54143C22.6781 2.9241 23.0321 1.54715 23.0321 1.54715C23.1883 0.938078 23.3887 1.59922 24.1695 2.01045C24.9478 2.42429 27.0014 1.84385 27.0014 1.84385C27.6053 1.67211 27.7796 1.93496 27.3892 2.42689C27.3892 2.42689 26.0644 4.09787 26.1476 4.97507C26.2283 5.85481 26.7723 6.23481 26.1659 6.07348C26.1659 6.07348 24.815 5.7091 24.7109 6.95061C24.6328 7.88242 24.8801 8.02559 24.8801 8.02559C25.4241 8.34051 25.3694 8.48108 24.7577 8.33791C24.7577 8.33791 23.878 8.13486 22.9722 8.90533C22.0691 9.6758 22.5922 10.0324 22.5922 10.0324C23.1102 10.3864 23.0295 10.5816 22.4126 10.4644C22.4126 10.4644 20.6141 10.1287 18.7869 10.1677C18.5032 10.1729 18.5032 10.1729 18.5032 10.1729C18.019 10.5373 17.4933 10.6545 17.3319 10.4332C17.2538 10.3239 17.017 9.98291 16.7671 9.62374C16.6031 9.96209 16.4573 10.2614 16.4079 10.3655C16.2855 10.6101 15.7467 10.5816 15.2106 10.3004C15.2106 10.3004 15.2106 10.3004 14.9321 10.3395C13.1205 10.5971 11.4 11.2192 11.4 11.2192C10.8093 11.4327 10.7 11.2531 11.1529 10.821Z" fill="#13BA56"/>
<path d="M18.1244 3.44382C18.1244 3.44382 18.5612 6.18051 18.6293 7.69865C19.4263 7.18875 20.2258 6.68634 21.0052 6.17244C21.0058 6.16552 21.0103 6.15924 21.0096 6.15104C20.8058 3.34751 20.6608 2.50345 20.6608 2.50345C20.6608 2.50345 20.6971 2.50605 20.6885 2.48992C20.68 2.4738 20.878 3.40103 21.1778 6.05987C21.955 5.54387 22.7294 5.01962 23.5068 4.49931C23.4595 3.43335 23.3741 2.49259 23.3283 1.6672C23.326 1.62263 23.3162 1.53012 23.3247 1.57539C23.5311 2.65881 23.5845 3.11919 23.6714 4.38947C24.8681 3.58985 26.0726 2.80122 27.3069 2.06872C27.3518 2.04218 27.3935 2.10478 27.3518 2.13602C26.208 2.98948 25.024 3.79436 23.833 4.58788C25.1288 5.244 25.6426 5.5666 26.2828 5.92774C26.3438 5.96216 26.3186 5.97009 26.2525 5.93841C25.5175 5.58464 24.6111 5.11651 23.6461 4.71258C22.9134 5.19981 22.179 5.68356 21.4496 6.17143C22.0713 6.57555 24.8445 8.13167 24.8445 8.13167L24.8307 8.17262C24.8307 8.17262 22.2415 6.72152 21.2577 6.29949C20.4581 6.83625 19.5771 7.45796 18.7748 8.01592C21.6436 9.74321 22.467 10.165 22.467 10.165L22.4522 10.2088C22.4522 10.2088 20.493 9.29477 18.6318 8.11675C17.989 8.56195 17.3407 8.99966 16.6821 9.41382L16.4895 9.12512C17.13 8.6723 17.7886 8.23871 18.452 7.81275C18.39 6.15574 18.0887 3.4449 18.0887 3.4449L18.1244 3.44382Z" fill="#0AA549"/>
<path d="M14.4974 3.59707C14.4974 3.59707 14.5085 6.36829 14.6866 7.87755C13.8176 7.50321 12.9477 7.13654 12.0953 6.75527C12.0937 6.74854 12.0883 6.74296 12.0875 6.73489C11.8357 3.93529 11.8424 3.07879 11.8424 3.07879C11.8424 3.07879 11.807 3.08723 11.8128 3.07003C11.8186 3.05269 11.7731 3.99973 11.9068 6.67204C11.0564 6.28836 10.2076 5.8963 9.35638 5.5083C9.23079 4.44888 9.16311 3.50653 9.07479 2.6847C9.0699 2.64025 9.06463 2.54755 9.06355 2.59352C9.03492 3.69599 9.05676 4.15904 9.17619 5.42665C7.86597 4.8309 6.54979 4.24729 5.21336 3.72386C5.16478 3.70482 5.13374 3.77345 5.17996 3.79732C6.44662 4.45478 7.74515 5.05789 9.04876 5.64842C7.87594 6.50537 7.42103 6.90677 6.84757 7.36657C6.79277 7.41038 6.81912 7.41419 6.87912 7.37216C7.54737 6.90423 8.36629 6.29578 9.25333 5.74131C10.0552 6.1036 10.858 6.46239 11.6567 6.826C11.1084 7.32524 8.62318 9.30904 8.62318 9.30904L8.6433 9.3472C8.6433 9.3472 10.964 7.49686 11.8667 6.92143C12.7426 7.32194 13.7125 7.79305 14.5944 8.21419C12.0423 10.3822 11.2979 10.9316 11.2979 10.9316L11.3195 10.9724C11.3195 10.9724 13.1052 9.75399 14.7516 8.29057C15.458 8.62599 16.1684 8.95329 16.8853 9.25551L17.0287 8.93945C16.3236 8.59622 15.6035 8.27463 14.88 7.96143C14.6735 6.31623 14.5327 3.59237 14.5327 3.59237L14.4974 3.59707Z" fill="#0AA549"/>
<path d="M14.3127 8.98667C13.6568 9.42134 13.4824 10.3063 13.9171 10.9596C14.3544 11.6129 15.2367 11.79 15.8926 11.3526C16.546 10.918 16.7229 10.033 16.2857 9.37969C15.8484 8.72636 14.966 8.54941 14.3127 8.98667Z" fill="#C61818"/>
<g opacity="0.1">
<path d="M16.516 10.2718C16.5382 9.96695 16.4688 9.65337 16.2857 9.37972C15.8484 8.72639 14.9661 8.54937 14.3127 8.9867C13.8702 9.27997 13.6532 9.77806 13.6882 10.2718H16.516Z" fill="black"/>
</g>
<path d="M16.7438 8.6405C15.9447 9.17148 15.7287 10.2516 16.2622 11.0507C16.7958 11.8498 17.8734 12.0631 18.6724 11.5322C19.4715 10.9986 19.6875 9.91846 19.154 9.12202C18.6204 8.32298 17.5428 8.10692 16.7438 8.6405Z" fill="#D62921"/>
<g opacity="0.1">
<path d="M19.443 10.1625C19.4592 9.8057 19.3677 9.44113 19.1539 9.12202C18.6203 8.32298 17.5427 8.10692 16.7437 8.6405C16.2188 8.98932 15.9475 9.5751 15.973 10.1625H19.443Z" fill="black"/>
</g>
<path d="M18.3835 9.89767C18.1649 10.0434 18.105 10.3401 18.2533 10.5614C18.3991 10.78 18.6958 10.8399 18.9145 10.6941C19.1357 10.5458 19.1929 10.249 19.0472 10.0304C18.9015 9.81183 18.6048 9.75196 18.3835 9.89767Z" fill="#C61818"/>
<path d="M15.3302 6.51402C14.643 6.97211 14.4583 7.89871 14.9163 8.58588C15.3744 9.27299 16.301 9.45781 16.9856 8.99965C17.6728 8.54156 17.8575 7.61496 17.3994 6.92779C16.9413 6.24075 16.0147 6.05593 15.3302 6.51402Z" fill="#E83E31"/>
<g opacity="0.1">
<path d="M17.6482 7.81928C17.6611 7.51394 17.5823 7.20195 17.3996 6.92785C16.9415 6.24075 16.0149 6.05592 15.3303 6.51401C14.8799 6.81427 14.6471 7.31579 14.6679 7.81928H17.6482Z" fill="black"/>
</g>
<path d="M15.8461 6.6114C16.0348 6.48563 16.2896 6.53648 16.4153 6.72499C16.5411 6.91362 16.4903 7.16842 16.3016 7.29432C16.1131 7.42003 15.8583 7.36918 15.7326 7.18061C15.6067 6.99197 15.6576 6.73718 15.8461 6.6114Z" fill="#D62921"/>
<path d="M14.2994 10.2204C14.1094 10.3453 14.06 10.6004 14.1849 10.7904C14.3125 10.9777 14.5649 11.0298 14.7549 10.9023C14.9424 10.7773 14.9944 10.5223 14.8695 10.3348C14.7419 10.1449 14.4869 10.0955 14.2994 10.2204Z" fill="#B50D0D"/>
</svg>
