<svg width="38" height="38" viewBox="0 0 38 38" fill="none" xmlns="http://www.w3.org/2000/svg">
<g clip-path="url(#clip0_78_870)">
<path d="M31.023 12.0858C31.328 9.8621 31.4751 8.00692 31.5452 6.65321C31.5711 6.15159 31.3428 5.67101 30.9383 5.37322C30.0519 4.72082 29.859 4.50865 29.3555 4.50357C28.9331 4.48093 28.6957 4.64797 28.3342 4.86754C28.2869 4.38392 28.0075 3.95268 27.5829 3.71258C26.6249 3.17083 26.408 2.98319 25.9075 3.03833C25.425 3.07041 25.2443 3.28054 24.4298 3.91996C24.0399 4.22602 23.8277 4.70551 23.8616 5.20002C23.9294 6.18823 23.989 7.49246 23.9935 9.04237C23.7221 8.91416 22.9413 8.43881 22.1983 9.11551L22.0802 9.22298C22.0076 8.57355 21.9321 7.99052 21.8596 7.48099C21.7888 6.98373 21.4726 6.5559 21.0184 6.34127L20.1563 5.93376C20.0392 4.55901 19.8974 3.38837 19.7653 2.46038C19.6945 1.96312 19.3783 1.53529 18.9242 1.32065C17.9291 0.850382 17.699 0.679137 17.2039 0.770782C16.7255 0.837902 16.5631 1.05827 15.7946 1.75813C15.4281 2.09198 15.2516 2.58555 15.3215 3.07636C15.374 3.4441 15.4286 3.85741 15.4826 4.31027C14.7093 4.11986 14.2526 4.64354 13.9788 4.89294L13.5507 5.28281C13.1842 5.61667 13.0076 6.11016 13.0776 6.60096C13.1243 6.92865 13.1727 7.29233 13.2209 7.68779C12.6675 6.00371 12.1385 4.60936 11.7099 3.55787C11.5204 3.09275 11.1096 2.75462 10.6169 2.65688C9.53098 2.44137 9.27041 2.33354 8.81465 2.54179C8.36694 2.72327 8.26166 2.9784 7.68777 3.84217C7.41341 4.25505 7.36226 4.77684 7.54947 5.23586C7.76077 5.75395 8.00123 6.36833 8.25876 7.06979C8.25825 7.06971 7.68225 6.98039 7.68167 6.98032C7.68008 6.9801 7.67746 6.97988 7.67645 6.97974C7.18441 6.90492 6.67372 7.08851 6.32397 7.61298L5.82018 8.44504C5.56345 8.86909 5.53421 9.39256 5.7405 9.84324C6.26839 10.9963 6.96629 12.6366 7.69053 14.6662C8.52767 17.0123 9.50609 20.1902 10.2655 23.9209H28.3657C29.8254 19.2858 30.6069 15.1196 31.023 12.0858Z" fill="#FFCF5D"/>
<path d="M25.9673 15.1617C26.2237 13.8438 26.4184 12.6395 26.5649 11.5832C26.8612 9.44879 27.0008 7.67161 27.066 6.40519C27.0914 5.91003 27.3594 5.4595 27.7831 5.20219L28.3343 4.86747C28.2871 4.38384 28.0076 3.95261 27.583 3.7125L26.688 3.20639C26.4367 3.06438 26.1825 3.00807 25.9077 3.03833C26.0511 4.29017 26.4959 8.90465 25.9673 15.1617Z" fill="#FF983B"/>
<path d="M21.0186 6.34146L20.1565 5.93395C20.0394 4.5592 19.8976 3.38856 19.7655 2.46057C19.6948 1.96331 19.3785 1.53548 18.9244 1.32085L17.9947 0.881559C17.7337 0.758204 17.476 0.720689 17.2041 0.770975C17.3527 1.55508 17.7206 3.67598 17.9527 6.72103L18.6082 6.12399C18.8129 5.93751 19.0356 5.82845 19.2983 5.79159C19.5908 7.33505 20.7326 14.0569 20.0159 22.815C19.9966 21.9442 19.9632 21.133 19.9211 20.3924C19.7938 18.1516 19.5823 16.3026 19.3915 14.9606C19.3206 14.4634 19.0044 14.0355 18.5503 13.8209L17.9309 13.5281C17.9265 13.4434 17.9223 13.358 17.9177 13.275C17.7989 11.1233 17.595 9.3524 17.416 8.09702C17.3626 7.7226 17.453 7.3468 17.6615 7.04132C17.6146 6.66124 17.5675 6.30823 17.5215 5.98518C17.4508 5.48792 17.1346 5.06009 16.6804 4.84546L15.7511 4.40631L15.7509 4.40624C15.6613 4.36394 15.5722 4.33244 15.4827 4.31039C15.3113 4.26823 15.1388 4.26257 14.9601 4.29558C15.1616 5.35905 15.7666 8.88017 15.889 13.8318L16.14 13.6031C16.3447 13.4167 16.574 13.3066 16.8365 13.2697L17.1333 23.921H21.4921C21.665 20.9388 21.621 18.3175 21.5078 16.2667C21.3891 14.1151 21.1851 12.3442 21.0061 11.0887C20.9361 10.598 21.1126 10.1044 21.4792 9.77058L21.6231 9.63953L22.0802 9.2231C22.0076 8.57367 21.9321 7.99064 21.8596 7.48111C21.7891 6.98385 21.4728 6.55602 21.0186 6.34146Z" fill="#FF983B"/>
<path d="M13.2214 7.68797C12.668 6.00388 12.139 4.60954 11.7104 3.55805C11.5209 3.09293 11.1101 2.75479 10.6174 2.65705L9.92222 2.51904L9.60897 2.45693C9.32577 2.40076 9.06665 2.42703 8.81515 2.5419C9.46465 3.94727 12.1375 10.0307 13.5877 18.5052C13.0186 16.4062 12.4198 14.566 11.8763 13.0506C11.1185 10.938 10.3913 9.2249 9.82746 7.99222C9.61855 7.53544 9.19392 7.21494 8.69753 7.13795L8.25925 7.06996L7.68261 6.98056L7.68174 6.98049C7.39642 6.93623 7.13854 6.97331 6.89212 7.09877C7.62985 8.53353 10.7758 14.9516 12.5521 23.9212H13.1524C13.3897 22.0425 13.5335 20.2495 13.6091 18.5828C13.7284 15.9522 13.6822 13.6328 13.58 11.7793C13.492 10.1891 13.3578 8.80788 13.2214 7.68797Z" fill="#FF983B"/>
<path d="M25.9796 15.9048C25.9678 15.6965 25.955 15.4929 25.9418 15.2915C25.8129 13.3259 25.6231 11.6902 25.4499 10.4729C25.3791 9.97568 25.0629 9.54779 24.6088 9.33322L24.106 9.09566L23.9936 9.04254L23.6792 8.89401C23.4182 8.77065 23.1604 8.73307 22.8884 8.78335C23.1595 10.2141 24.1604 16.0942 23.7345 23.9211H25.9845C26.1542 20.8006 26.102 18.0592 25.9796 15.9048Z" fill="#FF983B"/>
<path d="M30.9384 5.37325L30.1102 4.76366C29.8777 4.59263 29.632 4.50636 29.3556 4.5036C29.3457 6.23093 29.142 14.3003 26.0133 23.9211H28.3667C29.8259 19.2856 30.6069 15.1198 31.023 12.0857C31.328 9.86206 31.4751 8.00688 31.5451 6.65317C31.5712 6.15155 31.3429 5.67105 30.9384 5.37325Z" fill="#FF983B"/>
<path d="M29.6066 19.324H27.9964H25.5054H25.0483C24.5151 19.324 24.0663 19.7055 23.9595 20.2278C23.5413 22.2715 21.7331 23.8088 19.5657 23.8088C17.3984 23.8088 15.5902 22.2714 15.172 20.2278C15.0651 19.7054 14.6163 19.324 14.0832 19.324H9.46546C8.77518 19.324 8.24882 19.9418 8.35846 20.6234L10.9107 36.4786L10.9875 36.9557C11.0749 37.4992 11.544 37.8987 12.0944 37.8987H19.516H21.3963H26.9777C27.5282 37.8987 27.9972 37.4991 28.0846 36.9557L30.7135 20.6234C30.8232 19.9418 30.297 19.324 29.6066 19.324Z" fill="#FF5368"/>
<path d="M29.6066 19.324H28.6515L26.0225 35.6563H10.7784L10.9107 36.4785L10.9876 36.9557C11.075 37.4991 11.5441 37.8987 12.0945 37.8987H19.516H21.3963H26.9778C27.5282 37.8987 27.9973 37.4991 28.0847 36.9557L30.7136 20.6233C30.8232 19.9418 30.297 19.324 29.6066 19.324Z" fill="#D9435B"/>
</g>
<defs>
<clipPath id="clip0_78_870">
<rect width="37.1517" height="37.1517" fill="white" transform="translate(0 0.747009)"/>
</clipPath>
</defs>
</svg>
