<svg width="38" height="39" viewBox="0 0 38 39" fill="none" xmlns="http://www.w3.org/2000/svg">
<g clip-path="url(#clip0_78_858)">
<path d="M18.6254 7.15418C18.5128 6.07454 17.8231 5.13827 16.8257 4.7111L9.4071 1.53143L8.20591 1.68272C7.9452 2.2913 8.22696 2.99588 8.83524 3.25659L16.2544 6.43618C16.4537 6.52159 16.5915 6.70887 16.614 6.92453L17.703 17.3856H19.5512L18.6254 7.15418Z" fill="#FFDA78"/>
<path d="M20.1129 17.386L18.998 6.67606C18.8854 5.59641 18.1958 4.66015 17.1983 4.23297L9.77971 1.05338C9.17113 0.79383 8.46685 1.07443 8.20584 1.68271L16.7264 5.33454C17.325 5.59083 17.7387 6.15231 17.806 6.80014L18.9079 17.3859L20.1114 17.3862L20.1129 17.386Z" fill="#FFC263"/>
<path d="M25.9723 9.34564H19.276L18.0855 9.89755L16.866 9.34564H9.34607C9.00039 9.34564 8.72647 9.63727 8.74802 9.98223L9.11431 15.8426L9.81148 16.7768H27.0214L25.9723 9.34564Z" fill="#DFF4FA"/>
<path d="M17.703 17.3856L20.1129 17.3862L19.2759 9.34564H16.866L17.703 17.3856Z" fill="#CBEFF9"/>
<path d="M28.444 9.34564H25.9723L25.5256 16.4931L27.8962 16.9895L28.6759 15.8426L29.0421 9.98223C29.0636 9.63734 28.7896 9.34564 28.444 9.34564Z" fill="#CBEFF9"/>
<path d="M25.5949 15.3825C25.0137 15.0687 24.4628 14.7387 23.3032 14.7387C21.0961 14.7387 21.0961 15.9371 18.8889 15.9371C16.6837 15.9371 16.6837 14.7387 14.4785 14.7387C12.2721 14.7387 12.2721 15.9371 10.0656 15.9371C9.69053 15.9371 9.38345 15.9002 9.11432 15.8427L10.4006 36.4229C10.4111 36.593 10.445 36.7565 10.4992 36.91L11.7499 37.4856H25.1097L26.4068 17.2024L25.5949 15.3825Z" fill="#FFC263"/>
<path d="M16.2633 22.6717L14.7192 21.6394C14.1689 21.2715 14.0211 20.5272 14.3889 19.977L15.4213 18.4329C15.7892 17.8826 16.5334 17.7348 17.0837 18.1026L18.6278 19.135C19.178 19.5029 19.3258 20.2471 18.958 20.7974L17.9257 22.3415C17.5578 22.8918 16.8135 23.0396 16.2633 22.6717Z" fill="#FFDA78"/>
<path d="M21.8475 19.4119L21.0001 18.5644C20.5321 18.0964 20.5321 17.3376 21.0001 16.8696L21.8475 16.0222C22.3156 15.5541 23.0744 15.5541 23.5424 16.0222L24.3898 16.8696C24.8579 17.3376 24.8579 18.0964 24.3898 18.5644L23.5424 19.4119C23.0744 19.8799 22.3156 19.8799 21.8475 19.4119Z" fill="#FFDA78"/>
<path d="M27.3895 36.4228L28.6757 15.8426C28.4057 15.9003 28.097 15.937 27.7205 15.937C26.6713 15.937 26.1208 15.6664 25.5949 15.3824L24.3548 35.2244C24.2956 36.1718 23.5099 36.9099 22.5606 36.9099H10.4992C10.748 37.6097 11.4173 38.1083 12.1947 38.1083H25.5953C26.5446 38.1083 27.3303 37.3702 27.3895 36.4228Z" fill="#FFA95B"/>
<path d="M21.3948 25.2618L20.9556 24.8226C20.4876 24.3546 20.4876 23.5958 20.9556 23.1278L21.3948 22.6887C21.8628 22.2206 22.6216 22.2206 23.0896 22.6887L23.5288 23.1278C23.9968 23.5958 23.9968 24.3546 23.5288 24.8226L23.0896 25.2618C22.6216 25.7298 21.8628 25.7298 21.3948 25.2618Z" fill="#FFDA78"/>
</g>
<defs>
<clipPath id="clip0_78_858">
<rect width="37.1517" height="37.1517" fill="white" transform="translate(9.15527e-05 0.956665)"/>
</clipPath>
</defs>
</svg>
