<svg width="20" height="20" viewBox="0 0 20 20" fill="none" xmlns="http://www.w3.org/2000/svg">
<path d="M19.0389 8.6128C19.3927 8.6128 19.7222 8.71565 20 8.89276V6.24631C20 5.22932 19.1755 4.40436 18.1581 4.40436H6.25528C5.23829 4.40436 4.41376 5.22932 4.41376 6.24631V18.1491C4.41376 19.1665 5.23829 19.991 6.25528 19.991H6.84637C6.79259 19.8609 6.76317 19.7179 6.76317 19.5685C6.76317 18.9544 7.26122 18.4568 7.87536 18.4568C8.4895 18.4568 8.98712 18.9544 8.98712 19.5685C8.98712 19.7179 8.95766 19.8609 8.90391 19.991H18.1581C19.1756 19.991 20.0001 19.1665 20.0001 18.1491V11.9092C19.7223 12.0863 19.3928 12.1892 19.039 12.1892C18.0514 12.1892 17.2508 11.3885 17.2508 10.401C17.2508 9.41338 18.0513 8.6128 19.0389 8.6128ZM14.2531 17.7048C13.4097 17.7048 12.7265 17.0215 12.7265 16.1783C12.7265 15.3354 13.4098 14.6521 14.2531 14.6521C15.0959 14.6521 15.7792 15.3354 15.7792 16.1783C15.7792 17.0215 15.0959 17.7048 14.2531 17.7048Z" fill="#FFD15B"/>
<path d="M13.7447 0.00897217H4.75043C4.80891 0.139988 4.8409 0.285535 4.8409 0.438308C4.8409 1.02596 4.36418 1.50268 3.77652 1.50268C3.18844 1.50268 2.71215 1.02596 2.71215 0.438308C2.71215 0.285535 2.74414 0.139988 2.80262 0.00897217H1.84195C0.824531 0.00897217 0 0.833542 0 1.85096V13.7537C0 14.7707 0.824531 15.5953 1.84195 15.5953H7.9491C7.76344 15.2837 7.65719 14.9197 7.65719 14.5309C7.65719 13.3786 8.59098 12.4448 9.74328 12.4448C10.8956 12.4448 11.8294 13.3786 11.8294 14.5309C11.8294 14.9197 11.7231 15.2837 11.5375 15.5953H13.7447C14.7617 15.5953 15.5863 14.7707 15.5863 13.7537V1.85096C15.5863 0.833542 14.7618 0.00897217 13.7447 0.00897217ZM3.32543 13.1503C2.86066 13.1503 2.48426 12.7734 2.48426 12.3091C2.48426 11.8443 2.86066 11.4675 3.32543 11.4675C3.7902 11.4675 4.1666 11.8443 4.1666 12.3091C4.1666 12.7734 3.7902 13.1503 3.32543 13.1503ZM3.57211 9.37928C2.30117 9.37928 1.27051 8.34862 1.27051 7.07768C1.27051 5.80632 2.30117 4.77608 3.57211 4.77608C4.84348 4.77608 5.87414 5.80632 5.87414 7.07768C5.87414 8.34862 4.84348 9.37928 3.57211 9.37928ZM9.18977 6.39909C8.15527 6.39909 7.31664 5.56007 7.31664 4.52553C7.31664 3.49104 8.15527 2.65241 9.18977 2.65241C10.2243 2.65241 11.0633 3.49104 11.0633 4.52553C11.0633 5.56007 10.2243 6.39909 9.18977 6.39909Z" fill="#FEE45A"/>
<path d="M1.14973 13.7538V1.85099C1.14973 0.898838 1.87184 0.115713 2.79836 0.0188379C2.79965 0.0154395 2.80133 0.0124316 2.80262 0.0090332H1.84195C0.824531 0.00899414 0 0.833564 0 1.85099V13.7538C0 14.7708 0.824531 15.5953 1.84195 15.5953H2.99168C1.97426 15.5953 1.14973 14.7708 1.14973 13.7538Z" fill="#FFD15B"/>
<path d="M8.29571 10.7417C8.88357 10.7417 9.36012 10.2652 9.36012 9.67733C9.36012 9.08947 8.88357 8.61292 8.29571 8.61292C7.70785 8.61292 7.23129 9.08947 7.23129 9.67733C7.23129 10.2652 7.70785 10.7417 8.29571 10.7417Z" fill="#FFD15B"/>
<path d="M12.8837 7.82265C13.3483 7.82265 13.725 7.446 13.725 6.98136C13.725 6.51673 13.3483 6.14008 12.8837 6.14008C12.4191 6.14008 12.0424 6.51673 12.0424 6.98136C12.0424 7.446 12.4191 7.82265 12.8837 7.82265Z" fill="#FFD15B"/>
</svg>
