<svg width="54" height="47" viewBox="0 0 54 47" fill="none" xmlns="http://www.w3.org/2000/svg">
<path d="M52.984 0.207397V14.3266H30.5915L32.5474 12.8422L34.6736 9.1705C35.0578 8.66843 34.4335 7.88259 33.8921 8.21439C33.8921 8.21439 30.0327 10.9561 28.0855 12.1611C26.1383 13.3661 24.0165 14.3266 24.0165 14.3266H7.01151V0.207397H52.984Z" fill="#FFC931"/>
<path d="M53.2068 0.207397V46.1799H39.0832V37.016C39.0832 35.6232 39.4587 34.2567 40.1747 33.0605L42.231 29.6202L44.9116 24.761C45.4312 23.5953 43.89 22.6217 43.0605 23.5953L42.231 24.4423C41.288 25.5206 40.2402 26.6427 39.0832 27.7865V0.211768H53.2068V0.207397Z" fill="#FFC931"/>
<path d="M42.2309 24.4379C41.2879 25.5163 40.24 26.6383 39.0831 27.7822C38.5112 28.3497 37.9087 28.926 37.2844 29.498L39.0831 27.6599L42.2309 24.4379Z" fill="#FFC931"/>
<path d="M49.081 14.8592C48.8408 15.3089 46.671 19.3735 42.2309 24.4379C41.2879 25.5163 40.2401 26.6383 39.0832 27.7821C38.5112 28.3497 37.9087 28.926 37.2844 29.4979C29.2993 36.8195 17.3543 44.4335 0 45.9179V30.1484C9.76206 29.0744 18.2144 25.3635 25.6887 19.0941C27.518 17.5573 29.0853 16.0162 30.3995 14.5754L30.4169 14.5536C30.4911 14.475 30.561 14.4052 30.6265 14.3266C33.9053 10.6942 35.573 7.76905 35.7782 7.39795L39.0832 9.25344L48.1292 14.3266L49.081 14.8592Z" fill="#FFC931"/>
</svg>
