<svg width="16" height="20" viewBox="0 0 16 20" fill="none" xmlns="http://www.w3.org/2000/svg">
<path d="M15.1875 0.9375V13.4375C15.1875 13.4375 15.032 15.9527 13.3125 17.5C11.593 19.0473 8.9375 19.0625 8.9375 19.0625V6.5625C8.9375 6.5625 9.09297 4.04727 10.8125 2.5C12.532 0.952734 15.1875 0.9375 15.1875 0.9375Z" fill="#FFD33A"/>
<path d="M0.8125 19.0625V6.5625C0.8125 6.5625 0.967969 4.04727 2.6875 2.5C4.40703 0.952734 7.0625 0.9375 7.0625 0.9375V13.4375C7.0625 13.4375 6.90703 15.9527 5.1875 17.5C3.46797 19.0473 0.8125 19.0625 0.8125 19.0625Z" fill="#FFD33A"/>
<path d="M11.4375 14.6875C10.4059 15.8911 10.1875 17.8125 10.1875 17.8125C10.1875 17.8125 11.6559 17.7661 12.6875 16.5625C13.7191 15.3589 13.9375 13.4375 13.9375 13.4375C13.9375 13.4375 12.4691 13.4839 11.4375 14.6875Z" fill="#FFB632"/>
<path d="M13.9375 12.5C13.7649 12.5 13.625 12.3601 13.625 12.1875V2.1875C13.625 2.01492 13.7649 1.875 13.9375 1.875C14.1101 1.875 14.25 2.01492 14.25 2.1875V12.1875C14.25 12.3601 14.1101 12.5 13.9375 12.5Z" fill="#F2C837"/>
<path d="M12.6875 12.5C12.5149 12.5 12.375 12.3601 12.375 12.1875V2.8125C12.375 2.63992 12.5149 2.5 12.6875 2.5C12.8601 2.5 13 2.63992 13 2.8125V12.1875C13 12.3601 12.8601 12.5 12.6875 12.5Z" fill="#F2C837"/>
<path d="M11.4375 13.4375C11.2649 13.4375 11.125 13.2976 11.125 13.125V3.75C11.125 3.57742 11.2649 3.4375 11.4375 3.4375C11.6101 3.4375 11.75 3.57742 11.75 3.75V13.125C11.75 13.2976 11.6101 13.4375 11.4375 13.4375Z" fill="#F2C837"/>
<path d="M10.1875 15.3125C10.0149 15.3125 9.875 15.1726 9.875 15V5C9.875 4.82742 10.0149 4.6875 10.1875 4.6875C10.3601 4.6875 10.5 4.82742 10.5 5V15C10.5 15.1726 10.3601 15.3125 10.1875 15.3125Z" fill="#F2C837"/>
<path d="M4.5625 5.3125C5.59414 4.10891 5.8125 2.1875 5.8125 2.1875C5.8125 2.1875 4.34414 2.23391 3.3125 3.4375C2.28086 4.64109 2.0625 6.5625 2.0625 6.5625C2.0625 6.5625 3.53086 6.51609 4.5625 5.3125Z" fill="#FFB632"/>
<path d="M2.0625 18.125C1.88992 18.125 1.75 17.9851 1.75 17.8125V7.8125C1.75 7.63992 1.88992 7.5 2.0625 7.5C2.23508 7.5 2.375 7.63992 2.375 7.8125V17.8125C2.375 17.9851 2.23508 18.125 2.0625 18.125Z" fill="#F2C837"/>
<path d="M3.3125 17.5C3.13992 17.5 3 17.3601 3 17.1875V7.8125C3 7.63992 3.13992 7.5 3.3125 7.5C3.48508 7.5 3.625 7.63992 3.625 7.8125V17.1875C3.625 17.3601 3.48508 17.5 3.3125 17.5Z" fill="#F2C837"/>
<path d="M4.5625 16.5625C4.38992 16.5625 4.25 16.4226 4.25 16.25V6.875C4.25 6.70242 4.38992 6.5625 4.5625 6.5625C4.73508 6.5625 4.875 6.70242 4.875 6.875V16.25C4.875 16.4226 4.73508 16.5625 4.5625 16.5625Z" fill="#F2C837"/>
<path d="M5.8125 15.3125C5.63992 15.3125 5.5 15.1726 5.5 15V5C5.5 4.82742 5.63992 4.6875 5.8125 4.6875C5.98508 4.6875 6.125 4.82742 6.125 5V15C6.125 15.1726 5.98508 15.3125 5.8125 15.3125Z" fill="#F2C837"/>
</svg>
