<svg width="18" height="14" viewBox="0 0 18 14" fill="none" xmlns="http://www.w3.org/2000/svg">
<path d="M16.6615 10.9471C16.4127 10.9471 2.79964 10.9471 1.3388 10.9471C0.740226 10.9471 0.269308 11.5071 0.347039 12.1005C0.387152 12.4067 0.45757 12.7066 0.556042 12.9987C0.752671 13.5819 1.30206 13.9729 1.9175 13.9729H16.0827C16.6982 13.9729 17.2475 13.5819 17.4442 12.9987C17.5427 12.7067 17.6131 12.4067 17.6532 12.1006C17.731 11.5071 17.26 10.9471 16.6615 10.9471Z" fill="#FFC365"/>
<path d="M3.21618 12.9987C3.1177 12.7066 3.04728 12.4067 3.00717 12.1005C2.92941 11.5071 3.40036 10.9471 3.99893 10.9471C2.67073 10.9471 1.6777 10.9471 1.3388 10.9471C0.740226 10.9471 0.269308 11.5071 0.347039 12.1005C0.387152 12.4067 0.45757 12.7066 0.556042 12.9987C0.752671 13.5819 1.30206 13.9729 1.9175 13.9729H4.57764C3.96216 13.9729 3.4128 13.5819 3.21618 12.9987Z" fill="#FFB640"/>
<path d="M16.4831 7.11938H11.6603C11.9017 7.11938 12.0992 7.32248 12.0992 7.57069V8.13255C12.0992 8.38076 11.9017 8.58385 11.6603 8.58385H16.4831C16.7245 8.58385 16.922 8.38076 16.922 8.13255V7.57069C16.922 7.32245 16.7245 7.11938 16.4831 7.11938Z" fill="#FF636E"/>
<path d="M13.7618 8.13255V7.57069C13.7618 7.32248 13.9593 7.11938 14.2007 7.11938H11.6603C11.9017 7.11938 12.0992 7.32248 12.0992 7.57069V8.13255C12.0992 8.38076 11.9017 8.58385 11.6603 8.58385H14.2007C13.9593 8.58385 13.7618 8.38076 13.7618 8.13255Z" fill="#FF4654"/>
<path d="M11.7688 7.11938H6.00423C5.76282 7.11938 5.56531 7.32248 5.56531 7.57069V8.13255C5.56531 8.38076 5.76282 8.58385 6.00423 8.58385H11.7689C12.0103 8.58385 12.2078 8.38076 12.2078 8.13255V7.57069C12.2078 7.32245 12.0103 7.11938 11.7688 7.11938Z" fill="#FF636E"/>
<path d="M8.22544 8.13255V7.57069C8.22544 7.32248 8.42295 7.11938 8.66437 7.11938H6.00423C5.76282 7.11938 5.56531 7.32248 5.56531 7.57069V8.13255C5.56531 8.38076 5.76282 8.58385 6.00423 8.58385H8.66437C8.42295 8.58385 8.22544 8.38076 8.22544 8.13255Z" fill="#FF4654"/>
<path d="M5.67391 8.13255V7.57069C5.67391 7.32248 5.87142 7.11938 6.11284 7.11938H1.29C1.04858 7.11938 0.851074 7.32248 0.851074 7.57069V8.13255C0.851074 8.38076 1.04858 8.58385 1.29 8.58385H6.11284C5.87146 8.58385 5.67391 8.38076 5.67391 8.13255Z" fill="#FF636E"/>
<path d="M3.51121 8.13255V7.57069C3.51121 7.32248 3.70871 7.11938 3.95013 7.11938H1.29C1.04858 7.11938 0.851074 7.32248 0.851074 7.57069V8.13255C0.851074 8.38076 1.04858 8.58385 1.29 8.58385H3.95013C3.70871 8.58385 3.51121 8.38076 3.51121 8.13255Z" fill="#FF4654"/>
<path d="M16.8059 8.5437H14.2186C12.3568 8.72205 10.8156 9.9786 9.86182 10.9833H16.8059C17.2765 10.9833 17.6615 10.5983 17.6615 10.1277V9.39933C17.6615 8.92873 17.2764 8.5437 16.8059 8.5437Z" fill="#A15427"/>
<path d="M3.55432 8.5437H1.19404C0.723471 8.5437 0.33844 8.92873 0.33844 9.3993V10.1277C0.33844 10.5983 0.723471 10.9833 1.19404 10.9833H7.93595C6.05319 9.09885 3.55432 8.5437 3.55432 8.5437Z" fill="#A15427"/>
<path d="M2.99857 10.1277V9.3993C2.99857 8.99803 3.27863 8.65915 3.65287 8.56799C3.58909 8.55147 3.55429 8.5437 3.55429 8.5437H1.19404C0.723436 8.5437 0.33844 8.92873 0.33844 9.3993V10.1277C0.33844 10.5983 0.723471 10.9833 1.19404 10.9833H3.85417C3.3836 10.9833 2.99857 10.5983 2.99857 10.1277Z" fill="#924D24"/>
<path d="M3.48206 8.5437C3.48206 8.5437 6.35777 9.18228 8.26362 11.4156C8.59863 11.8082 9.20511 11.8111 9.54095 11.4192C10.4269 10.3855 12.1466 8.74912 14.2912 8.5437H3.48206Z" fill="#FFE02F"/>
<path d="M3.48206 8.5437C3.48206 8.5437 6.35777 9.18228 8.26362 11.4156C8.59866 11.8082 9.20511 11.8111 9.54095 11.4192C10.4269 10.3855 12.1466 8.74912 14.2912 8.5437H3.48206Z" fill="#FFE02F"/>
<path d="M9.85841 10.8589C8.8746 9.70604 7.63239 8.97816 6.66067 8.5437H3.48206C3.48206 8.5437 6.35777 9.18228 8.26362 11.4156C8.59866 11.8082 9.20511 11.8111 9.54095 11.4192C9.66425 11.2754 9.80375 11.1198 9.95826 10.9581C9.92293 10.9284 9.88949 10.8953 9.85841 10.8589Z" fill="#FBC700"/>
<path d="M17.9912 5.95522C17.5543 2.6396 13.7055 0.0270996 9.00009 0.0270996C4.29629 0.0270996 0.445764 2.63861 0.00894743 5.95518C-0.0724393 6.57312 0.415811 7.15559 1.03906 7.15559H16.9611C17.5843 7.15559 18.0726 6.57312 17.9912 5.95522Z" fill="#FFC365"/>
<path d="M2.66908 5.95518C3.06392 2.9573 6.24802 0.53574 10.3302 0.0979746C9.89622 0.0514277 9.45216 0.0270996 9.00009 0.0270996C4.29629 0.0270996 0.445764 2.63861 0.00894743 5.95518C-0.0724393 6.57309 0.415811 7.15556 1.03906 7.15556H3.69919C3.07591 7.15559 2.58769 6.57312 2.66908 5.95518Z" fill="#FFB640"/>
<path d="M3.54426 1.72457L3.92198 2.26756C4.00927 2.39304 4.1949 2.39304 4.28216 2.26756L4.65988 1.72457C4.85999 1.43693 4.80064 1.0816 4.5889 0.862122C4.18101 1.02838 3.79289 1.21702 3.42737 1.42557C3.4409 1.52777 3.47838 1.62983 3.54426 1.72457Z" fill="#FCD79B"/>
<path d="M7.29166 0.656982C6.7428 0.656982 6.42042 1.27401 6.73384 1.72454L7.11156 2.26753C7.19885 2.393 7.38447 2.393 7.47173 2.26753L7.84945 1.72454C8.1629 1.27405 7.84052 0.656982 7.29166 0.656982Z" fill="#FEE6C1"/>
<path d="M10.4814 0.656982C9.93256 0.656982 9.61018 1.27401 9.9236 1.72454L10.3013 2.26753C10.3886 2.393 10.5742 2.393 10.6615 2.26753L11.0392 1.72457C11.3527 1.27405 11.0302 0.656982 10.4814 0.656982Z" fill="#FEE6C1"/>
<path d="M5.69687 4.67975C5.14801 4.67975 4.82563 4.06272 5.13905 3.61219L5.51677 3.0692C5.60406 2.94373 5.78969 2.94373 5.87694 3.0692L6.25466 3.61219C6.56812 4.06272 6.24573 4.67975 5.69687 4.67975Z" fill="#FEE6C1"/>
<path d="M8.88645 4.67975C8.33759 4.67975 8.01521 4.06272 8.32863 3.61219L8.70634 3.0692C8.79364 2.94373 8.97926 2.94373 9.06652 3.0692L9.44424 3.61219C9.75773 4.06272 9.43531 4.67975 8.88645 4.67975Z" fill="#FEE6C1"/>
<path d="M12.0762 4.67975C11.5273 4.67975 11.205 4.06272 11.5184 3.61219L11.8961 3.0692C11.9834 2.94373 12.169 2.94373 12.2563 3.0692L12.634 3.61219C12.9474 4.06272 12.6251 4.67975 12.0762 4.67975Z" fill="#FEE6C1"/>
<path d="M13.4908 2.26756C13.5781 2.39303 13.7637 2.39303 13.851 2.26756L14.2287 1.72457C14.3212 1.59168 14.358 1.4443 14.3503 1.30255C14.0029 1.11665 13.6367 0.948142 13.2538 0.799255C12.9871 1.00812 12.8925 1.40746 13.1131 1.72457L13.4908 2.26756Z" fill="#FEE6C1"/>
<path d="M7.53148 1.72454C7.30582 1.40015 7.40977 0.989525 7.69049 0.784986C7.5813 0.705428 7.44542 0.656982 7.29172 0.656982C6.74289 0.656982 6.42048 1.27401 6.73389 1.72454L7.11161 2.26753C7.1989 2.393 7.38453 2.393 7.47179 2.26753L7.69049 1.95316L7.53148 1.72454Z" fill="#FCD79B"/>
<path d="M10.721 1.72454C10.4954 1.40015 10.5993 0.989525 10.8801 0.784986C10.7709 0.705428 10.635 0.656982 10.4813 0.656982C9.93244 0.656982 9.61006 1.27401 9.92347 1.72454L10.3012 2.26753C10.3885 2.393 10.5741 2.393 10.6614 2.26753L10.8801 1.95316L10.721 1.72454Z" fill="#FCD79B"/>
<path d="M5.93667 3.61219L6.09571 3.38357L5.87701 3.0692C5.78971 2.94373 5.60409 2.94373 5.51683 3.0692L5.13911 3.61219C4.82569 4.06272 5.14808 4.67975 5.69694 4.67975C5.85064 4.67975 5.98655 4.6313 6.09571 4.55174C5.81499 4.34717 5.71103 3.93654 5.93667 3.61219Z" fill="#FCD79B"/>
<path d="M9.12624 3.61219L9.28528 3.38357L9.06658 3.0692C8.97928 2.94373 8.79366 2.94373 8.7064 3.0692L8.32868 3.61219C8.01526 4.06272 8.33768 4.67975 8.8865 4.67975C9.04021 4.67975 9.17612 4.6313 9.28532 4.55174C9.00456 4.34717 8.9006 3.93654 9.12624 3.61219Z" fill="#FCD79B"/>
<path d="M12.3158 3.61219L12.4748 3.38357L12.2561 3.0692C12.1688 2.94373 11.9832 2.94373 11.8959 3.0692L11.5182 3.61219C11.2048 4.06272 11.5272 4.67975 12.076 4.67975C12.2297 4.67975 12.3656 4.6313 12.4748 4.55174C12.1941 4.34717 12.0901 3.93654 12.3158 3.61219Z" fill="#FCD79B"/>
<path d="M13.9108 1.72451C13.7618 1.51048 13.757 1.25914 13.8513 1.05404C13.657 0.963866 13.458 0.878542 13.2539 0.799194C12.9872 1.00806 12.8925 1.4074 13.1131 1.72451L13.4909 2.2675C13.5781 2.39297 13.7638 2.39297 13.851 2.2675L14.0697 1.95313L13.9108 1.72451Z" fill="#FCD79B"/>
</svg>
