<svg width="36" height="35" viewBox="0 0 36 35" fill="none" xmlns="http://www.w3.org/2000/svg">
<g clip-path="url(#clip0_25_139)">
<path fill-rule="evenodd" clip-rule="evenodd" d="M7.08308 18.5813H13.8669C16.5969 20.6879 19.3268 22.7946 22.0568 24.9012C23.1581 25.7518 23.4604 27.2679 22.8348 28.463L30.9473 24.5286C32.3509 23.8491 34.0545 24.4396 34.734 25.8433C35.4136 27.2446 34.8231 28.9505 33.4194 29.63C18.9073 36.6669 21.7123 36.9318 7.08301 29.2996L7.08308 18.5813Z" fill="#FFCEBF"/>
<path d="M14.591 24.599L14.0403 24.1748L13.192 25.2738L19.0877 29.8245C19.8587 30.4174 20.7984 30.6424 21.6935 30.5275C22.591 30.4103 23.4463 29.9558 24.0391 29.1871C24.1398 29.0535 24.2312 28.9176 24.3109 28.777C24.3976 28.6247 24.4679 28.4771 24.5265 28.3341L24.8757 27.4718L22.8347 28.463C22.4831 28.852 22.0122 29.0863 21.52 29.1496C20.974 29.2199 20.4023 29.084 19.9383 28.7254L14.591 24.599Z" fill="#FFB09E"/>
<path fill-rule="evenodd" clip-rule="evenodd" d="M1.12866 16.6364H7.08297V31.2469H1.12866V16.6364Z" fill="#435469"/>
<path fill-rule="evenodd" clip-rule="evenodd" d="M34.4668 14.8743C35.7954 12.5732 31.6384 7.68737 25.185 3.96151C18.7316 0.235651 12.4234 -0.919622 11.0947 1.37917C10.3589 2.65626 9.62317 3.93102 8.88503 5.20579C7.5564 7.5069 11.7134 12.3927 18.1669 16.1185C24.6203 19.8444 30.9285 21.002 32.2572 18.7009C32.9929 17.4238 33.7311 16.149 34.4668 14.8743Z" fill="#FE9923"/>
<path fill-rule="evenodd" clip-rule="evenodd" d="M25.185 3.96151C18.7316 0.235651 12.4234 -0.919622 11.0947 1.37917C9.76609 3.68028 13.9208 8.56606 20.3766 12.2919C26.83 16.0178 33.1382 17.1754 34.4669 14.8743C35.7956 12.5732 31.6384 7.68737 25.185 3.96151Z" fill="#FECD3D"/>
<path fill-rule="evenodd" clip-rule="evenodd" d="M24.0602 5.90881C18.9261 2.94454 14.1903 1.53388 13.4825 2.75943C12.7772 3.98497 16.3648 7.38045 21.499 10.3447C26.6332 13.309 31.369 14.7196 32.0766 13.4941C32.7844 12.2686 29.1967 8.87308 24.0602 5.90881Z" fill="#FEA832"/>
<path d="M11.5774 7.84198L10.4011 9.87834C10.1199 9.53388 9.86917 9.19645 9.65125 8.86601L10.5768 7.26318L11.5774 7.84198ZM12.5827 12.1326C12.8663 12.3856 13.1638 12.6411 13.4731 12.8941L14.5932 10.9515L13.595 10.3774L12.5827 12.1326ZM15.9078 14.7079C16.2242 14.9211 16.5452 15.1296 16.8756 15.3382L17.9441 13.4846L16.9459 12.9105L15.9078 14.7079ZM19.4861 16.8473C19.8329 17.0278 20.1774 17.2035 20.5172 17.3675L21.5553 15.5725L20.557 14.9937L19.4861 16.8473ZM23.3057 18.5719C23.6806 18.7126 24.0485 18.8414 24.4117 18.9609L25.4241 17.2058L24.4258 16.6316L23.3057 18.5719ZM27.4533 19.7249C27.8915 19.7952 28.311 19.8421 28.7046 19.8655L29.6279 18.265L28.6297 17.6862L27.4533 19.7249Z" fill="#C85929"/>
<path d="M33.396 0.0341187V1.65567H35.0152V2.81327H33.396V4.4325H32.2384V2.81327H30.6168V1.65567H32.2384V0.0341187H33.396Z" fill="#FEA832"/>
<path d="M3.90788 7.28894V8.90817H5.52943V10.0658H3.90788V11.6873H2.75028V10.0658H1.12866V8.90817H2.75028V7.28894H3.90788Z" fill="#FEA832"/>
</g>
<defs>
<clipPath id="clip0_25_139">
<rect width="35" height="35" fill="white" transform="translate(0.572388 -6.10352e-05)"/>
</clipPath>
</defs>
</svg>
