<svg width="16" height="20" viewBox="0 0 16 20" fill="none" xmlns="http://www.w3.org/2000/svg">
<path d="M15.9166 11.0573C15.9166 15.5354 12.4189 19.1667 8.10519 19.1667C3.79144 19.1667 0.083313 15.5354 0.083313 11.0573C0.083313 6.57919 3.79144 2.94794 8.10519 2.94794C12.4189 2.94794 15.9166 6.57919 15.9166 11.0573Z" fill="#ED6021"/>
<path d="M14.4129 10.4619C14.4129 14.6116 11.2462 17.9759 7.34304 17.9759C3.43988 17.9759 0.083313 14.6116 0.083313 10.4619C0.083313 6.3123 3.43731 2.94794 7.34304 2.94794C11.2488 2.94794 14.4129 6.3123 14.4129 10.4619Z" fill="#FF943E"/>
<path d="M15.234 2.36793C15.234 2.36793 13.6892 3.89999 11.7825 3.89999C9.87583 3.89999 8.33099 2.36793 8.33099 2.36793C8.33099 2.36793 9.87583 0.833313 11.7825 0.833313C13.6892 0.833313 15.234 2.36793 15.234 2.36793Z" fill="#52BF2E"/>
<path d="M7.99231 15.3917C7.99231 15.6751 8.22209 15.9049 8.50555 15.9049C8.789 15.9049 9.01878 15.6751 9.01878 15.3917C9.01878 15.1082 8.789 14.8784 8.50555 14.8784C8.22209 14.8784 7.99231 15.1082 7.99231 15.3917Z" fill="#FF7336"/>
<path d="M10.2505 13.8519C10.2505 14.1354 10.4803 14.3652 10.7638 14.3652C11.0472 14.3652 11.277 14.1354 11.277 13.8519C11.277 13.5685 11.0472 13.3387 10.7638 13.3387C10.4803 13.3387 10.2505 13.5685 10.2505 13.8519Z" fill="#FF7336"/>
<path d="M10.7638 15.9049C10.7638 16.1884 10.9936 16.4182 11.277 16.4182C11.5605 16.4182 11.7903 16.1884 11.7903 15.9049C11.7903 15.6215 11.5605 15.3917 11.277 15.3917C10.9936 15.3917 10.7638 15.6215 10.7638 15.9049Z" fill="#FF7336"/>
<path d="M11.9186 14.3652C11.9186 14.6486 12.1484 14.8784 12.4318 14.8784C12.7153 14.8784 12.9451 14.6486 12.9451 14.3652C12.9451 14.0817 12.7153 13.8519 12.4318 13.8519C12.1484 13.8519 11.9186 14.0817 11.9186 14.3652Z" fill="#FF7336"/>
<path d="M11.4053 11.0547C11.4053 11.3382 11.6351 11.5679 11.9186 11.5679C12.202 11.5679 12.4318 11.3382 12.4318 11.0547C12.4318 10.7712 12.202 10.5414 11.9186 10.5414C11.6351 10.5414 11.4053 10.7712 11.4053 11.0547Z" fill="#FF7336"/>
<path d="M12.4575 12.8254C12.4575 13.1088 12.6872 13.3386 12.9707 13.3386C13.2541 13.3386 13.4839 13.1088 13.4839 12.8254C13.4839 12.5419 13.2541 12.3121 12.9707 12.3121C12.6872 12.3121 12.4575 12.5419 12.4575 12.8254Z" fill="#FF7336"/>
</svg>
