<svg width="42" height="42" viewBox="0 0 42 42" fill="none" xmlns="http://www.w3.org/2000/svg">
<g clip-path="url(#clip0_78_814)">
<path d="M17.9317 23.9721L34.2376 18.6815L38.0553 17.6872C40.7494 28.0103 34.5557 38.5608 24.2211 41.2526C13.8864 43.9443 3.32449 37.758 0.630221 27.4349C-2.06404 17.1118 4.12979 6.56118 14.4644 3.86944C17.7986 3.00106 21.1563 3.05665 24.266 3.87717L23.2666 7.66998L17.9317 23.9721Z" fill="#F5A26A"/>
<path d="M34.2376 18.6815C34.5595 19.9209 34.7308 21.221 34.7308 22.561C34.7308 31.0596 27.8413 37.949 19.3428 37.949C10.8444 37.949 3.9548 31.0596 3.9548 22.561C3.9548 14.0625 10.8442 7.1731 19.3428 7.1731C20.6409 7.1731 22.0623 7.36736 23.2666 7.6701L19.3428 22.5611L34.2376 18.6815Z" fill="#FFDB63"/>
<path d="M19.9028 7.6701L15.731 23.5018L19.3428 22.5611L23.2666 7.6701C22.0623 7.36744 20.641 7.1731 19.3428 7.1731C18.7655 7.1731 18.1961 7.20598 17.6354 7.26787C18.4201 7.35357 19.1985 7.49308 19.9028 7.6701Z" fill="#FFD033"/>
<path d="M34.2376 18.6815L31.0628 19.5084C31.2614 20.4952 31.367 21.5157 31.367 22.561C31.367 30.4911 25.3681 37.0192 17.6609 37.8571C18.2134 37.9172 18.7743 37.949 19.3428 37.949C27.8414 37.949 34.7308 31.0595 34.7308 22.561C34.7307 21.221 34.5594 19.9209 34.2376 18.6815Z" fill="#FFD033"/>
<path d="M41.7958 13.6909C40.0726 7.20312 34.8746 1.92206 28.4184 0.0866699L23.1057 18.6635L41.7958 13.6909Z" fill="#F5A26A"/>
<path d="M28.751 4.40483C28.3136 4.23235 27.8731 4.08131 27.4305 3.95113L27.3184 3.9328L23.1056 18.6635L37.9631 14.7106C36.736 10.1769 33.4562 6.26041 28.751 4.40483Z" fill="#FFDB63"/>
<path d="M34.569 15.6136L37.9632 14.7106C36.736 10.1769 33.4562 6.26041 28.751 4.40483C28.3136 4.23235 27.8731 4.08131 27.4305 3.95113L27.3184 3.9328L26.7228 6.01535C30.6778 8.0228 33.4424 11.5666 34.569 15.6136Z" fill="#FFD033"/>
<path d="M10.1555 19.3345C11.3707 19.3066 12.3332 18.2999 12.3053 17.0861C12.2774 15.8722 11.2696 14.9109 10.0544 14.9388C8.83926 14.9668 7.87679 15.9734 7.90471 17.1873C7.93263 18.4011 8.94036 19.3625 10.1555 19.3345Z" fill="#F54C5A"/>
<path d="M11.5439 32.1288C12.7591 32.1009 13.7216 31.0942 13.6936 29.8804C13.6657 28.6665 12.658 27.7052 11.4428 27.7331C10.2276 27.7611 9.26516 28.7678 9.29307 29.9816C9.32099 31.1954 10.3287 32.1568 11.5439 32.1288Z" fill="#F54C5A"/>
<path d="M31.7118 19.3394C32.0184 20.514 31.3136 21.7145 30.1378 22.0207C28.962 22.327 27.7602 21.6231 27.4536 20.4486" fill="#F54C5A"/>
<path d="M25.6548 33.7384C26.87 33.7104 27.8325 32.7038 27.8045 31.4899C27.7766 30.2761 26.7689 29.3148 25.5537 29.3427C24.3385 29.3707 23.3761 30.3773 23.404 31.5912C23.4319 32.805 24.4396 33.7663 25.6548 33.7384Z" fill="#F54C5A"/>
<path d="M20.8316 16.833C19.8097 16.8874 18.856 16.22 18.5878 15.1923C18.2813 14.0177 18.986 12.8173 20.1619 12.511C20.7498 12.3578 21.3442 12.4572 21.8299 12.7417" fill="#F54C5A"/>
<path d="M15.481 14.3657C15.2645 14.3657 15.0538 14.2542 14.9364 14.054L13.3424 11.3363C13.1662 11.0358 13.2669 10.6494 13.5674 10.4731C13.8679 10.2969 14.2543 10.3976 14.4306 10.6981L16.0245 13.4158C16.2008 13.7163 16.1 14.1027 15.7995 14.2789C15.6993 14.3378 15.5894 14.3657 15.481 14.3657Z" fill="#81CDA1"/>
<path d="M14.6803 22.3156C14.5047 22.3156 14.3301 22.2428 14.2054 22.1002C13.976 21.8381 14.0026 21.4397 14.2647 21.2102L16.6367 19.1347C16.8988 18.9052 17.2973 18.9317 17.5267 19.194C17.7561 19.4561 17.7295 19.8545 17.4674 20.0839L15.0954 22.1595C14.9758 22.2642 14.8277 22.3156 14.6803 22.3156Z" fill="#81CDA1"/>
<path d="M18.7346 35.4093C18.4588 35.4093 18.2055 35.2271 18.1276 34.9485L17.2785 31.915C17.1847 31.5795 17.3805 31.2315 17.7159 31.1376C18.0512 31.0437 18.3994 31.2395 18.4933 31.575L19.3423 34.6085C19.4362 34.9439 19.2404 35.2919 18.9049 35.3859C18.8481 35.4018 18.7909 35.4093 18.7346 35.4093Z" fill="#81CDA1"/>
<path d="M22.8718 25.81C22.545 25.81 22.2685 25.5578 22.2436 25.2265C22.2174 24.8792 22.4779 24.5764 22.8253 24.5502L25.9698 24.3136C26.318 24.2875 26.6199 24.5479 26.6461 24.8953C26.6722 25.2427 26.4118 25.5454 26.0644 25.5716L22.9199 25.8082C22.9037 25.8094 22.8877 25.81 22.8718 25.81Z" fill="#81CDA1"/>
<path d="M19.7821 28.5968C19.6658 28.5968 19.5482 28.5647 19.4429 28.4973L16.7874 26.7987C16.494 26.611 16.4083 26.221 16.596 25.9276C16.7836 25.6342 17.1737 25.5484 17.4672 25.7362L20.1227 27.4348C20.4161 27.6225 20.5018 28.0125 20.3141 28.3059C20.1937 28.4939 19.9902 28.5968 19.7821 28.5968Z" fill="#81CDA1"/>
<path d="M7.72381 24.7861C7.39693 24.7861 7.12042 24.5339 7.09553 24.2026C7.06938 23.8553 7.32982 23.5525 7.67722 23.5263L10.8217 23.2897C11.1696 23.2638 11.4718 23.5241 11.498 23.8714C11.5242 24.2188 11.2637 24.5215 10.9163 24.5477L7.77183 24.7843C7.75568 24.7854 7.73962 24.7861 7.72381 24.7861Z" fill="#81CDA1"/>
<path d="M29.6475 28.1038C29.5279 28.1038 29.4068 28.0698 29.2995 27.9987C29.0092 27.8062 28.9299 27.4148 29.1224 27.1245L30.8637 24.4983C31.0563 24.2079 31.4476 24.1287 31.738 24.3212C32.0283 24.5137 32.1076 24.9051 31.9151 25.1955L30.1738 27.8215C30.0524 28.0047 29.8519 28.1038 29.6475 28.1038Z" fill="#81CDA1"/>
<path d="M30.9278 11.4039C30.6623 11.4039 30.4152 11.2348 30.3284 10.9688L29.3503 7.97335C29.2422 7.64218 29.423 7.28612 29.7542 7.17797C30.0852 7.06991 30.4414 7.25063 30.5495 7.58171L31.5275 10.5771C31.6356 10.9083 31.4548 11.2643 31.1237 11.3724C31.0587 11.3938 30.9927 11.4039 30.9278 11.4039Z" fill="#81CDA1"/>
<path d="M25.9849 8.80817C27.1522 9.14144 27.8274 10.3587 27.4932 11.5269C27.1591 12.6951 25.9418 13.3721 24.7746 13.0387" fill="#F54C5A"/>
<path d="M31.2148 16.2781C30.7107 15.3876 30.883 14.2364 31.6835 13.5382C32.5983 12.7403 33.9871 12.8361 34.7853 13.7521C35.1844 14.2102 35.3603 14.7866 35.3222 15.3482" fill="#F54C5A"/>
<path d="M22.55 36.0106C22.7123 36.0106 22.7126 35.7583 22.55 35.7583C22.3876 35.7583 22.3873 36.0106 22.55 36.0106Z" fill="#060606"/>
</g>
<defs>
<clipPath id="clip0_78_814">
<rect width="41.7957" height="41.7957" fill="white" transform="translate(9.15527e-05 0.0866699)"/>
</clipPath>
</defs>
</svg>
