<svg width="20" height="20" viewBox="0 0 20 20" fill="none" xmlns="http://www.w3.org/2000/svg">
<g clip-path="url(#clip0_78_331)">
<path d="M17.5365 3.42299H2.46348C2.08584 3.42299 1.77972 3.11688 1.77972 2.73923V0.683761C1.77972 0.306111 2.08584 0 2.46348 0H17.5365C17.9141 0 18.2202 0.306111 18.2202 0.683761V2.73923C18.2202 3.11688 17.9141 3.42299 17.5365 3.42299Z" fill="#6262F4"/>
<path d="M16.2395 1.7088H3.76105V18.8637L5.17904 20L6.81558 18.8637L8.40793 20L10.0003 18.8637L11.5926 20L13.185 18.8637L14.8215 20L16.2395 18.8637V1.7088Z" fill="#DFDEF9"/>
<path d="M13.9231 12.4707H13.3761C13.2581 12.4707 13.1624 12.375 13.1624 12.257C13.1624 12.139 13.2581 12.0433 13.3761 12.0433H13.9231C14.0411 12.0433 14.1367 12.139 14.1367 12.257C14.1367 12.375 14.0411 12.4707 13.9231 12.4707Z" fill="#AC9EF9"/>
<path d="M11.9154 12.4707H5.96654C5.84851 12.4707 5.75287 12.375 5.75287 12.257C5.75287 12.139 5.84851 12.0433 5.96654 12.0433H11.9154C12.0335 12.0433 12.1291 12.139 12.1291 12.257C12.1291 12.375 12.0335 12.4707 11.9154 12.4707Z" fill="#AC9EF9"/>
<path d="M13.9231 14.587H5.96654C5.84851 14.587 5.75287 14.4913 5.75287 14.3733C5.75287 14.2552 5.84851 14.1596 5.96654 14.1596H13.9231C14.0411 14.1596 14.1368 14.2552 14.1368 14.3733C14.1368 14.4913 14.0411 14.587 13.9231 14.587Z" fill="#AC9EF9"/>
<path d="M13.9231 16.7032H13.3761C13.2581 16.7032 13.1624 16.6076 13.1624 16.4896C13.1624 16.3715 13.2581 16.2759 13.3761 16.2759H13.9231C14.0411 16.2759 14.1367 16.3715 14.1367 16.4896C14.1367 16.6076 14.0411 16.7032 13.9231 16.7032Z" fill="#AC9EF9"/>
<path d="M11.9154 16.7032H5.96654C5.84851 16.7032 5.75287 16.6076 5.75287 16.4896C5.75287 16.3715 5.84851 16.2759 5.96654 16.2759H11.9154C12.0335 16.2759 12.1291 16.3715 12.1291 16.4896C12.1291 16.6076 12.0335 16.7032 11.9154 16.7032Z" fill="#AC9EF9"/>
<path d="M5.96655 3.63275H9.66647V6.07818H5.96655V3.63275Z" fill="#AC9EF9"/>
<path d="M14.034 4.03093H11.4921C11.3741 4.03093 11.2784 3.93529 11.2784 3.81725C11.2784 3.69922 11.3741 3.60358 11.4921 3.60358H14.034C14.152 3.60358 14.2477 3.69922 14.2477 3.81725C14.2477 3.93529 14.152 4.03093 14.034 4.03093Z" fill="#AC9EF9"/>
<path d="M14.034 6.10728H11.4921C11.3741 6.10728 11.2784 6.01164 11.2784 5.89361C11.2784 5.77557 11.3741 5.67993 11.4921 5.67993H14.034C14.152 5.67993 14.2477 5.77557 14.2477 5.89361C14.2477 6.01164 14.152 6.10728 14.034 6.10728Z" fill="#AC9EF9"/>
<path d="M13.2872 8.73168V8.03382C13.4282 8.06271 13.5625 8.12493 13.678 8.21531C13.7069 8.23566 13.7408 8.24664 13.7762 8.24715C13.8863 8.24715 13.9768 8.15549 13.978 8.04271C13.9782 7.99309 13.9596 7.94634 13.9241 7.90959C13.7455 7.75288 13.5194 7.65702 13.2852 7.63835V7.41113C13.2852 7.32651 13.2181 7.25766 13.139 7.25766C13.0539 7.24972 12.9765 7.32403 12.9769 7.41113V7.6301C12.5154 7.67241 12.1952 7.97544 12.1952 8.37313C12.1952 8.84912 12.5628 8.99643 12.9769 9.11232V9.91292C12.7889 9.88202 12.6135 9.79993 12.4675 9.6742C12.4344 9.64715 12.3926 9.63172 12.3476 9.63078C12.2398 9.63848 12.1565 9.73121 12.1579 9.84155C12.1577 9.89113 12.1762 9.93792 12.2113 9.97425C12.4231 10.1696 12.6949 10.2846 12.9789 10.2995V10.5092C12.978 10.5943 13.0548 10.6689 13.1372 10.6629C13.2199 10.6629 13.2872 10.5939 13.2872 10.5092V10.2945C13.8707 10.2459 14.0792 9.85856 14.0792 9.50899C14.0792 9.00185 13.6737 8.8401 13.2872 8.73168ZM13.6531 9.55561C13.6531 9.7039 13.5563 9.87412 13.2872 9.91745V9.20677C13.5094 9.27484 13.6549 9.36313 13.6531 9.55561ZM12.9789 8.01655V8.6498C12.7765 8.58728 12.6254 8.52057 12.6254 8.34775C12.6254 8.1701 12.7632 8.04211 12.9789 8.01655Z" fill="#AC9EF9"/>
<path d="M10.5091 10.3457H5.96654C5.84851 10.3457 5.75287 10.25 5.75287 10.132C5.75287 10.014 5.84851 9.91833 5.96654 9.91833H10.5091C10.6271 9.91833 10.7227 10.014 10.7227 10.132C10.7227 10.25 10.6271 10.3457 10.5091 10.3457Z" fill="#AC9EF9"/>
<path d="M10.5091 8.22648H5.96654C5.84851 8.22648 5.75287 8.13084 5.75287 8.01281C5.75287 7.89477 5.84851 7.79913 5.96654 7.79913H10.5091C10.6271 7.79913 10.7227 7.89477 10.7227 8.01281C10.7227 8.13084 10.6271 8.22648 10.5091 8.22648Z" fill="#AC9EF9"/>
</g>
<defs>
<clipPath id="clip0_78_331">
<rect width="20" height="20" fill="white"/>
</clipPath>
</defs>
</svg>
