<svg width="38" height="35" viewBox="0 0 38 35" fill="none" xmlns="http://www.w3.org/2000/svg">
<path d="M35.8776 10.3708V31.6584C35.8776 32.9749 34.8076 34.0455 33.4912 34.0455H2.40527C1.0888 34.0455 0.0187988 32.9749 0.0187988 31.6584V10.3708C0.0187988 9.0543 1.0888 7.99017 2.40527 7.99017H33.4912C34.8076 7.99017 35.8776 9.0543 35.8776 10.3708Z" fill="#C17E48"/>
<path d="M5.01896 31.3981H3.54837C3.06072 31.3981 2.66602 31.0034 2.66602 30.5158V29.0452C2.66602 28.5576 3.06072 28.1628 3.54837 28.1628C4.036 28.1628 4.43072 28.5576 4.43072 29.0452V29.6334H5.01896C5.50659 29.6334 5.90131 30.0281 5.90131 30.5158C5.90131 31.0034 5.50659 31.3981 5.01896 31.3981Z" fill="#BC6F3B"/>
<path d="M3.54837 26.7161C3.06072 26.7161 2.66602 26.3214 2.66602 25.8338V22.6226C2.66602 22.1355 3.06072 21.7402 3.54837 21.7402C4.036 21.7402 4.43072 22.1355 4.43072 22.6226V25.8338C4.43072 26.3214 4.036 26.7161 3.54837 26.7161ZM3.54837 20.2944C3.06072 20.2944 2.66602 19.8997 2.66602 19.412V16.2008C2.66602 15.7132 3.06072 15.3185 3.54837 15.3185C4.036 15.3185 4.43072 15.7132 4.43072 16.2008V19.412C4.43072 19.8997 4.036 20.2944 3.54837 20.2944Z" fill="#BC6F3B"/>
<path d="M3.54837 13.8723C3.06072 13.8723 2.66602 13.4776 2.66602 12.99V11.5194C2.66602 11.0317 3.06072 10.637 3.54837 10.637H5.01896C5.50659 10.637 5.90131 11.0317 5.90131 11.5194C5.90131 12.007 5.50659 12.4017 5.01896 12.4017H4.43072V12.99C4.43072 13.4776 4.036 13.8723 3.54837 13.8723Z" fill="#BC6F3B"/>
<path d="M28.0045 12.4017H25.1309C24.6439 12.4017 24.2486 12.007 24.2486 11.5194C24.2486 11.0317 24.6439 10.637 25.1309 10.637H28.0045C28.4915 10.637 28.8868 11.0317 28.8868 11.5194C28.8868 12.007 28.4915 12.4017 28.0045 12.4017ZM22.258 12.4017H19.3845C18.8974 12.4017 18.5021 12.007 18.5021 11.5194C18.5021 11.0317 18.8974 10.637 19.3845 10.637H22.258C22.7456 10.637 23.1404 11.0317 23.1404 11.5194C23.1404 12.007 22.7456 12.4017 22.258 12.4017ZM16.5115 12.4017H13.6386C13.1509 12.4017 12.7562 12.007 12.7562 11.5194C12.7562 11.0317 13.1509 10.637 13.6386 10.637H16.5115C16.9992 10.637 17.3939 11.0317 17.3939 11.5194C17.3939 12.007 16.9992 12.4017 16.5115 12.4017ZM10.7651 12.4017H7.89212C7.40447 12.4017 7.00977 12.007 7.00977 11.5194C7.00977 11.0317 7.40447 10.637 7.89212 10.637H10.7651C11.2527 10.637 11.6474 11.0317 11.6474 11.5194C11.6474 12.007 11.2527 12.4017 10.7651 12.4017Z" fill="#BC6F3B"/>
<path d="M32.3483 13.8723C31.8606 13.8723 31.4659 13.4776 31.4659 12.99V12.4017H30.8777C30.3901 12.4017 29.9954 12.007 29.9954 11.5194C29.9954 11.0317 30.3901 10.637 30.8777 10.637H32.3483C32.8359 10.637 33.2307 11.0317 33.2307 11.5194V12.99C33.2307 13.4776 32.8359 13.8723 32.3483 13.8723Z" fill="#BC6F3B"/>
<path d="M32.3484 26.7164C31.8608 26.7164 31.4661 26.3217 31.4661 25.834V22.6228C31.4661 22.1358 31.8608 21.7405 32.3484 21.7405C32.8361 21.7405 33.2308 22.1358 33.2308 22.6228V25.834C33.2308 26.3217 32.8361 26.7164 32.3484 26.7164ZM32.3484 20.2946C31.8608 20.2946 31.4661 19.8999 31.4661 19.4122V16.2011C31.4661 15.7134 31.8608 15.3187 32.3484 15.3187C32.8361 15.3187 33.2308 15.7134 33.2308 16.2011V19.4122C33.2308 19.8999 32.8361 20.2946 32.3484 20.2946Z" fill="#BC6F3B"/>
<path d="M32.3483 31.3981H30.8777C30.3901 31.3981 29.9954 31.0034 29.9954 30.5158C29.9954 30.0281 30.3901 29.6334 30.8777 29.6334H31.4659V29.0452C31.4659 28.5576 31.8606 28.1628 32.3483 28.1628C32.8359 28.1628 33.2307 28.5576 33.2307 29.0452V30.5158C33.2307 31.0034 32.8359 31.3981 32.3483 31.3981Z" fill="#BC6F3B"/>
<path d="M28.0049 31.3981H25.1314C24.6444 31.3981 24.2491 31.0034 24.2491 30.5158C24.2491 30.0281 24.6444 29.6334 25.1314 29.6334H28.0049C28.492 29.6334 28.8873 30.0281 28.8873 30.5158C28.8873 31.0034 28.492 31.3981 28.0049 31.3981ZM22.2585 31.3981H19.385C18.8979 31.3981 18.5026 31.0034 18.5026 30.5158C18.5026 30.0281 18.8979 29.6334 19.385 29.6334H22.2585C22.7455 29.6334 23.1408 30.0281 23.1408 30.5158C23.1408 31.0034 22.7455 31.3981 22.2585 31.3981ZM16.512 31.3981H13.6385C13.1514 31.3981 12.7561 31.0034 12.7561 30.5158C12.7561 30.0281 13.1514 29.6334 13.6385 29.6334H16.512C16.9997 29.6334 17.3944 30.0281 17.3944 30.5158C17.3944 31.0034 16.9997 31.3981 16.512 31.3981ZM10.7655 31.3981H7.89261C7.40495 31.3981 7.01025 31.0034 7.01025 30.5158C7.01025 30.0281 7.40495 29.6334 7.89261 29.6334H10.7655C11.2532 29.6334 11.6479 30.0281 11.6479 30.5158C11.6479 31.0034 11.2532 31.3981 10.7655 31.3981Z" fill="#BC6F3B"/>
<path d="M37.6778 18.6382V23.4559C37.6778 24.0853 37.166 24.597 36.5425 24.597H30.5307C28.5719 24.597 26.9836 23.0088 26.9836 21.05C26.9836 20.0676 27.3837 19.1853 28.0248 18.5441C28.666 17.9029 29.5484 17.5029 30.5307 17.5029H36.5425C37.166 17.5029 37.6778 18.0147 37.6778 18.6382Z" fill="#F2C291"/>
<path d="M31.7128 21.1382C31.7128 21.8611 31.1305 22.4441 30.4069 22.4441C29.6893 22.4441 29.1069 21.8611 29.1069 21.1382C29.1069 20.4206 29.6893 19.8382 30.4069 19.8382C31.1305 19.8382 31.7128 20.4206 31.7128 21.1382Z" fill="#2C3033"/>
<path d="M26.6686 10.6123H26.6621C26.3133 11.9647 25.798 13.3871 25.0439 14.8035C24.7745 15.3124 24.4804 15.8212 24.1433 16.33C24.1127 16.3812 24.0757 16.4394 24.0392 16.4906C23.3463 17.5212 22.5127 18.5382 21.5139 19.5041C20.6951 20.2953 19.7669 21.0488 18.7151 21.7565C18.2645 22.06 17.6804 22.0794 17.2233 21.7847C16.5533 21.3524 15.5057 20.6018 14.3668 19.5041C11.458 16.71 7.95156 11.6771 8.58215 3.93235C8.64038 3.21881 9.25097 2.66942 9.96567 2.69588C10.871 2.72999 12.1951 2.66059 13.668 2.19766C14.7939 1.84764 16.0069 1.26177 17.1868 0.318241C17.6427 -0.0464615 18.2745 -0.0835134 18.7651 0.232361C19.1568 0.484724 19.6733 0.795285 20.2816 1.1094C21.5569 1.76589 23.2486 2.44176 25.0439 2.62882C25.3721 2.66411 25.7045 2.68235 26.0386 2.68059C26.7439 2.67707 27.3227 3.23999 27.3604 3.9447C27.368 4.08059 27.3745 4.22647 27.3792 4.38002C27.4221 5.8547 27.3304 8.10118 26.6686 10.6123Z" fill="#4FE88E"/>
<path d="M22.7556 10.9472C22.7556 13.6019 20.6032 15.7543 17.9485 15.7543C15.2932 15.7543 13.1409 13.6019 13.1409 10.9472C13.1409 8.29194 15.2932 6.13959 17.9485 6.13959C20.6032 6.13959 22.7556 8.29194 22.7556 10.9472Z" fill="#3FC977"/>
<path d="M17.1107 13.2298C16.9348 13.2298 16.7583 13.1628 16.6242 13.0281L15.1101 11.5139C14.8412 11.2457 14.8412 10.8098 15.1101 10.541C15.3789 10.2728 15.8148 10.2728 16.083 10.541L17.1107 11.5687L19.813 8.86629C20.0818 8.59747 20.5177 8.59747 20.7865 8.86629C21.0554 9.13511 21.0554 9.57042 20.7865 9.83925L17.5971 13.0281C17.463 13.1628 17.2865 13.2298 17.1107 13.2298Z" fill="white"/>
</svg>
