<svg width="42" height="43" viewBox="0 0 42 43" fill="none" xmlns="http://www.w3.org/2000/svg">
<g clip-path="url(#clip0_78_793)">
<path d="M39.4447 25.6077C39.4447 26.3631 39.1388 27.0462 38.6443 27.5408C38.1489 28.0353 37.4658 28.3412 36.7112 28.3412H5.08456C3.57551 28.3412 2.3511 27.1177 2.3511 25.6077C2.3511 25.2032 2.43861 24.8201 2.59584 24.4751C2.73265 24.1752 2.92131 23.905 3.15151 23.6747C3.64685 23.1801 4.33003 22.8743 5.08456 22.8743H36.7113C37.8168 22.8743 38.7693 23.5302 39.2 24.4751C39.3572 24.8201 39.4447 25.2032 39.4447 25.6077Z" fill="#884D00"/>
<path d="M39.2 24.4751C39.0632 24.7742 38.8737 25.0452 38.6443 25.2746C38.149 25.7692 37.4658 26.075 36.7113 26.075H5.08454C3.97998 26.075 3.0275 25.4191 2.59583 24.4751C2.73264 24.1752 2.92121 23.905 3.1515 23.6747C3.64684 23.1802 4.33002 22.8743 5.08454 22.8743H36.7113C37.8167 22.8742 38.7692 23.5302 39.2 24.4751Z" fill="#AA6100"/>
<path d="M41.7958 30.5477C41.7958 34.0696 40.1652 36.6866 37.5295 38.4225C34.8929 40.1592 31.2512 41.0149 27.2288 41.0149H14.5669C6.52226 41.0149 9.15527e-05 37.5916 9.15527e-05 30.5477C9.15527e-05 30.1551 0.0978052 29.783 0.274539 29.4482C0.424089 29.1627 0.630537 28.9053 0.881229 28.686C1.42506 28.2093 2.17787 27.9145 3.00799 27.9145H38.7879C40.0004 27.9145 41.0456 28.5432 41.5214 29.4482C41.698 29.7831 41.7958 30.1552 41.7958 30.5477Z" fill="#FFA733"/>
<path d="M41.5213 29.4483C40.9537 31.7934 39.5314 33.6201 37.5295 34.9388C34.8929 36.6756 31.2512 37.5312 27.2288 37.5312H14.5669C7.4891 37.5312 1.59069 34.8819 0.274536 29.4483C0.424086 29.1628 0.630534 28.9053 0.881226 28.6861C1.42506 28.2094 2.17787 27.9146 3.00799 27.9146H38.7879C40.0004 27.9146 41.0455 28.5434 41.5213 29.4483Z" fill="#FFB655"/>
<path d="M32.5213 21.7272L25.4502 28.7983C25.2727 28.975 25.0831 29.1314 24.8826 29.2665C23.3855 30.2801 21.3344 30.1247 20.008 28.7983L12.937 21.7272H32.5213Z" fill="#EEBF00"/>
<path d="M32.5213 21.7272L25.4502 28.7983C25.2727 28.975 25.0831 29.1314 24.8826 29.2665C24.3431 29.0829 23.8367 28.7762 23.4067 28.3454L16.7886 21.7272H32.5213Z" fill="#FFD422"/>
<path d="M41.0021 22.7137C41.0021 23.0841 40.941 23.4631 40.8084 23.8327C40.2892 25.2814 38.8992 25.8439 37.8159 25.0435L36.5167 24.0842C35.6101 23.4138 34.4537 23.6883 33.7977 24.73L33.7424 24.8175C33.1128 25.8184 32.015 26.1158 31.1186 25.5295L28.2093 23.6271C27.5381 23.1886 26.7334 23.2362 26.0979 23.7537L23.7664 25.6501C23.0969 26.1948 22.2438 26.2177 21.5564 25.7088L18.8969 23.7375C18.2171 23.2337 17.3743 23.2498 16.7073 23.78L14.2857 25.7029C13.6357 26.2186 12.8183 26.2483 12.1462 25.7819L9.0109 23.6033C8.394 23.1751 7.65058 23.1631 7.0252 23.5719L4.10064 25.4845C2.15314 25.7352 1.2058 24.3052 1.2058 24.3052C0.739356 23.4946 0.692581 22.5336 0.944988 21.7272C1.2449 20.7637 1.97143 20.0211 2.91624 20.0211H38.8806C39.8067 20.0211 40.5468 20.7527 40.851 21.723C40.9495 22.0339 41.0021 22.3696 41.0021 22.7137Z" fill="#6DC82A"/>
<path d="M40.8509 21.723C40.8382 21.7655 40.8238 21.8071 40.8085 21.8496C40.2893 23.2992 38.8993 23.8617 37.8159 23.0613L36.5168 22.1011C35.6102 21.4316 34.4538 21.706 33.7978 22.7469L33.7425 22.8353C33.1129 23.8362 32.0151 24.1335 31.1187 23.5473L28.2094 21.6448C27.5381 21.2056 26.7335 21.254 26.098 21.7714L23.7665 23.6679C23.0969 24.2126 22.2439 24.2347 21.5564 23.7257L18.8969 21.7545C18.2172 21.2506 17.3743 21.2676 16.7073 21.7969L14.2857 23.7206C13.6357 24.2355 12.8183 24.266 12.1462 23.7996L9.01089 21.621C8.39399 21.1919 7.65057 21.18 7.02519 21.5896L4.10063 23.5013C2.15313 23.7528 1.20579 22.322 1.20579 22.322C1.09616 22.1308 1.00955 21.9311 0.944977 21.7272C1.24489 20.7637 1.97142 20.021 2.91623 20.021H38.8806C39.8066 20.0211 40.5467 20.7527 40.8509 21.723Z" fill="#7ED63E"/>
<path d="M40.2765 18.2724C40.2824 18.5554 40.2451 18.8281 40.172 19.0856C39.8432 20.2309 38.7878 21.0687 37.5372 21.0687C32.626 21.0687 19.5452 20.9583 17.5723 21.0237C17.5281 21.0254 17.484 21.0271 17.4406 21.0279C14.9494 21.1222 14.3818 21.5215 14.3818 22.8496V27.7089C14.3818 27.9587 14.2806 28.1856 14.1167 28.3496C13.9527 28.5136 13.7267 28.6146 13.4769 28.6146C12.9764 28.6146 12.5711 29.0199 12.5711 29.5204V31.637C12.5711 31.8519 12.5456 32.0602 12.4963 32.2607C12.2168 33.418 11.1725 34.277 9.91839 34.277H9.85129C8.4255 34.277 7.27163 33.1189 7.27587 31.6931L7.28779 27.8619C7.28861 27.568 7.40844 27.3011 7.60134 27.1091C7.79505 26.9162 8.06101 26.7973 8.35587 26.7973C8.94558 26.7973 9.42394 26.3189 9.42394 25.7292V22.8496C9.42394 21.8657 8.62697 21.0687 7.64305 21.0687H4.3105C2.81084 21.0687 1.54905 19.8851 1.51844 18.3855C1.48783 16.8467 2.72668 15.5892 4.25867 15.5892H37.4828C38.9833 15.5892 40.2468 16.7728 40.2765 18.2724Z" fill="#FF3501"/>
<path d="M40.2765 18.2724C40.2824 18.5554 40.2451 18.8281 40.172 19.0856C34.9728 19.0805 22.5497 18.9776 20.6311 19.0405C18.0277 19.1263 17.4406 19.5163 17.4406 20.8673V21.0279C14.9494 21.1222 14.3818 21.5215 14.3818 22.8496V27.7089C14.3818 27.9587 14.2806 28.1856 14.1167 28.3496C13.9527 28.5136 13.7267 28.6146 13.4769 28.6146C12.9764 28.6146 12.5711 29.0199 12.5711 29.5204V31.637C12.5711 31.8519 12.5456 32.0602 12.4963 32.2607C11.2677 32.0627 10.3305 30.9946 10.3347 29.7099L10.3466 25.8796C10.3474 25.5847 10.4673 25.3187 10.6602 25.1267C10.8539 24.9339 11.1198 24.8149 11.4147 24.8149C12.0044 24.8149 12.4828 24.3365 12.4828 23.7468V20.8673C12.4828 19.8834 11.6858 19.0864 10.7019 19.0864H7.36934C5.86968 19.0864 4.60789 17.9028 4.57728 16.4031C4.57132 16.1202 4.60871 15.8475 4.68266 15.5892H37.4828C38.9833 15.5892 40.2468 16.7728 40.2765 18.2724Z" fill="#FF5023"/>
<path d="M24.6017 12.8039L18.5392 18.8689C17.9317 19.4764 17.2153 19.9089 16.4523 20.1647C14.5711 20.8003 12.4096 20.3678 10.9124 18.8689L4.8475 12.8039H24.6017Z" fill="#EEBF00"/>
<path d="M24.6016 12.8039L18.5392 18.8689C17.9316 19.4764 17.2153 19.9089 16.4523 20.1647C15.6901 19.9089 14.9739 19.4764 14.3672 18.8689L8.30215 12.8039H24.6016Z" fill="#FFD422"/>
<path d="M41.7958 13.657C41.7958 13.7021 41.794 13.7463 41.7915 13.7904C41.7584 14.3605 41.5136 14.8746 41.1347 15.2536C40.726 15.6623 40.1618 15.9147 39.5381 15.9147H2.25771C1.01119 15.9146 9.15527e-05 14.9035 9.15527e-05 13.657C9.15527e-05 10.9517 1.25421 8.91494 3.14815 7.38295C4.68521 6.13904 6.64454 5.22729 8.69571 4.55864C14.4345 2.69025 20.8979 2.72502 20.8979 2.72502C20.8979 2.72502 41.7958 2.61204 41.7958 13.657Z" fill="#FFA733"/>
<path d="M41.7958 13.657C41.7958 13.7021 41.7941 13.7463 41.7915 13.7904H6.84594C5.5995 13.7904 4.58832 12.7793 4.58832 11.5328C4.58832 8.82743 5.84243 6.79071 7.73638 5.2588C8.04054 5.01235 8.36087 4.77962 8.69564 4.55864C14.4345 2.69025 20.8979 2.72502 20.8979 2.72502C20.8979 2.72502 41.7958 2.61204 41.7958 13.657Z" fill="#FFB655"/>
<path d="M32.1305 6.67451C32.4929 7.05801 32.4757 7.66266 32.0923 8.02511C31.7088 8.38748 31.1041 8.37033 30.7418 7.98691C30.3794 7.60348 29.7124 6.27475 30.0959 5.91231C30.4794 5.54986 31.7681 6.29092 32.1305 6.67451Z" fill="#FFF5CC"/>
<path d="M27.0664 11.3961C27.2556 11.8886 27.0096 12.4413 26.5171 12.6304C26.0245 12.8196 25.4718 12.5736 25.2827 12.081C25.0936 11.5885 24.9825 10.1059 25.4749 9.91681C25.9675 9.72775 26.8773 10.9035 27.0664 11.3961Z" fill="#FFF5CC"/>
<path d="M21.8532 7.46668C21.8532 7.99435 21.4255 8.42202 20.8979 8.42202C20.3702 8.42202 19.9426 7.99426 19.9426 7.46668C19.9426 6.93901 20.3703 5.51526 20.8979 5.51526C21.4256 5.51518 21.8532 6.93901 21.8532 7.46668Z" fill="#FFF5CC"/>
<path d="M16.6003 11.9947C16.4684 12.5056 15.9472 12.8128 15.4364 12.6808C14.9255 12.5489 14.6184 12.0278 14.7503 11.5169C14.8822 11.0061 15.6524 9.73449 16.1633 9.86641C16.6742 9.99833 16.7322 11.484 16.6003 11.9947Z" fill="#FFF5CC"/>
<path d="M11.3444 7.83326C11.1144 8.30803 10.543 8.50656 10.0681 8.27652C9.59333 8.04648 9.3948 7.47514 9.62484 7.0002C9.85488 6.52543 10.8605 5.43041 11.3354 5.66054C11.8103 5.89066 11.5745 7.35849 11.3444 7.83326Z" fill="#FFF5CC"/>
</g>
<defs>
<clipPath id="clip0_78_793">
<rect width="41.7957" height="41.7957" fill="white" transform="translate(9.15527e-05 0.972107)"/>
</clipPath>
</defs>
</svg>
