<svg width="20" height="20" viewBox="0 0 20 20" fill="none" xmlns="http://www.w3.org/2000/svg">
<path d="M17.931 11.0345C17.931 11.1483 17.9276 11.2655 17.9241 11.3793C17.8755 12.7187 17.5242 14.0296 16.8966 15.2138C16.7905 15.4183 16.6743 15.6174 16.5483 15.8103C15.8367 16.946 14.8771 17.9057 13.7414 18.6172C13.5485 18.7432 13.3494 18.8595 13.1448 18.9655C11.9607 19.5932 10.6497 19.9445 9.31034 19.9931C9.19655 19.9966 9.07931 20 8.96552 20C8.85172 20 8.73448 19.9966 8.62069 19.9931C7.28133 19.9445 5.97038 19.5932 4.78621 18.9655C4.58276 18.8586 4.38276 18.7448 4.18966 18.6207C3.05434 17.9061 2.09394 16.9457 1.37931 15.8103C1.25517 15.6172 1.14138 15.4172 1.03448 15.2138C0.406804 14.0296 0.0554862 12.7187 0.00689655 11.3793C0.00344828 11.2655 0 11.1483 0 11.0345C0 10.9207 0.00344828 10.8035 0.00689655 10.6897C0.0554862 9.3503 0.406804 8.03935 1.03448 6.85518C1.14138 6.64828 1.25517 6.45173 1.37931 6.25863C2.09309 5.12356 3.05371 4.16412 4.18966 3.45173C4.38256 3.32574 4.58166 3.20951 4.78621 3.10345C5.97038 2.47577 7.28133 2.12446 8.62069 2.07587C8.73448 2.07242 8.85172 2.06897 8.96552 2.06897C9.07931 2.06897 9.19655 2.07242 9.31034 2.07587C9.89726 2.09966 10.4805 2.1805 11.0517 2.31725L17.6828 8.94828C17.8195 9.51954 17.9003 10.1027 17.9241 10.6897C17.9276 10.8035 17.931 10.9207 17.931 11.0345Z" fill="#F29C1F"/>
<path d="M15.369 9.64828C15.9839 12.4888 14.654 15.3948 12.1026 16.7864C9.5511 18.1779 6.38786 17.7223 4.33282 15.6672C2.27778 13.6122 1.82215 10.4489 3.21368 7.89746C4.60521 5.34599 7.51128 4.01616 10.3518 4.63104L15.369 9.64828Z" fill="#F0C419"/>
<path d="M8.96557 10.6897C8.2038 10.6897 7.58626 10.0721 7.58626 9.31036C7.58626 8.54859 8.2038 7.93105 8.96557 7.93105C9.72734 7.93105 10.3449 8.54859 10.3449 9.31036C10.3449 9.5008 10.4993 9.65519 10.6897 9.65519C10.8802 9.65519 11.0345 9.5008 11.0345 9.31036C11.0327 8.30187 10.3046 7.44135 9.3104 7.27243V6.55174C9.3104 6.36129 9.15601 6.20691 8.96557 6.20691C8.77513 6.20691 8.62074 6.36129 8.62074 6.55174V7.27243C7.56584 7.45712 6.82624 8.41631 6.91584 9.4835C7.00545 10.5507 7.89464 11.3731 8.96557 11.3793C9.72734 11.3793 10.3449 11.9969 10.3449 12.7586C10.3449 13.5204 9.72734 14.1379 8.96557 14.1379C8.2038 14.1379 7.58626 13.5204 7.58626 12.7586C7.58626 12.5682 7.43188 12.4138 7.24143 12.4138C7.05099 12.4138 6.89661 12.5682 6.89661 12.7586C6.89848 13.7671 7.6265 14.6276 8.62074 14.7966V15.5173C8.62074 15.7077 8.77513 15.8621 8.96557 15.8621C9.15601 15.8621 9.3104 15.7077 9.3104 15.5173V14.7966C10.3653 14.6119 11.1049 13.6527 11.0153 12.5855C10.9257 11.5183 10.0365 10.6959 8.96557 10.6897Z" fill="#E57E25"/>
<path d="M9.31038 2.07587V3.10345C9.31038 3.2939 9.156 3.44828 8.96556 3.44828C8.77511 3.44828 8.62073 3.2939 8.62073 3.10345V2.07587C8.73452 2.07242 8.85176 2.06897 8.96556 2.06897C9.07935 2.06897 9.19659 2.07242 9.31038 2.07587Z" fill="#E57E25"/>
<path d="M5.17246 4.46552C5.00653 4.55882 4.79644 4.50209 4.70004 4.33794L4.1897 3.45173C4.38261 3.32575 4.58171 3.20951 4.78625 3.10345L5.30004 3.99311C5.39394 4.15896 5.33708 4.36949 5.17246 4.46552Z" fill="#E57E25"/>
<path d="M2.39649 7.24143C2.30009 7.40557 2.09001 7.46231 1.92408 7.36901L1.03442 6.85522C1.14132 6.64832 1.25511 6.45177 1.37925 6.25867L2.26891 6.76901C2.43353 6.86505 2.49039 7.07557 2.39649 7.24143Z" fill="#E57E25"/>
<path d="M1.37931 11.0345C1.37931 11.225 1.22493 11.3794 1.03448 11.3794H0.00689655C0.00344828 11.2656 0 11.1483 0 11.0345C0 10.9207 0.00344828 10.8035 0.00689655 10.6897H1.03448C1.22493 10.6897 1.37931 10.8441 1.37931 11.0345Z" fill="#E57E25"/>
<path d="M2.26891 15.3L1.37925 15.8103C1.25511 15.6172 1.14132 15.4172 1.03442 15.2138L1.92408 14.7C2.08976 14.6048 2.30127 14.6619 2.39649 14.8276C2.49171 14.9933 2.43459 15.2048 2.26891 15.3Z" fill="#E57E25"/>
<path d="M5.30004 18.0759L4.78625 18.9655C4.5828 18.8586 4.3828 18.7448 4.1897 18.6207L4.70004 17.731C4.79526 17.5653 5.00677 17.5082 5.17246 17.6034C5.33814 17.6987 5.39526 17.9102 5.30004 18.0759Z" fill="#E57E25"/>
<path d="M9.31038 18.9656V19.9931C9.19659 19.9966 9.07935 20 8.96556 20C8.85176 20 8.73452 19.9966 8.62073 19.9931V18.9656C8.62073 18.7751 8.77511 18.6207 8.96556 18.6207C9.156 18.6207 9.31038 18.7751 9.31038 18.9656Z" fill="#E57E25"/>
<path d="M13.7414 18.6172C13.5485 18.7432 13.3494 18.8595 13.1448 18.9655L12.631 18.0759C12.5358 17.9102 12.5929 17.6987 12.7586 17.6034C12.9243 17.5082 13.1358 17.5653 13.231 17.731L13.7414 18.6172Z" fill="#E57E25"/>
<path d="M16.8966 15.2137C16.7906 15.4183 16.6743 15.6174 16.5483 15.8103L15.6621 15.2999C15.5549 15.2383 15.4888 15.1242 15.4885 15.0006C15.4883 14.877 15.554 14.7627 15.6609 14.7006C15.7679 14.6386 15.8998 14.6383 16.007 14.6999L16.8966 15.2137Z" fill="#E57E25"/>
<path d="M17.9311 11.0345C17.9311 11.1483 17.9276 11.2656 17.9242 11.3794H16.8966C16.7061 11.3794 16.5518 11.225 16.5518 11.0345C16.5518 10.8441 16.7061 10.6897 16.8966 10.6897H17.9242C17.9276 10.8035 17.9311 10.9207 17.9311 11.0345Z" fill="#E57E25"/>
<path d="M15.1724 9.65517C17.8386 9.65517 20 7.49379 20 4.82759C20 2.16138 17.8386 0 15.1724 0C12.5062 0 10.3448 2.16138 10.3448 4.82759C10.3448 7.49379 12.5062 9.65517 15.1724 9.65517Z" fill="#4FBA6F"/>
<path d="M14.1379 7.5862C13.9549 7.58654 13.7794 7.5138 13.6503 7.38413L12.271 6.00482C12.0917 5.83167 12.0198 5.57525 12.0829 5.33413C12.146 5.093 12.3343 4.9047 12.5755 4.84158C12.8166 4.77847 13.073 4.85037 13.2462 5.02965L14.1379 5.92137L17.0986 2.96068C17.2717 2.7814 17.5281 2.7095 17.7693 2.77262C18.0104 2.83573 18.1987 3.02404 18.2618 3.26516C18.3249 3.50628 18.253 3.7627 18.0737 3.93586L14.6255 7.38413C14.4964 7.5138 14.3209 7.58654 14.1379 7.5862Z" fill="#ECF0F1"/>
</svg>
