<svg width="47" height="46" viewBox="0 0 47 46" fill="none" xmlns="http://www.w3.org/2000/svg">
<path d="M38.2471 12.0942V24.5942H39.8096V12.0942C39.8077 11.4732 39.5602 10.8781 39.1211 10.439C38.6819 9.99987 38.0869 9.75234 37.4658 9.75049H32.7783V11.313H37.4658C37.673 11.313 37.8717 11.3953 38.0182 11.5418C38.1648 11.6883 38.2471 11.887 38.2471 12.0942Z" fill="#FF5023"/>
<path d="M8.55957 12.0942C8.55957 11.887 8.64188 11.6883 8.78839 11.5418C8.93491 11.3953 9.13362 11.313 9.34082 11.313H14.0283V9.75049H9.34082C8.71979 9.75234 8.12472 9.99987 7.68559 10.439C7.24645 10.8781 6.99893 11.4732 6.99707 12.0942V24.5942H8.55957V12.0942Z" fill="#FF5023"/>
<path d="M0.74707 41.0005V44.1255C0.74707 44.5399 0.91169 44.9373 1.20472 45.2303C1.49774 45.5234 1.89517 45.688 2.30957 45.688H13.2471C13.6615 45.688 14.0589 45.5234 14.3519 45.2303C14.6449 44.9373 14.8096 44.5399 14.8096 44.1255V41.0005H0.74707Z" fill="#6D6E71"/>
<path d="M13.2471 23.813H2.30957C1.89517 23.813 1.49774 23.9776 1.20472 24.2706C0.91169 24.5637 0.74707 24.9611 0.74707 25.3755V41.0005H14.8096V25.3755C14.8096 24.9611 14.6449 24.5637 14.3519 24.2706C14.0589 23.9776 13.6615 23.813 13.2471 23.813Z" fill="#2488FF"/>
<path d="M19.4971 41.0005H17.9346V44.1255C17.9346 44.5399 18.0992 44.9373 18.3922 45.2303C18.6852 45.5234 19.0827 45.688 19.4971 45.688H44.4971C44.9115 45.688 45.3089 45.5234 45.6019 45.2303C45.895 44.9373 46.0596 44.5399 46.0596 44.1255V41.0005H19.4971Z" fill="#808285"/>
<path d="M44.4971 25.3755V41.0005H19.4971V25.3755C19.4983 24.9615 19.6633 24.5648 19.9561 24.272C20.2488 23.9792 20.6455 23.8142 21.0596 23.813H42.9346C43.3486 23.8142 43.7453 23.9792 44.0381 24.272C44.3308 24.5648 44.4958 24.9615 44.4971 25.3755Z" fill="#2488FF"/>
<path d="M28.8721 41.0005H44.4971V25.3755C44.4971 29.5195 42.8509 33.4938 39.9206 36.424C36.9904 39.3543 33.0161 41.0005 28.8721 41.0005Z" fill="#006DF0"/>
<path d="M28.8721 41.7817C28.8721 42.1961 29.0367 42.5936 29.3297 42.8866C29.6227 43.1796 30.0202 43.3442 30.4346 43.3442H33.5596C33.974 43.3442 34.3714 43.1796 34.6644 42.8866C34.9575 42.5936 35.1221 42.1961 35.1221 41.7817V41.0005H28.8721V41.7817Z" fill="#6D6E71"/>
<path d="M23.4033 20.688C29.0125 20.688 33.5596 16.1409 33.5596 10.5317C33.5596 4.9226 29.0125 0.375488 23.4033 0.375488C17.7942 0.375488 13.2471 4.9226 13.2471 10.5317C13.2471 16.1409 17.7942 20.688 23.4033 20.688Z" fill="#FFCD00"/>
<path d="M27.8174 12.0942C27.7698 12.251 27.707 12.4028 27.6299 12.5474L29.4814 14.3989L27.2705 16.6099L25.4189 14.7583C25.2744 14.8354 25.1226 14.8982 24.9658 14.9458V17.563H21.8408V14.9458C21.684 14.8982 21.5323 14.8354 21.3877 14.7583L19.5361 16.6099L17.3252 14.3989L19.1768 12.5474C19.0997 12.4028 19.0369 12.251 18.9893 12.0942H16.3721V8.96924H18.9893C19.0369 8.81246 19.0997 8.66071 19.1768 8.51611L17.3252 6.66455L19.5361 4.45361L21.3877 6.30518C21.5323 6.2281 21.684 6.16531 21.8408 6.11768V3.50049H24.9658V6.11768C25.1226 6.16531 25.2744 6.2281 25.4189 6.30518L27.2705 4.45361L29.4814 6.66455L27.6299 8.51611C27.707 8.66071 27.7698 8.81246 27.8174 8.96924H30.4346V12.0942H27.8174Z" fill="#ED1C24"/>
<path d="M23.4033 12.8755C24.6977 12.8755 25.7471 11.8262 25.7471 10.5317C25.7471 9.23732 24.6977 8.18799 23.4033 8.18799C22.1089 8.18799 21.0596 9.23732 21.0596 10.5317C21.0596 11.8262 22.1089 12.8755 23.4033 12.8755Z" fill="#F1F2F2"/>
<path d="M31.9971 38.6567C35.4489 38.6567 38.2471 35.8585 38.2471 32.4067C38.2471 28.955 35.4489 26.1567 31.9971 26.1567C28.5453 26.1567 25.7471 28.955 25.7471 32.4067C25.7471 35.8585 28.5453 38.6567 31.9971 38.6567Z" fill="#FF9811"/>
<path d="M31.2158 27.7192V28.5786C29.8557 28.8341 28.8721 29.7325 28.8721 30.8442C28.8721 32.1583 30.2447 33.188 31.9971 33.188C32.951 33.188 33.5596 33.6505 33.5596 33.9692C33.5596 34.288 32.951 34.7505 31.9971 34.7505C31.0432 34.7505 30.4346 34.288 30.4346 33.9692C30.4346 33.762 30.3523 33.5633 30.2057 33.4168C30.0592 33.2703 29.8605 33.188 29.6533 33.188C29.4461 33.188 29.2474 33.2703 29.1009 33.4168C28.9544 33.5633 28.8721 33.762 28.8721 33.9692C28.8721 35.0794 29.8557 35.9778 31.2158 36.2349V37.0942C31.2158 37.3014 31.2981 37.5002 31.4446 37.6467C31.5912 37.7932 31.7899 37.8755 31.9971 37.8755C32.2043 37.8755 32.403 37.7932 32.5495 37.6467C32.696 37.5002 32.7783 37.3014 32.7783 37.0942V36.2349C34.1385 35.9794 35.1221 35.081 35.1221 33.9692C35.1221 32.6552 33.7494 31.6255 31.9971 31.6255C31.0432 31.6255 30.4346 31.163 30.4346 30.8442C30.4346 30.5255 31.0432 30.063 31.9971 30.063C32.951 30.063 33.5596 30.5255 33.5596 30.8442C33.5596 31.0514 33.6419 31.2502 33.7884 31.3967C33.9349 31.5432 34.1336 31.6255 34.3408 31.6255C34.548 31.6255 34.7467 31.5432 34.8932 31.3967C35.0398 31.2502 35.1221 31.0514 35.1221 30.8442C35.1221 29.7341 34.1385 28.8356 32.7783 28.5786V27.7192C32.7783 27.512 32.696 27.3133 32.5495 27.1668C32.403 27.0203 32.2043 26.938 31.9971 26.938C31.7899 26.938 31.5912 27.0203 31.4446 27.1668C31.2981 27.3133 31.2158 27.512 31.2158 27.7192Z" fill="#F1F2F2"/>
<path d="M6.99707 27.7192V28.5786C5.63691 28.8341 4.65332 29.7325 4.65332 30.8442C4.65332 32.1583 6.02598 33.188 7.77832 33.188C8.73223 33.188 9.34082 33.6505 9.34082 33.9692C9.34082 34.288 8.73223 34.7505 7.77832 34.7505C6.82441 34.7505 6.21582 34.288 6.21582 33.9692C6.21582 33.762 6.13351 33.5633 5.987 33.4168C5.84048 33.2703 5.64177 33.188 5.43457 33.188C5.22737 33.188 5.02866 33.2703 4.88214 33.4168C4.73563 33.5633 4.65332 33.762 4.65332 33.9692C4.65332 35.0794 5.63691 35.9778 6.99707 36.2349V37.0942C6.99707 37.3014 7.07938 37.5002 7.22589 37.6467C7.37241 37.7932 7.57112 37.8755 7.77832 37.8755C7.98552 37.8755 8.18423 37.7932 8.33075 37.6467C8.47726 37.5002 8.55957 37.3014 8.55957 37.0942V36.2349C9.91973 35.9794 10.9033 35.081 10.9033 33.9692C10.9033 32.6552 9.53066 31.6255 7.77832 31.6255C6.82441 31.6255 6.21582 31.163 6.21582 30.8442C6.21582 30.5255 6.82441 30.063 7.77832 30.063C8.73223 30.063 9.34082 30.5255 9.34082 30.8442C9.34082 31.0514 9.42313 31.2502 9.56964 31.3967C9.71616 31.5432 9.91487 31.6255 10.1221 31.6255C10.3293 31.6255 10.528 31.5432 10.6745 31.3967C10.821 31.2502 10.9033 31.0514 10.9033 30.8442C10.9033 29.7341 9.91973 28.8356 8.55957 28.5786V27.7192C8.55957 27.512 8.47726 27.3133 8.33075 27.1668C8.18423 27.0203 7.98552 26.938 7.77832 26.938C7.57112 26.938 7.37241 27.0203 7.22589 27.1668C7.07938 27.3133 6.99707 27.512 6.99707 27.7192Z" fill="#F1F2F2"/>
<path d="M8.55957 42.563H6.99707C6.78987 42.563 6.59116 42.6453 6.44464 42.7918C6.29813 42.9383 6.21582 43.137 6.21582 43.3442C6.21582 43.5514 6.29813 43.7502 6.44464 43.8967C6.59116 44.0432 6.78987 44.1255 6.99707 44.1255H8.55957C8.76677 44.1255 8.96548 44.0432 9.112 43.8967C9.25851 43.7502 9.34082 43.5514 9.34082 43.3442C9.34082 43.137 9.25851 42.9383 9.112 42.7918C8.96548 42.6453 8.76677 42.563 8.55957 42.563Z" fill="#F1F2F2"/>
</svg>
