<svg width="23" height="23" viewBox="0 0 23 23" fill="none" xmlns="http://www.w3.org/2000/svg">
<g clip-path="url(#clip0_4_423)">
<path fill-rule="evenodd" clip-rule="evenodd" d="M13.175 0.663574H9.7C5.8409 0.663574 3.91135 0.663574 2.55869 1.64634C2.12183 1.96373 1.73766 2.34791 1.42027 2.78476C0.4375 4.13743 0.4375 6.06698 0.4375 9.92607V13.4011C0.4375 17.2602 0.4375 19.1897 1.42027 20.5424C1.73766 20.9792 2.12183 21.3634 2.55869 21.6808C3.91135 22.6636 5.8409 22.6636 9.7 22.6636H13.175C17.0341 22.6636 18.9636 22.6636 20.3163 21.6808C20.7532 21.3634 21.1373 20.9792 21.4547 20.5424C22.4375 19.1897 22.4375 17.2602 22.4375 13.4011V9.92607C22.4375 6.06698 22.4375 4.13743 21.4547 2.78476C21.1373 2.34791 20.7532 1.96373 20.3163 1.64634C18.9636 0.663574 17.0341 0.663574 13.175 0.663574ZM15.9496 11.6639C15.9496 14.1563 13.9292 16.1767 11.4368 16.1767C8.94446 16.1767 6.924 14.1563 6.924 11.6639C6.924 9.17155 8.94446 7.15109 11.4368 7.15109C13.9292 7.15109 15.9496 9.17155 15.9496 11.6639ZM17.6426 6.58682C18.2657 6.58682 18.7708 6.08171 18.7708 5.45862C18.7708 4.83553 18.2657 4.33041 17.6426 4.33041C17.0195 4.33041 16.5144 4.83553 16.5144 5.45862C16.5144 6.08171 17.0195 6.58682 17.6426 6.58682Z" fill="white"/>
</g>
<defs>
<clipPath id="clip0_4_423">
<rect width="23" height="23" fill="white"/>
</clipPath>
</defs>
</svg>
