<svg width="14" height="15" viewBox="0 0 14 15" fill="none" xmlns="http://www.w3.org/2000/svg">
<g clip-path="url(#clip0_4_417)">
<path d="M13.497 14.2499L13.5003 14.2493V9.29819C13.5003 6.87607 12.9789 5.01025 10.1473 5.01025C8.78602 5.01025 7.87252 5.75725 7.49958 6.46544H7.4602V5.23638H4.77539V14.2493H7.57102V9.78644C7.57102 8.61138 7.79377 7.47513 9.24895 7.47513C10.6828 7.47513 10.7041 8.81613 10.7041 9.86182V14.2499H13.497Z" fill="white"/>
<path d="M0.222656 5.2373H3.02166V14.2502H0.222656V5.2373Z" fill="white"/>
<path d="M1.62112 0.75C0.726188 0.75 0 1.47619 0 2.37112C0 3.26606 0.726188 4.00744 1.62112 4.00744C2.51606 4.00744 3.24225 3.26606 3.24225 2.37112C3.24169 1.47619 2.5155 0.75 1.62112 0.75Z" fill="white"/>
</g>
<defs>
<clipPath id="clip0_4_417">
<rect width="14" height="15" fill="white"/>
</clipPath>
</defs>
</svg>
