<svg width="174" height="50" viewBox="0 0 174 50" fill="none" xmlns="http://www.w3.org/2000/svg">
<path d="M76.7039 5.98853H67.787V0H92.9914V5.98853H84.0744V22.7038H76.7039V5.98853Z" fill="white"/>
<path d="M95.6896 0.00488281H103.06V22.7087H95.6896V0.00488281Z" fill="white"/>
<path d="M107.403 0.00488281H123.855C126.751 0.00488281 128.899 0.709973 130.305 2.12485C131.71 3.53972 132.41 5.51867 132.41 8.06638C132.41 10.6141 131.71 12.7058 130.305 14.1536C128.899 15.6014 126.751 16.3253 123.855 16.3253H114.774V22.7087H107.403V0.00488281ZM124.941 8.52703V7.70442C124.941 7.15446 124.763 6.68441 124.401 6.28956C124.039 5.89471 123.484 5.69729 122.737 5.69729H114.774V10.6329H122.737C123.526 10.6329 124.09 10.4402 124.429 10.0547C124.767 9.66926 124.937 9.1616 124.937 8.52703H124.941Z" fill="white"/>
<path d="M68.0173 43.1511C67.9938 41.8349 68.3557 40.6645 69.1031 39.6444C69.8505 38.6244 71.209 37.783 73.1832 37.1296C72.37 36.448 71.759 35.7476 71.3406 35.0238C70.9223 34.2999 70.7154 33.435 70.7154 32.4243C70.7154 30.624 71.4675 29.1575 72.967 28.0152C74.4712 26.873 76.9766 26.3042 80.4879 26.3042C83.9992 26.3042 86.4341 26.8683 87.9242 27.9964C89.4143 29.1245 90.1617 30.5676 90.1617 32.3256C90.1617 33.5995 89.6775 34.7135 88.7139 35.663C87.7503 36.6173 86.1568 37.4681 83.9429 38.2155L88.2862 41.1439C88.5071 40.7256 88.6857 40.2649 88.8267 39.7619C88.9677 39.259 89.0759 38.7184 89.1417 38.1496H95.3934C95.3041 39.3765 95.0738 40.514 94.7024 41.5576C94.3311 42.6011 93.8376 43.5365 93.2218 44.3685C93.5743 44.5424 93.9598 44.6646 94.3875 44.7305C94.8153 44.7963 95.3276 44.8292 95.9152 44.8292H96.9352V49.5015H94.9939C93.7436 49.5015 92.6436 49.384 91.6847 49.1584C90.7305 48.9281 89.8468 48.5144 89.0383 47.9268C87.7221 48.6084 86.2508 49.1208 84.6291 49.4733C83.0074 49.8259 81.3058 49.9998 79.529 49.9998C77.3338 49.9998 75.4912 49.8118 74.0011 49.4404C72.511 49.0691 71.3265 48.5755 70.4475 47.9597C69.5685 47.344 68.9433 46.6201 68.572 45.7881C68.2006 44.9561 68.0126 44.0771 68.0126 43.1558L68.0173 43.1511ZM75.0588 42.822C75.0588 43.5694 75.463 44.1523 76.2762 44.5847C77.0894 45.0125 78.3586 45.224 80.0931 45.224C80.8405 45.224 81.5503 45.177 82.2318 45.0783C82.9134 44.9796 83.5386 44.8339 84.1074 44.6364L77.2962 40.0957C76.483 40.3589 75.9096 40.6833 75.5711 41.064C75.2327 41.4494 75.0635 41.9054 75.0635 42.4319V42.8267L75.0588 42.822ZM77.2633 32.7205C77.2633 33.2234 77.489 33.6982 77.9355 34.1354C78.3868 34.5725 79.0167 35.0332 79.8299 35.5173C81.1225 35.1648 82.0767 34.7605 82.6925 34.2999C83.3083 33.8392 83.6138 33.3128 83.6138 32.7205V32.4243C83.6138 31.9214 83.3271 31.5406 82.7583 31.2868C82.1895 31.033 81.4327 30.9108 80.4879 30.9108C79.5431 30.9108 78.744 31.0377 78.1517 31.2868C77.5595 31.5406 77.2633 31.9167 77.2633 32.4243V32.7205Z" fill="white"/>
<path d="M103.948 32.782H95.0315V26.7935H120.236V32.782H111.319V49.4972H103.948V32.782Z" fill="white"/>
<path d="M126.685 26.7979H136.787L146.428 49.5016H138.761L136.885 45.0267H125.797L123.921 49.5016H117.011L126.685 26.7979ZM128.001 39.762H134.714L131.358 31.7006L128.001 39.762Z" fill="white"/>
<path d="M148.501 26.7979H164.953C167.848 26.7979 169.996 27.5029 171.402 28.9178C172.807 30.3327 173.508 32.3116 173.508 34.8593C173.508 37.4071 172.807 39.4988 171.402 40.9466C169.996 42.3944 167.848 43.1182 164.953 43.1182H155.871V49.5016H148.501V26.7979ZM166.038 35.32V34.4974C166.038 33.9474 165.86 33.4774 165.498 33.0825C165.136 32.6877 164.581 32.4903 163.834 32.4903H155.871V37.4259H163.834C164.623 37.4259 165.188 37.2331 165.526 36.8477C165.864 36.4622 166.034 35.9546 166.034 35.32H166.038Z" fill="white"/>
<path d="M57.0461 0.00488281V15.2066H32.9369L35.0428 13.6083L37.3319 9.65516C37.7456 9.11459 37.0734 8.2685 36.4905 8.62575C36.4905 8.62575 32.3352 11.5777 30.2388 12.8751C28.1423 14.1724 25.8578 15.2066 25.8578 15.2066H7.5491V0.00488281H57.0461Z" fill="#FFC931"/>
<path d="M57.2859 0.00488281V49.5019H42.0795V39.6354C42.0795 38.136 42.4838 36.6647 43.2547 35.3767L45.4687 31.6727L48.3548 26.4409C48.9142 25.1859 47.2549 24.1376 46.3618 25.1859L45.4687 26.0978C44.4533 27.2588 43.3252 28.4669 42.0795 29.6984V0.00958798H57.2859V0.00488281Z" fill="#FFC931"/>
<path d="M45.4686 26.0928C44.4533 27.2538 43.3252 28.4619 42.0795 29.6934C41.4637 30.3045 40.8151 30.925 40.1429 31.5408L42.0795 29.5618L45.4686 26.0928Z" fill="#FFC931"/>
<path d="M52.8438 15.7799C52.5853 16.264 50.2491 20.6403 45.4687 26.0929C44.4533 27.254 43.3252 28.462 42.0795 29.6936C41.4638 30.3046 40.8151 30.9251 40.1429 31.5409C31.5455 39.4238 18.6848 47.6216 0 49.2197V32.2413C10.5105 31.0849 19.6108 27.0894 27.6582 20.3394C29.6277 18.6848 31.3152 17.0255 32.7301 15.4743L32.7489 15.4508C32.8288 15.3662 32.904 15.291 32.9745 15.2064C36.5047 11.2955 38.3003 8.14613 38.5212 7.74658L42.0795 9.74433L51.8191 15.2064L52.8438 15.7799Z" fill="#FFC931"/>
</svg>
