<svg width="174" height="50" viewBox="0 0 174 50" fill="none" xmlns="http://www.w3.org/2000/svg">
<path d="M76.704 5.98853H67.787V0H92.9915V5.98853H84.0745V22.7038H76.704V5.98853Z" fill="#18186C"/>
<path d="M95.6896 0.00469208H103.06V22.7085H95.6896V0.00469208Z" fill="#18186C"/>
<path d="M107.403 0.00469208H123.855C126.751 0.00469208 128.899 0.709783 130.305 2.12466C131.71 3.53953 132.41 5.51848 132.41 8.06619C132.41 10.6139 131.71 12.7056 130.305 14.1534C128.899 15.6012 126.751 16.3251 123.855 16.3251H114.774V22.7085H107.403V0.00469208ZM124.941 8.52683V7.70423C124.941 7.15427 124.763 6.68422 124.401 6.28937C124.039 5.89452 123.484 5.69709 122.737 5.69709H114.774V10.6327H122.737C123.526 10.6327 124.09 10.44 124.429 10.0545C124.767 9.66907 124.937 9.16141 124.937 8.52683H124.941Z" fill="#18186C"/>
<path d="M68.0173 43.1513C67.9938 41.8351 68.3558 40.6647 69.1032 39.6446C69.8506 38.6246 71.209 37.7832 73.1833 37.1298C72.3701 36.4482 71.759 35.7479 71.3406 35.024C70.9223 34.3001 70.7155 33.4352 70.7155 32.4245C70.7155 30.6242 71.4675 29.1577 72.967 28.0154C74.4712 26.8732 76.9766 26.3044 80.4879 26.3044C83.9993 26.3044 86.4342 26.8685 87.9243 27.9966C89.4143 29.1248 90.1617 30.5678 90.1617 32.3258C90.1617 33.5997 89.6776 34.7137 88.714 35.6632C87.7503 36.6175 86.1569 37.4683 83.9429 38.2157L88.2862 41.1441C88.5071 40.7258 88.6857 40.2651 88.8268 39.7621C88.9678 39.2592 89.0759 38.7186 89.1417 38.1499H95.3935C95.3042 39.3767 95.0738 40.5142 94.7025 41.5578C94.3311 42.6013 93.8376 43.5367 93.2218 44.3687C93.5744 44.5426 93.9598 44.6649 94.3875 44.7307C94.8153 44.7965 95.3277 44.8294 95.9152 44.8294H96.9352V49.5017H94.9939C93.7436 49.5017 92.6436 49.3842 91.6847 49.1586C90.7305 48.9283 89.8468 48.5146 89.0383 47.927C87.7221 48.6086 86.2508 49.121 84.6292 49.4735C83.0075 49.8261 81.3059 50 79.529 50C77.3339 50 75.4912 49.812 74.0012 49.4406C72.5111 49.0693 71.3265 48.5757 70.4475 47.9599C69.5685 47.3442 68.9433 46.6203 68.572 45.7883C68.2007 44.9563 68.0126 44.0773 68.0126 43.156L68.0173 43.1513ZM75.0588 42.8222C75.0588 43.5696 75.4631 44.1525 76.2763 44.5849C77.0894 45.0127 78.3586 45.2242 80.0931 45.2242C80.8405 45.2242 81.5503 45.1772 82.2319 45.0785C82.9135 44.9798 83.5386 44.8341 84.1074 44.6366L77.2963 40.0959C76.4831 40.3591 75.9096 40.6835 75.5712 41.0642C75.2327 41.4496 75.0635 41.9056 75.0635 42.4321V42.8269L75.0588 42.8222ZM77.2634 32.7207C77.2634 33.2236 77.489 33.6984 77.9355 34.1356C78.3868 34.5727 79.0167 35.0334 79.8299 35.5175C81.1225 35.165 82.0767 34.7607 82.6925 34.3001C83.3083 33.8394 83.6138 33.313 83.6138 32.7207V32.4245C83.6138 31.9216 83.3271 31.5408 82.7583 31.287C82.1896 31.0332 81.4328 30.911 80.4879 30.911C79.5431 30.911 78.744 31.0379 78.1518 31.287C77.5595 31.5408 77.2634 31.9169 77.2634 32.4245V32.7207Z" fill="#18186C"/>
<path d="M103.948 32.7818H95.0315V26.7933H120.236V32.7818H111.319V49.497H103.948V32.7818Z" fill="#18186C"/>
<path d="M126.685 26.798H136.787L146.428 49.5017H138.761L136.885 45.0268H125.797L123.921 49.5017H117.011L126.685 26.798ZM128.001 39.7621H134.714L131.358 31.7007L128.001 39.7621Z" fill="#18186C"/>
<path d="M148.501 26.798H164.953C167.848 26.798 169.996 27.503 171.402 28.9179C172.807 30.3328 173.508 32.3117 173.508 34.8595C173.508 37.4072 172.807 39.4989 171.402 40.9467C169.996 42.3945 167.848 43.1184 164.953 43.1184H155.871V49.5017H148.501V26.798ZM166.038 35.3201V34.4975C166.038 33.9475 165.86 33.4775 165.498 33.0826C165.136 32.6878 164.581 32.4904 163.834 32.4904H155.871V37.426H163.834C164.624 37.426 165.188 37.2332 165.526 36.8478C165.864 36.4623 166.034 35.9547 166.034 35.3201H166.038Z" fill="#18186C"/>
<path d="M57.0462 0.00467682V15.2063H32.9369L35.0428 13.6081L37.332 9.65495C37.7456 9.11439 37.0734 8.2683 36.4906 8.62554C36.4906 8.62554 32.3353 11.5775 30.2388 12.8749C28.1423 14.1722 25.8579 15.2063 25.8579 15.2063H7.54913V0.00467682H57.0462Z" fill="#FFC931"/>
<path d="M57.2859 0.00467682V49.5017H42.0795V39.6352C42.0795 38.1357 42.4838 36.6645 43.2547 35.3765L45.4687 31.6725L48.3548 26.4407C48.9142 25.1857 47.2549 24.1374 46.3618 25.1857L45.4687 26.0976C44.4533 27.2586 43.3252 28.4667 42.0795 29.6982V0.00938198H57.2859V0.00467682Z" fill="#FFC931"/>
<path d="M45.4686 26.0929C44.4533 27.2539 43.3252 28.462 42.0795 29.6935C41.4637 30.3046 40.8151 30.9251 40.1429 31.5408L42.0795 29.5619L45.4686 26.0929Z" fill="#FFC931"/>
<path d="M52.8438 15.7798C52.5853 16.264 50.2491 20.6402 45.4687 26.0929C44.4533 27.2539 43.3252 28.462 42.0795 29.6935C41.4638 30.3046 40.8151 30.9251 40.1429 31.5409C31.5455 39.4237 18.6848 47.6215 0 49.2197V32.2412C10.5105 31.0849 19.6108 27.0894 27.6582 20.3394C29.6277 18.6848 31.3152 17.0255 32.7301 15.4743L32.7489 15.4508C32.8288 15.3662 32.904 15.291 32.9745 15.2064C36.5047 11.2955 38.3003 8.14609 38.5212 7.74654L42.0795 9.74428L51.8191 15.2064L52.8438 15.7798Z" fill="#FFC931"/>
</svg>
