<svg width="25" height="23" viewBox="0 0 25 23" fill="none" xmlns="http://www.w3.org/2000/svg">
<path d="M1.92592 20.2962C1.39709 20.825 1.39709 21.6824 1.92592 22.2112C2.45476 22.7401 3.31217 22.7401 3.841 22.2112L1.92592 20.2962ZM23.0204 3.03175C23.5493 2.50291 23.5493 1.6455 23.0204 1.11667C22.4916 0.587838 21.6342 0.587838 21.1054 1.11667L23.0204 3.03175ZM3.841 22.2112L12.3025 13.7497L10.3874 11.8346L1.92592 20.2962L3.841 22.2112ZM14.5589 11.4933L23.0204 3.03175L21.1054 1.11667L12.6438 9.57821L14.5589 11.4933Z" fill="white"/>
<path d="M5.96207 0.663574H3.62622C2.45919 0.663574 1.87568 0.663574 1.63171 0.97074C1.55562 1.06653 1.50215 1.17827 1.47528 1.29762C1.38912 1.6803 1.75518 2.13472 2.48729 3.04354L17.8533 22.1185C18.0447 22.3562 18.1404 22.475 18.2665 22.5498C18.3081 22.5745 18.3518 22.5954 18.3972 22.6123C18.5345 22.6636 18.6871 22.6636 18.9922 22.6636H21.3199C22.4866 22.6636 23.07 22.6636 23.3139 22.3565C23.39 22.2607 23.4435 22.149 23.4704 22.0297C23.5566 21.647 23.1907 21.1927 22.4591 20.2839L7.10124 1.2089C6.90983 0.971162 6.81412 0.852293 6.68801 0.777422C6.64639 0.752714 6.60265 0.731774 6.5573 0.714852C6.4199 0.663574 6.26729 0.663574 5.96207 0.663574Z" fill="white"/>
</svg>
