<svg width="16" height="11" viewBox="0 0 16 11" fill="none" xmlns="http://www.w3.org/2000/svg">
<g clip-path="url(#clip0_4_421)">
<path fill-rule="evenodd" clip-rule="evenodd" d="M13.6189 0.576605C14.2614 0.749639 14.768 1.25615 14.9409 1.89874C15.2623 3.07244 15.2499 5.51894 15.2499 5.51894C15.2499 5.51894 15.2499 7.95298 14.9411 9.12679C14.768 9.76926 14.2615 10.2759 13.6189 10.4488C12.4451 10.7578 7.74997 10.7578 7.74997 10.7578C7.74997 10.7578 3.06707 10.7578 1.88101 10.4366C1.23842 10.2635 0.731909 9.7569 0.558875 9.11444C0.25 7.95298 0.25 5.50659 0.25 5.50659C0.25 5.50659 0.25 3.07244 0.558875 1.89874C0.731794 1.25627 1.25078 0.73728 1.88089 0.56436C3.05471 0.255371 7.74985 0.255371 7.74985 0.255371C7.74985 0.255371 12.4451 0.255371 13.6189 0.576605ZM10.1583 5.50657L6.25391 7.75532V3.25781L10.1583 5.50657Z" fill="white"/>
</g>
<defs>
<clipPath id="clip0_4_421">
<rect width="16" height="11" fill="white"/>
</clipPath>
</defs>
</svg>
